Chivo-Bold.ufo
<glyph name="exclam" format="1">
  <advance width="290"/>
  <unicode hex="0021"/>
  <outline>
    <contour>
      <point x="233" y="686" type="line"/>
      <point x="192" y="202" type="line"/>
      <point x="95" y="202" type="line"/>
      <point x="56" y="686" type="line"/>
    </contour>
    <contour>
      <point x="218" y="147" type="line"/>
      <point x="218" y="0" type="line"/>
      <point x="72" y="0" type="line"/>
      <point x="72" y="147" type="line"/>
    </contour>
  </outline>
</glyph>
<glyph name="quotedbl" format="1">
  <advance width="461"/>
  <unicode hex="0022"/>
  <outline>
    <contour>
      <point x="166" y="401" type="curve"/>
      <point x="116" y="401" type="line"/>
      <point x="104" y="447"/>
      <point x="94" y="492"/>
      <point x="82" y="539" type="curve"/>
      <point x="82" y="686" type="line"/>
      <point x="200" y="686" type="line"/>
      <point x="200" y="539" type="line"/>
      <point x="189" y="492"/>
      <point x="178" y="447"/>
    </contour>
    <contour>
      <point x="344" y="401" type="curve"/>
      <point x="294" y="401" type="line"/>
      <point x="283" y="447"/>
      <point x="272" y="492"/>
      <point x="260" y="539" type="curve"/>
      <point x="260" y="686" type="line"/>
      <point x="379" y="686" type="line"/>
      <point x="379" y="539" type="line"/>
      <point x="367" y="492"/>
      <point x="355" y="447"/>
    </contour>
  </outline>
</glyph>
<glyph name="numbersign" format="1">
  <advance width="600"/>
  <unicode hex="0023"/>
  <outline>
    <contour>
      <point x="178" y="494" type="line"/>
      <point x="223" y="696" type="line"/>
      <point x="320" y="696" type="line"/>
      <point x="275" y="494" type="line"/>
      <point x="405" y="494" type="line"/>
      <point x="450" y="696" type="line"/>
      <point x="546" y="696" type="line"/>
      <point x="531" y="628"/>
      <point x="516" y="561"/>
      <point x="500" y="494" type="curve"/>
      <point x="598" y="494" type="line"/>
      <point x="598" y="402" type="line"/>
      <point x="482" y="402" type="line"/>
      <point x="452" y="264" type="line"/>
      <point x="562" y="264" type="line"/>
      <point x="562" y="172" type="line"/>
      <point x="430" y="172" type="line"/>
      <point x="418" y="115"/>
      <point x="405" y="57"/>
      <point x="392" y="0" type="curve"/>
      <point x="296" y="0" type="line"/>
      <point x="309" y="57"/>
      <point x="322" y="115"/>
      <point x="334" y="172" type="curve"/>
      <point x="203" y="172" type="line"/>
      <point x="166" y="0" type="line"/>
      <point x="69" y="0" type="line"/>
      <point x="107" y="172" type="line"/>
      <point x="3" y="172" type="line"/>
      <point x="3" y="264" type="line"/>
      <point x="128" y="264" type="line"/>
      <point x="159" y="402" type="line"/>
      <point x="45" y="402" type="line"/>
      <point x="45" y="494" type="line"/>
    </contour>
    <contour>
      <point x="355" y="263" type="line"/>
      <point x="386" y="401" type="line"/>
      <point x="254" y="401" type="line"/>
      <point x="224" y="263" type="line"/>
    </contour>
  </outline>
</glyph>
<glyph name="dollar" format="1">
  <advance width="586"/>
  <unicode hex="0024"/>
  <outline>
    <contour>
      <point x="399" y="476" type="line"/>
      <point x="399" y="485" type="line" smooth="yes"/>
      <point x="399" y="529"/>
      <point x="361" y="560"/>
      <point x="298" y="560" type="curve" smooth="yes"/>
      <point x="232" y="560"/>
      <point x="193" y="534"/>
      <point x="193" y="500" type="curve" smooth="yes"/>
      <point x="193" y="380"/>
      <point x="547" y="460"/>
      <point x="547" y="228" type="curve" smooth="yes"/>
      <point x="547" y="89"/>
      <point x="455" y="28"/>
      <point x="324" y="20" type="curve"/>
      <point x="328" y="-8"/>
      <point x="332" y="-37"/>
      <point x="337" y="-66" type="curve"/>
      <point x="236" y="-66" type="line"/>
      <point x="249" y="21" type="line"/>
      <point x="131" y="31"/>
      <point x="35" y="89"/>
      <point x="35" y="216" type="curve" smooth="yes"/>
      <point x="35" y="223"/>
      <point x="36" y="236"/>
      <point x="36" y="236" type="curve"/>
      <point x="171" y="236" type="line" smooth="yes"/>
      <point x="171" y="234"/>
      <point x="170" y="226"/>
      <point x="170" y="221" type="curve" smooth="yes"/>
      <point x="170" y="169"/>
      <point x="209" y="137"/>
      <point x="283" y="137" type="curve" smooth="yes"/>
      <point x="375" y="137"/>
      <point x="402" y="170"/>
      <point x="402" y="205" type="curve" smooth="yes"/>
      <point x="402" y="328"/>
      <point x="50" y="242"/>
      <point x="50" y="485" type="curve" smooth="yes"/>
      <point x="50" y="597"/>
      <point x="136" y="658"/>
      <point x="249" y="671" type="curve"/>
      <point x="245" y="700"/>
      <point x="241" y="729"/>
      <point x="236" y="758" type="curve"/>
      <point x="337" y="758" type="line"/>
      <point x="332" y="729"/>
      <point x="328" y="701"/>
      <point x="324" y="672" type="curve"/>
      <point x="441" y="664"/>
      <point x="533" y="607"/>
      <point x="533" y="487" type="curve" smooth="yes"/>
      <point x="533" y="476" type="line"/>
    </contour>
  </outline>
</glyph>
<glyph name="ampersand" format="1">
  <advance width="670"/>
  <unicode hex="0026"/>
  <outline>
    <contour>
      <point x="347" y="691" type="curve"/>
      <point x="347" y="570" type="line"/>
      <point x="334" y="574"/>
      <point x="320" y="577"/>
      <point x="304" y="577" type="curve" smooth="yes"/>
      <point x="250" y="577"/>
      <point x="201" y="550"/>
      <point x="201" y="493" type="curve" smooth="yes"/>
      <point x="201" y="460"/>
      <point x="234" y="408"/>
      <point x="300" y="408" type="curve" smooth="yes"/>
      <point x="422" y="408" type="line"/>
      <point x="436" y="452"/>
      <point x="450" y="495"/>
      <point x="463" y="539" type="curve"/>
      <point x="566" y="539" type="line"/>
      <point x="566" y="408" type="line"/>
      <point x="660" y="408" type="line"/>
      <point x="660" y="292" type="line"/>
      <point x="566" y="292" type="line"/>
      <point x="566" y="0" type="line"/>
      <point x="294" y="0" type="line" smooth="yes"/>
      <point x="159" y="0"/>
      <point x="37" y="51"/>
      <point x="37" y="195" type="curve" smooth="yes"/>
      <point x="37" y="284"/>
      <point x="88" y="332"/>
      <point x="163" y="357" type="curve"/>
      <point x="98" y="381"/>
      <point x="55" y="433"/>
      <point x="55" y="507" type="curve" smooth="yes"/>
      <point x="55" y="631"/>
      <point x="172" y="696"/>
      <point x="291" y="696" type="curve" smooth="yes"/>
      <point x="310" y="696"/>
      <point x="329" y="694"/>
    </contour>
    <contour>
      <point x="418" y="292" type="line"/>
      <point x="304" y="292" type="line" smooth="yes"/>
      <point x="222" y="292"/>
      <point x="185" y="251"/>
      <point x="185" y="204" type="curve" smooth="yes"/>
      <point x="185" y="129"/>
      <point x="256" y="113"/>
      <point x="325" y="113" type="curve" smooth="yes"/>
      <point x="418" y="113" type="line"/>
    </contour>
  </outline>
</glyph>
<glyph name="parenleft" format="1">
  <advance width="326"/>
  <unicode hex="0028"/>
  <outline>
    <contour>
      <point x="36" y="264" type="curve" smooth="yes"/>
      <point x="36" y="419"/>
      <point x="93" y="570"/>
      <point x="195" y="686" type="curve"/>
      <point x="275" y="686" type="line"/>
      <point x="205" y="570"/>
      <point x="155" y="406"/>
      <point x="155" y="265" type="curve" smooth="yes"/>
      <point x="155" y="123"/>
      <point x="205" y="-42"/>
      <point x="275" y="-157" type="curve"/>
      <point x="195" y="-157" type="line"/>
      <point x="93" y="-41"/>
      <point x="36" y="109"/>
    </contour>
  </outline>
</glyph>
<glyph name="parenright" format="1">
  <advance width="326"/>
  <unicode hex="0029"/>
  <outline>
    <contour>
      <point x="285" y="264" type="curve" smooth="yes"/>
      <point x="285" y="109"/>
      <point x="228" y="-42"/>
      <point x="126" y="-158" type="curve"/>
      <point x="46" y="-158" type="line"/>
      <point x="115" y="-43"/>
      <point x="165" y="123"/>
      <point x="165" y="265" type="curve" smooth="yes"/>
      <point x="165" y="406"/>
      <point x="115" y="570"/>
      <point x="46" y="686" type="curve"/>
      <point x="126" y="686" type="line"/>
      <point x="228" y="570"/>
      <point x="285" y="419"/>
    </contour>
  </outline>
</glyph>
<glyph name="asterisk" format="1">
  <advance width="583"/>
  <unicode hex="002A"/>
  <outline>
    <contour>
      <point x="455" y="339" type="line"/>
      <point x="373" y="279" type="line"/>
      <point x="289" y="417" type="line"/>
      <point x="207" y="280" type="line"/>
      <point x="125" y="339" type="line"/>
      <point x="230" y="458" type="line"/>
      <point x="75" y="496" type="line"/>
      <point x="107" y="589" type="line"/>
      <point x="255" y="526" type="line"/>
      <point x="242" y="686" type="line"/>
      <point x="341" y="686" type="line"/>
      <point x="326" y="526" type="line"/>
      <point x="479" y="588" type="line"/>
      <point x="508" y="494" type="line"/>
      <point x="350" y="458" type="line"/>
    </contour>
  </outline>
</glyph>
<glyph name="plus" format="1">
  <advance width="600"/>
  <unicode hex="002B"/>
  <outline>
    <contour>
      <point x="556" y="308" type="line"/>
      <point x="556" y="202" type="line"/>
      <point x="352" y="202" type="line"/>
      <point x="352" y="0" type="line"/>
      <point x="247" y="0" type="line"/>
      <point x="247" y="202" type="line"/>
      <point x="44" y="202" type="line"/>
      <point x="44" y="308" type="line"/>
      <point x="247" y="308" type="line"/>
      <point x="247" y="511" type="line"/>
      <point x="352" y="511" type="line"/>
      <point x="352" y="308" type="line"/>
    </contour>
  </outline>
</glyph>
<glyph name="period" format="1">
  <advance width="277"/>
  <unicode hex="002E"/>
  <outline>
    <contour>
      <point x="211" y="147" type="line"/>
      <point x="211" y="0" type="line"/>
      <point x="65" y="0" type="line"/>
      <point x="65" y="147" type="line"/>
    </contour>
  </outline>
</glyph>
<glyph name="zero" format="1">
  <advance width="612"/>
  <unicode hex="0030"/>
  <outline>
    <contour>
      <point x="560" y="455" type="curve" smooth="yes"/>
      <point x="560" y="230" type="line" smooth="yes"/>
      <point x="560" y="94"/>
      <point x="454" y="-10"/>
      <point x="320" y="-10" type="curve" smooth="yes"/>
      <point x="291" y="-10" type="line" smooth="yes"/>
      <point x="157" y="-10"/>
      <point x="52" y="94"/>
      <point x="52" y="230" type="curve" smooth="yes"/>
      <point x="52" y="455" type="line" smooth="yes"/>
      <point x="52" y="591"/>
      <point x="157" y="696"/>
      <point x="291" y="696" type="curve" smooth="yes"/>
      <point x="320" y="696" type="line" smooth="yes"/>
      <point x="454" y="696"/>
      <point x="560" y="591"/>
    </contour>
    <contour>
      <point x="412" y="214" type="curve" smooth="yes"/>
      <point x="412" y="472" type="line" smooth="yes"/>
      <point x="412" y="532"/>
      <point x="367" y="579"/>
      <point x="306" y="579" type="curve" smooth="yes"/>
      <point x="245" y="579"/>
      <point x="200" y="532"/>
      <point x="200" y="472" type="curve" smooth="yes"/>
      <point x="200" y="214" type="line" smooth="yes"/>
      <point x="200" y="154"/>
      <point x="245" y="107"/>
      <point x="306" y="107" type="curve" smooth="yes"/>
      <point x="367" y="107"/>
      <point x="412" y="154"/>
    </contour>
  </outline>
</glyph>
<glyph name="one" format="1">
  <advance width="612"/>
  <unicode hex="0031"/>
  <outline>
    <contour>
      <point x="80" y="121" type="line"/>
      <point x="246" y="121" type="line"/>
      <point x="246" y="514" type="line"/>
      <point x="79" y="514" type="line"/>
      <point x="79" y="603" type="line"/>
      <point x="156" y="609"/>
      <point x="259" y="646"/>
      <point x="340" y="691" type="curve"/>
      <point x="393" y="691" type="line"/>
      <point x="393" y="121" type="line"/>
      <point x="556" y="121" type="line"/>
      <point x="556" y="0" type="line"/>
      <point x="80" y="0" type="line"/>
    </contour>
  </outline>
</glyph>
<glyph name="three" format="1">
  <advance width="612"/>
  <unicode hex="0033"/>
  <outline>
    <contour>
      <point x="37" y="205" type="line"/>
      <point x="174" y="205" type="line"/>
      <point x="174" y="140"/>
      <point x="213" y="109"/>
      <point x="292" y="109" type="curve" smooth="yes"/>
      <point x="370" y="109"/>
      <point x="414" y="140"/>
      <point x="414" y="205" type="curve" smooth="yes"/>
      <point x="414" y="286"/>
      <point x="349" y="296"/>
      <point x="285" y="296" type="curve" smooth="yes"/>
      <point x="213" y="296" type="line"/>
      <point x="213" y="403" type="line"/>
      <point x="295" y="403" type="line" smooth="yes"/>
      <point x="351" y="403"/>
      <point x="398" y="432"/>
      <point x="398" y="492" type="curve" smooth="yes"/>
      <point x="398" y="551"/>
      <point x="348" y="577"/>
      <point x="292" y="577" type="curve" smooth="yes"/>
      <point x="238" y="577"/>
      <point x="189" y="546"/>
      <point x="189" y="488" type="curve"/>
      <point x="56" y="488" type="line"/>
      <point x="56" y="509" type="line" smooth="yes"/>
      <point x="56" y="617"/>
      <point x="154" y="696"/>
      <point x="294" y="696" type="curve" smooth="yes"/>
      <point x="313" y="696" type="line" smooth="yes"/>
      <point x="448" y="696"/>
      <point x="545" y="617"/>
      <point x="545" y="510" type="curve" smooth="yes"/>
      <point x="545" y="435"/>
      <point x="503" y="386"/>
      <point x="443" y="359" type="curve"/>
      <point x="443" y="354" type="line"/>
      <point x="516" y="330"/>
      <point x="563" y="274"/>
      <point x="563" y="186" type="curve" smooth="yes"/>
      <point x="563" y="73"/>
      <point x="466" y="-10"/>
      <point x="313" y="-10" type="curve" smooth="yes"/>
      <point x="286" y="-10" type="line" smooth="yes"/>
      <point x="126" y="-10"/>
      <point x="37" y="76"/>
      <point x="37" y="191" type="curve" smooth="yes"/>
    </contour>
  </outline>
</glyph>
<glyph name="four" format="1">
  <advance width="612"/>
  <unicode hex="0034"/>
  <outline>
    <contour>
      <point x="335" y="278" type="line"/>
      <point x="335" y="428" type="line"/>
      <point x="370" y="480"/>
      <point x="400" y="559"/>
      <point x="414" y="612" type="curve"/>
      <point x="478" y="612" type="line"/>
      <point x="478" y="278" type="line"/>
      <point x="570" y="278" type="line"/>
      <point x="570" y="160" type="line"/>
      <point x="478" y="160" type="line"/>
      <point x="478" y="0" type="line"/>
      <point x="335" y="0" type="line"/>
      <point x="335" y="160" type="line"/>
      <point x="33" y="160" type="line"/>
      <point x="33" y="279" type="line"/>
      <point x="102" y="388"/>
      <point x="182" y="570"/>
      <point x="218" y="696" type="curve"/>
      <point x="359" y="696" type="line"/>
      <point x="326" y="551"/>
      <point x="204" y="347"/>
      <point x="145" y="278" type="curve"/>
    </contour>
  </outline>
</glyph>
<glyph name="five" format="1">
  <advance width="612"/>
  <unicode hex="0035"/>
  <outline>
    <contour>
      <point x="341" y="453" type="curve" smooth="yes"/>
      <point x="483" y="453"/>
      <point x="561" y="354"/>
      <point x="561" y="223" type="curve" smooth="yes"/>
      <point x="561" y="89"/>
      <point x="461" y="-10"/>
      <point x="312" y="-10" type="curve" smooth="yes"/>
      <point x="297" y="-10" type="line" smooth="yes"/>
      <point x="145" y="-10"/>
      <point x="50" y="92"/>
      <point x="49" y="219" type="curve"/>
      <point x="186" y="219" type="line"/>
      <point x="187" y="155"/>
      <point x="241" y="111"/>
      <point x="299" y="111" type="curve" smooth="yes"/>
      <point x="367" y="111"/>
      <point x="413" y="158"/>
      <point x="413" y="227" type="curve" smooth="yes"/>
      <point x="413" y="287"/>
      <point x="376" y="339"/>
      <point x="306" y="339" type="curve" smooth="yes"/>
      <point x="248" y="339"/>
      <point x="216" y="311"/>
      <point x="199" y="287" type="curve"/>
      <point x="76" y="305" type="line"/>
      <point x="104" y="686" type="line"/>
      <point x="517" y="686" type="line"/>
      <point x="517" y="556" type="line"/>
      <point x="220" y="556" type="line"/>
      <point x="208" y="405" type="line"/>
      <point x="227" y="420"/>
      <point x="274" y="453"/>
    </contour>
  </outline>
</glyph>
<glyph name="seven" format="1">
  <advance width="612"/>
  <unicode hex="0037"/>
  <outline>
    <contour>
      <point x="562" y="686" type="line"/>
      <point x="562" y="614" type="line"/>
      <point x="445" y="464"/>
      <point x="321" y="267"/>
      <point x="321" y="55" type="curve" smooth="yes"/>
      <point x="321" y="45"/>
      <point x="321" y="12"/>
      <point x="322" y="0" type="curve"/>
      <point x="154" y="0" type="line"/>
      <point x="154" y="213"/>
      <point x="278" y="411"/>
      <point x="391" y="555" type="curve"/>
      <point x="66" y="555" type="line"/>
      <point x="66" y="686" type="line"/>
    </contour>
  </outline>
</glyph>
<glyph name="eight" format="1">
  <advance width="612"/>
  <unicode hex="0038"/>
  <outline>
    <contour>
      <point x="452" y="352" type="curve"/>
      <point x="452" y="348" type="line"/>
      <point x="517" y="314"/>
      <point x="561" y="273"/>
      <point x="561" y="187" type="curve" smooth="yes"/>
      <point x="561" y="61"/>
      <point x="464" y="-10"/>
      <point x="306" y="-10" type="curve" smooth="yes"/>
      <point x="156" y="-10"/>
      <point x="51" y="61"/>
      <point x="51" y="187" type="curve" smooth="yes"/>
      <point x="51" y="273"/>
      <point x="95" y="315"/>
      <point x="160" y="348" type="curve"/>
      <point x="160" y="352" type="line"/>
      <point x="111" y="385"/>
      <point x="74" y="420"/>
      <point x="74" y="500" type="curve" smooth="yes"/>
      <point x="74" y="625"/>
      <point x="174" y="696"/>
      <point x="306" y="696" type="curve" smooth="yes"/>
      <point x="438" y="696"/>
      <point x="538" y="625"/>
      <point x="538" y="500" type="curve" smooth="yes"/>
      <point x="538" y="420"/>
      <point x="501" y="385"/>
    </contour>
    <contour>
      <point x="211" y="498" type="curve" smooth="yes"/>
      <point x="211" y="487" type="line" smooth="yes"/>
      <point x="211" y="438"/>
      <point x="250" y="399"/>
      <point x="306" y="399" type="curve" smooth="yes"/>
      <point x="362" y="399"/>
      <point x="401" y="438"/>
      <point x="401" y="487" type="curve" smooth="yes"/>
      <point x="401" y="498" type="line" smooth="yes"/>
      <point x="401" y="547"/>
      <point x="362" y="586"/>
      <point x="306" y="586" type="curve" smooth="yes"/>
      <point x="250" y="586"/>
      <point x="211" y="547"/>
    </contour>
    <contour>
      <point x="200" y="208" type="curve" smooth="yes"/>
      <point x="200" y="192" type="line" smooth="yes"/>
      <point x="200" y="134"/>
      <point x="247" y="100"/>
      <point x="306" y="100" type="curve" smooth="yes"/>
      <point x="365" y="100"/>
      <point x="412" y="134"/>
      <point x="412" y="192" type="curve" smooth="yes"/>
      <point x="412" y="208" type="line" smooth="yes"/>
      <point x="412" y="266"/>
      <point x="365" y="300"/>
      <point x="306" y="300" type="curve" smooth="yes"/>
      <point x="247" y="300"/>
      <point x="200" y="266"/>
    </contour>
  </outline>
</glyph>
<glyph name="nine" format="1">
  <advance width="612"/>
  <unicode hex="0039"/>
  <outline>
    <contour>
      <point x="305" y="109" type="curve" smooth="yes"/>
      <point x="357" y="109"/>
      <point x="413" y="154"/>
      <point x="413" y="213" type="curve" smooth="yes"/>
      <point x="413" y="310" type="line"/>
      <point x="376" y="271"/>
      <point x="323" y="251"/>
      <point x="273" y="251" type="curve" smooth="yes"/>
      <point x="150" y="251"/>
      <point x="51" y="331"/>
      <point x="51" y="460" type="curve" smooth="yes"/>
      <point x="51" y="605"/>
      <point x="160" y="696"/>
      <point x="298" y="696" type="curve" smooth="yes"/>
      <point x="312" y="696" type="line" smooth="yes"/>
      <point x="449" y="696"/>
      <point x="560" y="598"/>
      <point x="560" y="454" type="curve" smooth="yes"/>
      <point x="560" y="230" type="line" smooth="yes"/>
      <point x="560" y="94"/>
      <point x="451" y="-10"/>
      <point x="315" y="-10" type="curve" smooth="yes"/>
      <point x="301" y="-10" type="line" smooth="yes"/>
      <point x="170" y="-10"/>
      <point x="65" y="71"/>
      <point x="65" y="216" type="curve"/>
      <point x="203" y="216" type="line"/>
      <point x="203" y="158"/>
      <point x="244" y="109"/>
    </contour>
    <contour>
      <point x="196" y="478" type="curve" smooth="yes"/>
      <point x="196" y="457" type="line" smooth="yes"/>
      <point x="196" y="397"/>
      <point x="242" y="354"/>
      <point x="304" y="354" type="curve" smooth="yes"/>
      <point x="363" y="354"/>
      <point x="413" y="397"/>
      <point x="413" y="457" type="curve" smooth="yes"/>
      <point x="413" y="478" type="line" smooth="yes"/>
      <point x="413" y="538"/>
      <point x="366" y="581"/>
      <point x="304" y="581" type="curve" smooth="yes"/>
      <point x="245" y="581"/>
      <point x="196" y="538"/>
    </contour>
  </outline>
</glyph>
<glyph name="less" format="1">
  <advance width="599"/>
  <unicode hex="003C"/>
  <outline>
    <contour>
      <point x="554" y="512" type="line"/>
      <point x="554" y="398" type="line"/>
      <point x="165" y="254" type="line"/>
      <point x="554" y="110" type="line"/>
      <point x="554" y="-3" type="line"/>
      <point x="384" y="61"/>
      <point x="215" y="127"/>
      <point x="45" y="192" type="curve"/>
      <point x="45" y="315" type="line"/>
    </contour>
  </outline>
</glyph>
<glyph name="equal" format="1">
  <advance width="600"/>
  <unicode hex="003D"/>
  <outline>
    <contour>
      <point x="46" y="415" type="line"/>
      <point x="554" y="415" type="line"/>
      <point x="554" y="309" type="line"/>
      <point x="46" y="309" type="line"/>
    </contour>
    <contour>
      <point x="46" y="199" type="line"/>
      <point x="554" y="199" type="line"/>
      <point x="554" y="93" type="line"/>
      <point x="46" y="93" type="line"/>
    </contour>
  </outline>
</glyph>
<glyph name="greater" format="1">
  <advance width="600"/>
  <unicode hex="003E"/>
  <outline>
    <contour>
      <point x="554" y="315" type="line"/>
      <point x="554" y="192" type="line"/>
      <point x="384" y="127"/>
      <point x="215" y="61"/>
      <point x="45" y="-3" type="curve"/>
      <point x="45" y="110" type="line"/>
      <point x="433" y="254" type="line"/>
      <point x="303" y="302"/>
      <point x="174" y="349"/>
      <point x="45" y="398" type="curve"/>
      <point x="45" y="512" type="line"/>
    </contour>
  </outline>
</glyph>
<glyph name="question" format="1">
  <advance width="572"/>
  <unicode hex="003F"/>
  <outline>
    <contour>
      <point x="222" y="201" type="line"/>
      <point x="222" y="259" type="line" smooth="yes"/>
      <point x="222" y="358"/>
      <point x="365" y="387"/>
      <point x="365" y="493" type="curve" smooth="yes"/>
      <point x="365" y="543"/>
      <point x="338" y="582"/>
      <point x="275" y="582" type="curve" smooth="yes"/>
      <point x="196" y="582"/>
      <point x="181" y="521"/>
      <point x="181" y="484" type="curve" smooth="yes"/>
      <point x="181" y="473"/>
      <point x="182" y="452"/>
      <point x="182" y="452" type="curve"/>
      <point x="41" y="452" type="line"/>
      <point x="40" y="461"/>
      <point x="38" y="472"/>
      <point x="38" y="489" type="curve" smooth="yes"/>
      <point x="38" y="592"/>
      <point x="130" y="696"/>
      <point x="274" y="696" type="curve" smooth="yes"/>
      <point x="296" y="696" type="line" smooth="yes"/>
      <point x="442" y="696"/>
      <point x="521" y="599"/>
      <point x="521" y="491" type="curve" smooth="yes"/>
      <point x="521" y="325"/>
      <point x="358" y="307"/>
      <point x="358" y="233" type="curve" smooth="yes"/>
      <point x="358" y="201" type="line"/>
    </contour>
    <contour>
      <point x="363" y="147" type="line"/>
      <point x="363" y="0" type="line"/>
      <point x="216" y="0" type="line"/>
      <point x="216" y="147" type="line"/>
    </contour>
  </outline>
</glyph>
<glyph name="at" format="1">
  <advance width="927"/>
  <unicode hex="0040"/>
  <outline>
    <contour>
      <point x="688" y="371" type="curve" smooth="yes"/>
      <point x="688" y="150" type="line" smooth="yes"/>
      <point x="688" y="124"/>
      <point x="704" y="113"/>
      <point x="723" y="113" type="curve" smooth="yes"/>
      <point x="758" y="113"/>
      <point x="813" y="146"/>
      <point x="813" y="321" type="curve" smooth="yes"/>
      <point x="813" y="546"/>
      <point x="674" y="639"/>
      <point x="475" y="639" type="curve" smooth="yes"/>
      <point x="253" y="639"/>
      <point x="114" y="516"/>
      <point x="114" y="261" type="curve" smooth="yes"/>
      <point x="114" y="24"/>
      <point x="218" y="-95"/>
      <point x="441" y="-95" type="curve" smooth="yes"/>
      <point x="487" y="-95"/>
      <point x="570" y="-81"/>
      <point x="606" y="-63" type="curve"/>
      <point x="606" y="-126" type="line"/>
      <point x="564" y="-142"/>
      <point x="484" y="-153"/>
      <point x="441" y="-153" type="curve" smooth="yes"/>
      <point x="198" y="-153"/>
      <point x="48" y="-27"/>
      <point x="48" y="262" type="curve" smooth="yes"/>
      <point x="48" y="580"/>
      <point x="245" y="697"/>
      <point x="476" y="697" type="curve" smooth="yes"/>
      <point x="707" y="697"/>
      <point x="879" y="588"/>
      <point x="879" y="320" type="curve" smooth="yes"/>
      <point x="879" y="91"/>
      <point x="766" y="22"/>
      <point x="676" y="22" type="curve" smooth="yes"/>
      <point x="598" y="22"/>
      <point x="574" y="57"/>
      <point x="563" y="103" type="curve"/>
      <point x="559" y="103" type="line"/>
      <point x="518" y="56"/>
      <point x="476" y="22"/>
      <point x="399" y="22" type="curve" smooth="yes"/>
      <point x="322" y="22"/>
      <point x="236" y="42"/>
      <point x="236" y="162" type="curve" smooth="yes"/>
      <point x="236" y="300"/>
      <point x="361" y="324"/>
      <point x="553" y="324" type="curve"/>
      <point x="553" y="360" type="line" smooth="yes"/>
      <point x="553" y="395"/>
      <point x="536" y="431"/>
      <point x="468" y="431" type="curve" smooth="yes"/>
      <point x="403" y="431"/>
      <point x="384" y="391"/>
      <point x="384" y="371" type="curve" smooth="yes"/>
      <point x="384" y="364" type="line"/>
      <point x="252" y="364" type="line"/>
      <point x="251" y="370"/>
      <point x="251" y="375"/>
      <point x="251" y="381" type="curve" smooth="yes"/>
      <point x="251" y="462"/>
      <point x="336" y="521"/>
      <point x="462" y="521" type="curve" smooth="yes"/>
      <point x="482" y="521" type="line" smooth="yes"/>
      <point x="621" y="521"/>
      <point x="688" y="461"/>
    </contour>
    <contour>
      <point x="553" y="225" type="curve" smooth="yes"/>
      <point x="553" y="247" type="line"/>
      <point x="439" y="247"/>
      <point x="377" y="227"/>
      <point x="377" y="172" type="curve" smooth="yes"/>
      <point x="377" y="128"/>
      <point x="404" y="114"/>
      <point x="446" y="114" type="curve" smooth="yes"/>
      <point x="501" y="114"/>
      <point x="553" y="157"/>
    </contour>
  </outline>
</glyph>
<glyph name="A" format="1">
  <advance width="686"/>
  <unicode hex="0041"/>
  <outline>
    <contour>
      <point x="199" y="135" type="line"/>
      <point x="151" y="0" type="line"/>
      <point x="2" y="0" type="line"/>
      <point x="251" y="686" type="line"/>
      <point x="435" y="686" type="line"/>
      <point x="684" y="0" type="line"/>
      <point x="522" y="0" type="line"/>
      <point x="472" y="135" type="line"/>
    </contour>
    <contour>
      <point x="334" y="521" type="line"/>
      <point x="241" y="252" type="line"/>
      <point x="431" y="252" type="line"/>
      <point x="401" y="342"/>
      <point x="370" y="432"/>
      <point x="339" y="521" type="curve"/>
    </contour>
  </outline>
</glyph>
<glyph name="B" format="1">
  <advance width="645"/>
  <unicode hex="0042"/>
  <outline>
    <contour>
      <point x="72" y="686" type="line"/>
      <point x="412" y="686" type="line" smooth="yes"/>
      <point x="511" y="686"/>
      <point x="592" y="611"/>
      <point x="592" y="518" type="curve" smooth="yes"/>
      <point x="592" y="417"/>
      <point x="534" y="374"/>
      <point x="475" y="358" type="curve"/>
      <point x="475" y="353" type="line"/>
      <point x="534" y="341"/>
      <point x="608" y="299"/>
      <point x="608" y="183" type="curve" smooth="yes"/>
      <point x="608" y="82"/>
      <point x="523" y="0"/>
      <point x="418" y="0" type="curve" smooth="yes"/>
      <point x="72" y="0" type="line"/>
    </contour>
    <contour>
      <point x="218" y="408" type="line"/>
      <point x="368" y="408" type="line" smooth="yes"/>
      <point x="407" y="408"/>
      <point x="444" y="441"/>
      <point x="444" y="489" type="curve" smooth="yes"/>
      <point x="444" y="551"/>
      <point x="400" y="568"/>
      <point x="368" y="568" type="curve" smooth="yes"/>
      <point x="218" y="568" type="line"/>
    </contour>
    <contour>
      <point x="218" y="124" type="line"/>
      <point x="379" y="124" type="line" smooth="yes"/>
      <point x="423" y="124"/>
      <point x="458" y="159"/>
      <point x="458" y="203" type="curve" smooth="yes"/>
      <point x="458" y="212" type="line" smooth="yes"/>
      <point x="458" y="256"/>
      <point x="423" y="291"/>
      <point x="379" y="291" type="curve" smooth="yes"/>
      <point x="218" y="291" type="line"/>
    </contour>
  </outline>
</glyph>
<glyph name="D" format="1">
  <advance width="686"/>
  <unicode hex="0044"/>
  <outline>
    <contour>
      <point x="72" y="686" type="line"/>
      <point x="332" y="686" type="line" smooth="yes"/>
      <point x="499" y="686"/>
      <point x="638" y="577"/>
      <point x="638" y="382" type="curve" smooth="yes"/>
      <point x="638" y="304" type="line" smooth="yes"/>
      <point x="638" y="109"/>
      <point x="499" y="0"/>
      <point x="332" y="0" type="curve" smooth="yes"/>
      <point x="72" y="0" type="line"/>
    </contour>
    <contour>
      <point x="227" y="123" type="line"/>
      <point x="332" y="123" type="line" smooth="yes"/>
      <point x="414" y="123"/>
      <point x="476" y="177"/>
      <point x="476" y="282" type="curve" smooth="yes"/>
      <point x="476" y="404" type="line" smooth="yes"/>
      <point x="476" y="509"/>
      <point x="414" y="563"/>
      <point x="332" y="563" type="curve" smooth="yes"/>
      <point x="227" y="563" type="line"/>
    </contour>
  </outline>
</glyph>
<glyph name="E" format="1">
  <advance width="598"/>
  <unicode hex="0045"/>
  <outline>
    <contour>
      <point x="72" y="686" type="line"/>
      <point x="555" y="686" type="line"/>
      <point x="538" y="563" type="line"/>
      <point x="224" y="563" type="line"/>
      <point x="224" y="413" type="line"/>
      <point x="517" y="413" type="line"/>
      <point x="517" y="290" type="line"/>
      <point x="224" y="290" type="line"/>
      <point x="224" y="123" type="line"/>
      <point x="541" y="123" type="line"/>
      <point x="558" y="0" type="line"/>
      <point x="72" y="0" type="line"/>
    </contour>
    <contour>
      <point x="299" y="0" type="move" name="Bottom"/>
    </contour>
  </outline>
</glyph>
<glyph name="F" format="1">
  <advance width="563"/>
  <unicode hex="0046"/>
  <outline>
    <contour>
      <point x="224" y="563" type="line"/>
      <point x="224" y="399" type="line"/>
      <point x="490" y="399" type="line"/>
      <point x="490" y="276" type="line"/>
      <point x="224" y="276" type="line"/>
      <point x="224" y="0" type="line"/>
      <point x="72" y="0" type="line"/>
      <point x="72" y="686" type="line"/>
      <point x="536" y="686" type="line"/>
      <point x="520" y="563" type="line"/>
    </contour>
  </outline>
</glyph>
<glyph name="M" format="1">
  <advance width="967"/>
  <unicode hex="004D"/>
  <outline>
    <contour>
      <point x="740" y="505" type="line"/>
      <point x="735" y="505" type="line"/>
      <point x="557" y="0" type="line"/>
      <point x="395" y="0" type="line"/>
      <point x="217" y="505" type="line"/>
      <point x="212" y="505" type="line"/>
      <point x="212" y="0" type="line"/>
      <point x="72" y="0" type="line"/>
      <point x="72" y="686" type="line"/>
      <point x="321" y="686" type="line"/>
      <point x="481" y="233" type="line"/>
      <point x="485" y="233" type="line"/>
      <point x="645" y="686" type="line"/>
      <point x="894" y="686" type="line"/>
      <point x="894" y="0" type="line"/>
      <point x="740" y="0" type="line"/>
    </contour>
  </outline>
</glyph>
<glyph name="P" format="1">
  <advance width="629"/>
  <unicode hex="0050"/>
  <outline>
    <contour>
      <point x="226" y="0" type="line"/>
      <point x="72" y="0" type="line"/>
      <point x="72" y="686" type="line"/>
      <point x="403" y="686" type="line" smooth="yes"/>
      <point x="517" y="686"/>
      <point x="610" y="599"/>
      <point x="610" y="481" type="curve" smooth="yes"/>
      <point x="610" y="475" type="line" smooth="yes"/>
      <point x="610" y="359"/>
      <point x="520" y="265"/>
      <point x="403" y="265" type="curve" smooth="yes"/>
      <point x="226" y="265" type="line"/>
    </contour>
    <contour>
      <point x="226" y="386" type="line"/>
      <point x="367" y="386" type="line" smooth="yes"/>
      <point x="419" y="386"/>
      <point x="455" y="427"/>
      <point x="455" y="471" type="curve" smooth="yes"/>
      <point x="455" y="477" type="line" smooth="yes"/>
      <point x="455" y="522"/>
      <point x="420" y="563"/>
      <point x="367" y="563" type="curve" smooth="yes"/>
      <point x="226" y="563" type="line"/>
    </contour>
  </outline>
</glyph>
<glyph name="Q" format="1">
  <advance width="708"/>
  <unicode hex="0051"/>
  <outline>
    <contour>
      <point x="660" y="392" type="curve" smooth="yes"/>
      <point x="660" y="294" type="line" smooth="yes"/>
      <point x="660" y="135"/>
      <point x="568" y="34"/>
      <point x="443" y="1" type="curve"/>
      <point x="453" y="-25"/>
      <point x="478" y="-54"/>
      <point x="533" y="-54" type="curve" smooth="yes"/>
      <point x="580" y="-54"/>
      <point x="655" y="-29"/>
      <point x="655" y="-28" type="curve" smooth="yes"/>
      <point x="655" y="-116" type="line"/>
      <point x="655" y="-116"/>
      <point x="590" y="-153"/>
      <point x="498" y="-153" type="curve" smooth="yes"/>
      <point x="361" y="-153"/>
      <point x="304" y="-71"/>
      <point x="290" y="-4" type="curve"/>
      <point x="153" y="20"/>
      <point x="48" y="124"/>
      <point x="48" y="294" type="curve" smooth="yes"/>
      <point x="48" y="392" type="line" smooth="yes"/>
      <point x="48" y="587"/>
      <point x="187" y="696"/>
      <point x="354" y="696" type="curve" smooth="yes"/>
      <point x="521" y="696"/>
      <point x="660" y="587"/>
    </contour>
    <contour>
      <point x="498" y="272" type="curve" smooth="yes"/>
      <point x="498" y="414" type="line" smooth="yes"/>
      <point x="498" y="519"/>
      <point x="436" y="573"/>
      <point x="354" y="573" type="curve" smooth="yes"/>
      <point x="272" y="573"/>
      <point x="210" y="519"/>
      <point x="210" y="414" type="curve" smooth="yes"/>
      <point x="210" y="272" type="line" smooth="yes"/>
      <point x="210" y="167"/>
      <point x="272" y="113"/>
      <point x="354" y="113" type="curve" smooth="yes"/>
      <point x="436" y="113"/>
      <point x="498" y="167"/>
    </contour>
  </outline>
</glyph>
<glyph name="T" format="1">
  <advance width="557"/>
  <unicode hex="0054"/>
  <outline>
    <contour>
      <point x="355" y="0" type="line"/>
      <point x="202" y="0" type="line"/>
      <point x="202" y="562" type="line"/>
      <point x="7" y="562" type="line"/>
      <point x="7" y="686" type="line"/>
      <point x="549" y="686" type="line"/>
      <point x="549" y="562" type="line"/>
      <point x="355" y="562" type="line"/>
    </contour>
    <contour>
      <point x="279" y="0" type="move" name="Bottom"/>
    </contour>
  </outline>
</glyph>
<glyph name="V" format="1">
  <advance width="643"/>
  <unicode hex="0056"/>
  <outline>
    <contour>
      <point x="487" y="686" type="line"/>
      <point x="635" y="686" type="line"/>
      <point x="409" y="0" type="line"/>
      <point x="232" y="0" type="line"/>
      <point x="7" y="686" type="line"/>
      <point x="169" y="686" type="line"/>
      <point x="325" y="196" type="line"/>
      <point x="330" y="196" type="line"/>
    </contour>
  </outline>
</glyph>
<glyph name="W" format="1">
  <advance width="972"/>
  <unicode hex="0057"/>
  <outline>
    <contour>
      <point x="370" y="0" type="line"/>
      <point x="199" y="0" type="line"/>
      <point x="7" y="686" type="line"/>
      <point x="168" y="686" type="line"/>
      <point x="208" y="536"/>
      <point x="249" y="386"/>
      <point x="289" y="237" type="curve"/>
      <point x="294" y="237" type="line"/>
      <point x="335" y="386"/>
      <point x="375" y="536"/>
      <point x="416" y="686" type="curve"/>
      <point x="571" y="686" type="line"/>
      <point x="611" y="536"/>
      <point x="652" y="386"/>
      <point x="692" y="237" type="curve"/>
      <point x="697" y="237" type="line"/>
      <point x="737" y="386"/>
      <point x="778" y="536"/>
      <point x="818" y="686" type="curve"/>
      <point x="964" y="686" type="line"/>
      <point x="771" y="0" type="line"/>
      <point x="602" y="0" type="line"/>
      <point x="490" y="412" type="line"/>
      <point x="484" y="412" type="line"/>
    </contour>
  </outline>
</glyph>
<glyph name="X" format="1">
  <advance width="658"/>
  <unicode hex="0058"/>
  <outline>
    <contour>
      <point x="0" y="0" type="line"/>
      <point x="232" y="360" type="line"/>
      <point x="22" y="686" type="line"/>
      <point x="203" y="686" type="line"/>
      <point x="333" y="476" type="line"/>
      <point x="337" y="476" type="line"/>
      <point x="400" y="571"/>
      <point x="454" y="657"/>
      <point x="470" y="686" type="curve"/>
      <point x="637" y="686" type="line"/>
      <point x="637" y="686"/>
      <point x="517" y="499"/>
      <point x="426" y="362" type="curve"/>
      <point x="504" y="242"/>
      <point x="658" y="0"/>
      <point x="658" y="0" type="curve"/>
      <point x="477" y="0" type="line"/>
      <point x="325" y="245" type="line"/>
      <point x="321" y="245" type="line"/>
      <point x="251" y="137"/>
      <point x="186" y="35"/>
      <point x="167" y="0" type="curve"/>
    </contour>
  </outline>
</glyph>
<glyph name="Y" format="1">
  <advance width="637"/>
  <unicode hex="0059"/>
  <outline>
    <contour>
      <point x="396" y="0" type="line"/>
      <point x="242" y="0" type="line"/>
      <point x="242" y="263" type="line"/>
      <point x="7" y="686" type="line"/>
      <point x="181" y="686" type="line"/>
      <point x="324" y="414" type="line"/>
      <point x="329" y="414" type="line"/>
      <point x="472" y="686" type="line"/>
      <point x="630" y="686" type="line"/>
      <point x="396" y="263" type="line"/>
    </contour>
  </outline>
</glyph>
<glyph name="backslash" format="1">
  <advance width="560"/>
  <unicode hex="005C"/>
  <outline>
    <contour>
      <point x="95" y="686" type="line"/>
      <point x="585" y="-171" type="line"/>
      <point x="478" y="-171" type="line"/>
      <point x="-11" y="686" type="line"/>
    </contour>
  </outline>
</glyph>
<glyph name="bracketright" format="1">
  <advance width="338"/>
  <unicode hex="005D"/>
  <outline>
    <contour>
      <point x="71" y="-92" type="line"/>
      <point x="159" y="-92" type="line"/>
      <point x="159" y="617" type="line"/>
      <point x="71" y="617" type="line"/>
      <point x="71" y="686" type="line"/>
      <point x="274" y="686" type="line"/>
      <point x="274" y="-161" type="line"/>
      <point x="71" y="-161" type="line"/>
    </contour>
  </outline>
</glyph>
<glyph name="asciicircum" format="1">
  <advance width="598"/>
  <unicode hex="005E"/>
  <outline>
    <contour>
      <point x="556" y="0" type="line"/>
      <point x="445" y="0" type="line"/>
      <point x="396" y="128"/>
      <point x="347" y="256"/>
      <point x="299" y="385" type="curve"/>
      <point x="250" y="256"/>
      <point x="202" y="128"/>
      <point x="153" y="0" type="curve"/>
      <point x="41" y="0" type="line"/>
      <point x="238" y="511" type="line"/>
      <point x="359" y="511" type="line"/>
    </contour>
  </outline>
</glyph>
<glyph name="underscore" format="1">
  <advance width="500"/>
  <unicode hex="005F"/>
  <outline>
    <contour>
      <point x="0" y="-65" type="line"/>
      <point x="500" y="-65" type="line"/>
      <point x="500" y="-126" type="line"/>
      <point x="0" y="-126" type="line"/>
    </contour>
  </outline>
</glyph>
<glyph name="grave" format="1">
  <advance width="333"/>
  <unicode hex="0060"/>
  <outline>
    <contour>
      <point x="51" y="717" type="line"/>
      <point x="52" y="720" type="line"/>
      <point x="180" y="720" type="line"/>
      <point x="273" y="575" type="line"/>
      <point x="171" y="575" type="line"/>
    </contour>
  </outline>
</glyph>
<glyph name="a" format="1">
  <advance width="598"/>
  <unicode hex="0061"/>
  <outline>
    <contour>
      <point x="379" y="311" type="curve"/>
      <point x="379" y="345" type="line" smooth="yes"/>
      <point x="379" y="387"/>
      <point x="356" y="421"/>
      <point x="288" y="421" type="curve" smooth="yes"/>
      <point x="229" y="421"/>
      <point x="199" y="385"/>
      <point x="199" y="362" type="curve" smooth="yes"/>
      <point x="199" y="354" type="line"/>
      <point x="58" y="354" type="line"/>
      <point x="57" y="360"/>
      <point x="56" y="365"/>
      <point x="56" y="372" type="curve" smooth="yes"/>
      <point x="56" y="458"/>
      <point x="147" y="521"/>
      <point x="281" y="521" type="curve" smooth="yes"/>
      <point x="302" y="521" type="line" smooth="yes"/>
      <point x="450" y="521"/>
      <point x="522" y="457"/>
      <point x="522" y="362" type="curve" smooth="yes"/>
      <point x="522" y="126" type="line" smooth="yes"/>
      <point x="522" y="100"/>
      <point x="537" y="90"/>
      <point x="551" y="90" type="curve" smooth="yes"/>
      <point x="566" y="90"/>
      <point x="586" y="98"/>
      <point x="592" y="101" type="curve"/>
      <point x="592" y="11" type="line"/>
      <point x="585" y="7"/>
      <point x="554" y="-10"/>
      <point x="504" y="-10" type="curve" smooth="yes"/>
      <point x="428" y="-10"/>
      <point x="392" y="24"/>
      <point x="386" y="76" type="curve"/>
      <point x="351" y="33"/>
      <point x="296" y="-10"/>
      <point x="214" y="-10" type="curve" smooth="yes"/>
      <point x="132" y="-10"/>
      <point x="40" y="11"/>
      <point x="40" y="139" type="curve" smooth="yes"/>
      <point x="40" y="286"/>
      <point x="174" y="311"/>
    </contour>
    <contour>
      <point x="379" y="202" type="curve" smooth="yes"/>
      <point x="379" y="229" type="line"/>
      <point x="256" y="229"/>
      <point x="191" y="208"/>
      <point x="191" y="150" type="curve" smooth="yes"/>
      <point x="191" y="105"/>
      <point x="217" y="90"/>
      <point x="266" y="90" type="curve" smooth="yes"/>
      <point x="316" y="90"/>
      <point x="379" y="134"/>
    </contour>
  </outline>
</glyph>
<glyph name="b" format="1">
  <advance width="595"/>
  <unicode hex="0062"/>
  <outline>
    <contour>
      <point x="212" y="720" type="line"/>
      <point x="212" y="452" type="line"/>
      <point x="237" y="485"/>
      <point x="285" y="521"/>
      <point x="355" y="521" type="curve" smooth="yes"/>
      <point x="464" y="521"/>
      <point x="552" y="435"/>
      <point x="552" y="264" type="curve" smooth="yes"/>
      <point x="552" y="253" type="line" smooth="yes"/>
      <point x="552" y="73"/>
      <point x="457" y="-10"/>
      <point x="340" y="-10" type="curve" smooth="yes"/>
      <point x="266" y="-10"/>
      <point x="208" y="21"/>
      <point x="170" y="78" type="curve"/>
      <point x="153" y="52"/>
      <point x="136" y="25"/>
      <point x="119" y="0" type="curve"/>
      <point x="66" y="0" type="line"/>
      <point x="66" y="720" type="line"/>
    </contour>
    <contour>
      <point x="404" y="211" type="curve" smooth="yes"/>
      <point x="404" y="294" type="line" smooth="yes"/>
      <point x="404" y="375"/>
      <point x="362" y="415"/>
      <point x="308" y="415" type="curve" smooth="yes"/>
      <point x="254" y="415"/>
      <point x="212" y="375"/>
      <point x="212" y="294" type="curve" smooth="yes"/>
      <point x="212" y="211" type="line" smooth="yes"/>
      <point x="212" y="130"/>
      <point x="254" y="90"/>
      <point x="308" y="90" type="curve" smooth="yes"/>
      <point x="362" y="90"/>
      <point x="404" y="130"/>
    </contour>
  </outline>
</glyph>
<glyph name="c" format="1">
  <advance width="567"/>
  <unicode hex="0063"/>
  <outline>
    <contour>
      <point x="191" y="296" type="curve" smooth="yes"/>
      <point x="191" y="207" type="line" smooth="yes"/>
      <point x="191" y="142"/>
      <point x="226" y="90"/>
      <point x="287" y="90" type="curve" smooth="yes"/>
      <point x="347" y="90"/>
      <point x="386" y="127"/>
      <point x="386" y="203" type="curve"/>
      <point x="524" y="203" type="line"/>
      <point x="524" y="55"/>
      <point x="418" y="-10"/>
      <point x="303" y="-10" type="curve" smooth="yes"/>
      <point x="287" y="-10" type="line" smooth="yes"/>
      <point x="139" y="-10"/>
      <point x="43" y="82"/>
      <point x="43" y="241" type="curve" smooth="yes"/>
      <point x="43" y="270" type="line" smooth="yes"/>
      <point x="43" y="429"/>
      <point x="146" y="521"/>
      <point x="287" y="521" type="curve" smooth="yes"/>
      <point x="303" y="521" type="line" smooth="yes"/>
      <point x="419" y="521"/>
      <point x="524" y="444"/>
      <point x="524" y="307" type="curve"/>
      <point x="379" y="307" type="line"/>
      <point x="379" y="373"/>
      <point x="350" y="421"/>
      <point x="288" y="421" type="curve" smooth="yes"/>
      <point x="226" y="421"/>
      <point x="191" y="365"/>
    </contour>
    <contour>
      <point x="284" y="0" type="move" name="Bottom"/>
    </contour>
  </outline>
</glyph>
<glyph name="f" format="1">
  <advance width="363"/>
  <unicode hex="0066"/>
  <outline>
    <contour>
      <point x="350" y="707" type="curve"/>
      <point x="350" y="618" type="line"/>
      <point x="334" y="623"/>
      <point x="303" y="629"/>
      <point x="288" y="629" type="curve" smooth="yes"/>
      <point x="264" y="629"/>
      <point x="231" y="623"/>
      <point x="231" y="569" type="curve" smooth="yes"/>
      <point x="231" y="511" type="line"/>
      <point x="350" y="511" type="line"/>
      <point x="350" y="411" type="line"/>
      <point x="231" y="411" type="line"/>
      <point x="231" y="0" type="line"/>
      <point x="85" y="0" type="line"/>
      <point x="85" y="411" type="line"/>
      <point x="25" y="411" type="line"/>
      <point x="25" y="511" type="line"/>
      <point x="85" y="511" type="line"/>
      <point x="85" y="578" type="line" smooth="yes"/>
      <point x="85" y="684"/>
      <point x="142" y="728"/>
      <point x="239" y="728" type="curve" smooth="yes"/>
      <point x="270" y="728"/>
      <point x="322" y="720"/>
    </contour>
  </outline>
</glyph>
<glyph name="h" format="1">
  <advance width="598"/>
  <unicode hex="0068"/>
  <outline>
    <contour>
      <point x="212" y="720" type="line"/>
      <point x="212" y="461" type="line"/>
      <point x="244" y="494"/>
      <point x="290" y="521"/>
      <point x="354" y="521" type="curve" smooth="yes"/>
      <point x="452" y="521"/>
      <point x="533" y="468"/>
      <point x="533" y="357" type="curve" smooth="yes"/>
      <point x="533" y="0" type="line"/>
      <point x="387" y="0" type="line"/>
      <point x="387" y="325" type="line" smooth="yes"/>
      <point x="387" y="377"/>
      <point x="354" y="415"/>
      <point x="307" y="415" type="curve" smooth="yes"/>
      <point x="256" y="415"/>
      <point x="212" y="371"/>
      <point x="212" y="314" type="curve" smooth="yes"/>
      <point x="212" y="0" type="line"/>
      <point x="66" y="0" type="line"/>
      <point x="66" y="720" type="line"/>
    </contour>
  </outline>
</glyph>
<glyph name="i" format="1">
  <advance width="278"/>
  <unicode hex="0069"/>
  <outline>
    <contour>
      <point x="213" y="720" type="line"/>
      <point x="213" y="605" type="line"/>
      <point x="65" y="605" type="line"/>
      <point x="65" y="720" type="line"/>
    </contour>
    <contour>
      <point x="66" y="511" type="line"/>
      <point x="212" y="511" type="line"/>
      <point x="212" y="0" type="line"/>
      <point x="66" y="0" type="line"/>
    </contour>
  </outline>
</glyph>
<glyph name="j" format="1">
  <advance width="280"/>
  <unicode hex="006A"/>
  <outline>
    <contour>
      <point x="214" y="720" type="line"/>
      <point x="214" y="605" type="line"/>
      <point x="66" y="605" type="line"/>
      <point x="66" y="720" type="line"/>
    </contour>
    <contour>
      <point x="213" y="510" type="line"/>
      <point x="213" y="-20" type="line" smooth="yes"/>
      <point x="213" y="-133"/>
      <point x="160" y="-186"/>
      <point x="59" y="-186" type="curve" smooth="yes"/>
      <point x="28" y="-186"/>
      <point x="-23" y="-179"/>
      <point x="-50" y="-166" type="curve"/>
      <point x="-50" y="-73" type="line"/>
      <point x="-35" y="-80"/>
      <point x="-4" y="-86"/>
      <point x="11" y="-86" type="curve" smooth="yes"/>
      <point x="39" y="-86"/>
      <point x="67" y="-77"/>
      <point x="67" y="-18" type="curve" smooth="yes"/>
      <point x="67" y="510" type="line"/>
    </contour>
  </outline>
</glyph>
<glyph name="k" format="1">
  <advance width="562"/>
  <unicode hex="006B"/>
  <outline>
    <contour>
      <point x="269" y="167" type="line"/>
      <point x="212" y="112" type="line"/>
      <point x="212" y="0" type="line"/>
      <point x="66" y="0" type="line"/>
      <point x="66" y="720" type="line"/>
      <point x="212" y="720" type="line"/>
      <point x="212" y="273" type="line"/>
      <point x="391" y="511" type="line"/>
      <point x="556" y="511" type="line"/>
      <point x="368" y="271" type="line"/>
      <point x="564" y="0" type="line"/>
      <point x="390" y="0" type="line"/>
    </contour>
    <contour>
      <point x="281" y="0" type="move" name="Bottom"/>
    </contour>
  </outline>
</glyph>
<glyph name="l" format="1">
  <advance width="279"/>
  <unicode hex="006C"/>
  <outline>
    <contour>
      <point x="66" y="720" type="line"/>
      <point x="212" y="720" type="line"/>
      <point x="212" y="0" type="line"/>
      <point x="66" y="0" type="line"/>
    </contour>
    <contour>
      <point x="140" y="0" type="move" name="Bottom"/>
    </contour>
  </outline>
</glyph>
<glyph name="m" format="1">
  <advance width="870"/>
  <unicode hex="006D"/>
  <outline>
    <contour>
      <point x="342" y="521" type="curve" smooth="yes"/>
      <point x="406" y="521"/>
      <point x="462" y="493"/>
      <point x="490" y="439" type="curve"/>
      <point x="527" y="497"/>
      <point x="579" y="521"/>
      <point x="639" y="521" type="curve" smooth="yes"/>
      <point x="731" y="521"/>
      <point x="806" y="464"/>
      <point x="806" y="357" type="curve" smooth="yes"/>
      <point x="806" y="0" type="line"/>
      <point x="660" y="0" type="line"/>
      <point x="660" y="328" type="line" smooth="yes"/>
      <point x="660" y="384"/>
      <point x="634" y="415"/>
      <point x="592" y="415" type="curve" smooth="yes"/>
      <point x="546" y="415"/>
      <point x="509" y="374"/>
      <point x="509" y="317" type="curve" smooth="yes"/>
      <point x="509" y="0" type="line"/>
      <point x="363" y="0" type="line"/>
      <point x="363" y="328" type="line" smooth="yes"/>
      <point x="363" y="384"/>
      <point x="336" y="415"/>
      <point x="294" y="415" type="curve" smooth="yes"/>
      <point x="248" y="415"/>
      <point x="212" y="374"/>
      <point x="212" y="317" type="curve" smooth="yes"/>
      <point x="212" y="0" type="line"/>
      <point x="66" y="0" type="line"/>
      <point x="66" y="511" type="line"/>
      <point x="176" y="511" type="line"/>
      <point x="182" y="486"/>
      <point x="187" y="461"/>
      <point x="192" y="436" type="curve"/>
      <point x="229" y="494"/>
      <point x="282" y="521"/>
    </contour>
  </outline>
</glyph>
<glyph name="p" format="1">
  <advance width="595"/>
  <unicode hex="0070"/>
  <outline>
    <contour>
      <point x="181" y="511" type="line"/>
      <point x="196" y="447" type="line"/>
      <point x="228" y="489"/>
      <point x="273" y="521"/>
      <point x="340" y="521" type="curve" smooth="yes"/>
      <point x="457" y="521"/>
      <point x="552" y="438"/>
      <point x="552" y="258" type="curve" smooth="yes"/>
      <point x="552" y="247" type="line" smooth="yes"/>
      <point x="552" y="76"/>
      <point x="464" y="-10"/>
      <point x="355" y="-10" type="curve" smooth="yes"/>
      <point x="285" y="-10"/>
      <point x="237" y="26"/>
      <point x="212" y="59" type="curve"/>
      <point x="212" y="-181" type="line"/>
      <point x="66" y="-181" type="line"/>
      <point x="66" y="511" type="line"/>
    </contour>
    <contour>
      <point x="404" y="217" type="curve" smooth="yes"/>
      <point x="404" y="300" type="line" smooth="yes"/>
      <point x="404" y="381"/>
      <point x="362" y="421"/>
      <point x="308" y="421" type="curve" smooth="yes"/>
      <point x="254" y="421"/>
      <point x="212" y="381"/>
      <point x="212" y="300" type="curve" smooth="yes"/>
      <point x="212" y="217" type="line" smooth="yes"/>
      <point x="212" y="136"/>
      <point x="254" y="96"/>
      <point x="308" y="96" type="curve" smooth="yes"/>
      <point x="362" y="96"/>
      <point x="404" y="136"/>
    </contour>
  </outline>
</glyph>
<glyph name="q" format="1">
  <advance width="595"/>
  <unicode hex="0071"/>
  <outline>
    <contour>
      <point x="382" y="-180" type="line"/>
      <point x="382" y="59" type="line"/>
      <point x="357" y="26"/>
      <point x="309" y="-10"/>
      <point x="239" y="-10" type="curve" smooth="yes"/>
      <point x="130" y="-10"/>
      <point x="42" y="76"/>
      <point x="42" y="247" type="curve" smooth="yes"/>
      <point x="42" y="258" type="line" smooth="yes"/>
      <point x="42" y="438"/>
      <point x="137" y="521"/>
      <point x="254" y="521" type="curve" smooth="yes"/>
      <point x="328" y="521"/>
      <point x="386" y="490"/>
      <point x="424" y="433" type="curve"/>
      <point x="441" y="459"/>
      <point x="458" y="486"/>
      <point x="475" y="511" type="curve"/>
      <point x="528" y="511" type="line"/>
      <point x="528" y="-180" type="line"/>
    </contour>
    <contour>
      <point x="190" y="300" type="curve" smooth="yes"/>
      <point x="190" y="217" type="line" smooth="yes"/>
      <point x="190" y="136"/>
      <point x="232" y="96"/>
      <point x="286" y="96" type="curve" smooth="yes"/>
      <point x="340" y="96"/>
      <point x="382" y="136"/>
      <point x="382" y="217" type="curve" smooth="yes"/>
      <point x="382" y="300" type="line" smooth="yes"/>
      <point x="382" y="381"/>
      <point x="340" y="421"/>
      <point x="286" y="421" type="curve" smooth="yes"/>
      <point x="232" y="421"/>
      <point x="190" y="381"/>
    </contour>
  </outline>
</glyph>
<glyph name="s" format="1">
  <advance width="539"/>
  <unicode hex="0073"/>
  <outline>
    <contour>
      <point x="158" y="163" type="line"/>
      <point x="158" y="156" type="line" smooth="yes"/>
      <point x="158" y="105"/>
      <point x="213" y="90"/>
      <point x="266" y="90" type="curve" smooth="yes"/>
      <point x="310" y="90"/>
      <point x="369" y="101"/>
      <point x="369" y="140" type="curve" smooth="yes"/>
      <point x="369" y="241"/>
      <point x="45" y="150"/>
      <point x="45" y="359" type="curve" smooth="yes"/>
      <point x="45" y="467"/>
      <point x="151" y="521"/>
      <point x="267" y="521" type="curve" smooth="yes"/>
      <point x="287" y="521" type="line" smooth="yes"/>
      <point x="391" y="521"/>
      <point x="493" y="467"/>
      <point x="493" y="383" type="curve" smooth="yes"/>
      <point x="493" y="372"/>
      <point x="491" y="362"/>
      <point x="491" y="361" type="curve" smooth="yes"/>
      <point x="363" y="361" type="line"/>
      <point x="363" y="403"/>
      <point x="328" y="421"/>
      <point x="271" y="421" type="curve" smooth="yes"/>
      <point x="216" y="421"/>
      <point x="178" y="404"/>
      <point x="178" y="376" type="curve" smooth="yes"/>
      <point x="178" y="283"/>
      <point x="504" y="374"/>
      <point x="504" y="162" type="curve" smooth="yes"/>
      <point x="504" y="32"/>
      <point x="395" y="-10"/>
      <point x="277" y="-10" type="curve" smooth="yes"/>
      <point x="244" y="-10" type="line" smooth="yes"/>
      <point x="119" y="-10"/>
      <point x="29" y="51"/>
      <point x="29" y="143" type="curve" smooth="yes"/>
      <point x="29" y="153"/>
      <point x="30" y="159"/>
      <point x="30" y="163" type="curve"/>
    </contour>
    <contour>
      <point x="270" y="0" type="move" name="Bottom"/>
    </contour>
  </outline>
</glyph>
<glyph name="v" format="1">
  <advance width="536"/>
  <unicode hex="0076"/>
  <outline>
    <contour>
      <point x="185" y="0" type="line"/>
      <point x="6" y="511" type="line"/>
      <point x="161" y="511" type="line"/>
      <point x="272" y="169" type="line"/>
      <point x="277" y="169" type="line"/>
      <point x="388" y="511" type="line"/>
      <point x="530" y="511" type="line"/>
      <point x="350" y="0" type="line"/>
    </contour>
  </outline>
</glyph>
<glyph name="w" format="1">
  <advance width="820"/>
  <unicode hex="0077"/>
  <outline>
    <contour>
      <point x="413" y="285" type="line"/>
      <point x="407" y="285" type="line"/>
      <point x="380" y="190"/>
      <point x="353" y="95"/>
      <point x="325" y="0" type="curve"/>
      <point x="162" y="0" type="line"/>
      <point x="6" y="511" type="line"/>
      <point x="157" y="511" type="line"/>
      <point x="187" y="405"/>
      <point x="216" y="300"/>
      <point x="245" y="195" type="curve"/>
      <point x="251" y="195" type="line"/>
      <point x="281" y="300"/>
      <point x="312" y="405"/>
      <point x="342" y="511" type="curve"/>
      <point x="488" y="511" type="line"/>
      <point x="518" y="405"/>
      <point x="547" y="300"/>
      <point x="577" y="195" type="curve"/>
      <point x="583" y="195" type="line"/>
      <point x="613" y="300"/>
      <point x="643" y="405"/>
      <point x="672" y="511" type="curve"/>
      <point x="814" y="511" type="line"/>
      <point x="658" y="0" type="line"/>
      <point x="497" y="0" type="line"/>
    </contour>
  </outline>
</glyph>
<glyph name="x" format="1">
  <advance width="553"/>
  <unicode hex="0078"/>
  <outline>
    <contour>
      <point x="185" y="264" type="line"/>
      <point x="20" y="511" type="line"/>
      <point x="190" y="511" type="line"/>
      <point x="221" y="462"/>
      <point x="250" y="413"/>
      <point x="281" y="365" type="curve"/>
      <point x="285" y="365" type="line"/>
      <point x="317" y="413"/>
      <point x="347" y="462"/>
      <point x="378" y="511" type="curve"/>
      <point x="536" y="511" type="line"/>
      <point x="369" y="265" type="line"/>
      <point x="546" y="0" type="line"/>
      <point x="377" y="0" type="line"/>
      <point x="273" y="165" type="line"/>
      <point x="269" y="165" type="line"/>
      <point x="234" y="110"/>
      <point x="200" y="55"/>
      <point x="164" y="0" type="curve"/>
      <point x="6" y="0" type="line"/>
    </contour>
  </outline>
</glyph>
<glyph name="y" format="1">
  <advance width="536"/>
  <unicode hex="0079"/>
  <outline>
    <contour>
      <point x="530" y="511" type="line"/>
      <point x="348" y="28" type="line" smooth="yes"/>
      <point x="303" y="-92"/>
      <point x="236" y="-187"/>
      <point x="127" y="-187" type="curve" smooth="yes"/>
      <point x="92" y="-187"/>
      <point x="63" y="-182"/>
      <point x="41" y="-172" type="curve"/>
      <point x="41" y="-69" type="line"/>
      <point x="55" y="-75"/>
      <point x="84" y="-83"/>
      <point x="108" y="-83" type="curve" smooth="yes"/>
      <point x="151" y="-83"/>
      <point x="181" y="-53"/>
      <point x="199" y="10" type="curve"/>
      <point x="6" y="511" type="line"/>
      <point x="161" y="511" type="line"/>
      <point x="274" y="190" type="line"/>
      <point x="280" y="190" type="line"/>
      <point x="386" y="511" type="line"/>
    </contour>
  </outline>
</glyph>
<glyph name="z" format="1">
  <advance width="486"/>
  <unicode hex="007A"/>
  <outline>
    <contour>
      <point x="36" y="50" type="line"/>
      <point x="254" y="411" type="line"/>
      <point x="49" y="411" type="line"/>
      <point x="49" y="511" type="line"/>
      <point x="447" y="511" type="line"/>
      <point x="447" y="462" type="line"/>
      <point x="228" y="100" type="line"/>
      <point x="455" y="100" type="line"/>
      <point x="455" y="0" type="line"/>
      <point x="36" y="0" type="line"/>
    </contour>
  </outline>
</glyph>
<glyph name="braceleft" format="1">
  <advance width="347"/>
  <unicode hex="007B"/>
  <outline>
    <contour>
      <point x="40" y="224" type="curve"/>
      <point x="40" y="303" type="line"/>
      <point x="75" y="303"/>
      <point x="117" y="319"/>
      <point x="117" y="360" type="curve" smooth="yes"/>
      <point x="117" y="560" type="line" smooth="yes"/>
      <point x="117" y="678"/>
      <point x="226" y="686"/>
      <point x="307" y="686" type="curve"/>
      <point x="307" y="627" type="line"/>
      <point x="260" y="627"/>
      <point x="231" y="618"/>
      <point x="228" y="545" type="curve" smooth="yes"/>
      <point x="221" y="371" type="line" smooth="yes"/>
      <point x="218" y="306"/>
      <point x="192" y="268"/>
      <point x="126" y="268" type="curve"/>
      <point x="126" y="259" type="line"/>
      <point x="192" y="259"/>
      <point x="218" y="221"/>
      <point x="221" y="156" type="curve" smooth="yes"/>
      <point x="228" y="-18" type="line" smooth="yes"/>
      <point x="231" y="-91"/>
      <point x="260" y="-100"/>
      <point x="307" y="-100" type="curve"/>
      <point x="307" y="-159" type="line"/>
      <point x="226" y="-159"/>
      <point x="117" y="-152"/>
      <point x="117" y="-33" type="curve" smooth="yes"/>
      <point x="117" y="168" type="line" smooth="yes"/>
      <point x="117" y="206"/>
      <point x="75" y="224"/>
    </contour>
  </outline>
</glyph>
<glyph name="braceright" format="1">
  <advance width="347"/>
  <unicode hex="007D"/>
  <outline>
    <contour>
      <point x="306" y="303" type="curve"/>
      <point x="306" y="224" type="line"/>
      <point x="271" y="224"/>
      <point x="229" y="206"/>
      <point x="229" y="168" type="curve" smooth="yes"/>
      <point x="229" y="-33" type="line" smooth="yes"/>
      <point x="229" y="-152"/>
      <point x="120" y="-159"/>
      <point x="39" y="-159" type="curve"/>
      <point x="39" y="-100" type="line"/>
      <point x="86" y="-100"/>
      <point x="115" y="-91"/>
      <point x="118" y="-18" type="curve" smooth="yes"/>
      <point x="125" y="156" type="line" smooth="yes"/>
      <point x="128" y="221"/>
      <point x="154" y="259"/>
      <point x="220" y="259" type="curve"/>
      <point x="220" y="268" type="line"/>
      <point x="154" y="268"/>
      <point x="128" y="306"/>
      <point x="125" y="371" type="curve" smooth="yes"/>
      <point x="118" y="545" type="line" smooth="yes"/>
      <point x="115" y="618"/>
      <point x="86" y="627"/>
      <point x="39" y="627" type="curve"/>
      <point x="39" y="686" type="line"/>
      <point x="120" y="686"/>
      <point x="229" y="678"/>
      <point x="229" y="560" type="curve" smooth="yes"/>
      <point x="229" y="360" type="line" smooth="yes"/>
      <point x="229" y="319"/>
      <point x="271" y="303"/>
    </contour>
  </outline>
</glyph>
<glyph name="asciitilde" format="1">
  <advance width="714"/>
  <unicode hex="007E"/>
  <outline>
    <contour>
      <point x="639" y="396" type="curve"/>
      <point x="639" y="290" type="line"/>
      <point x="639" y="290"/>
      <point x="571" y="212"/>
      <point x="476" y="212" type="curve" smooth="yes"/>
      <point x="391" y="212"/>
      <point x="326" y="278"/>
      <point x="238" y="278" type="curve" smooth="yes"/>
      <point x="143" y="278"/>
      <point x="75" y="200"/>
      <point x="75" y="200" type="curve"/>
      <point x="75" y="306" type="line"/>
      <point x="75" y="306"/>
      <point x="143" y="384"/>
      <point x="238" y="384" type="curve" smooth="yes"/>
      <point x="323" y="384"/>
      <point x="388" y="318"/>
      <point x="476" y="318" type="curve" smooth="yes"/>
      <point x="571" y="318"/>
      <point x="639" y="396"/>
    </contour>
  </outline>
</glyph>
<glyph name="exclamdown" format="1">
  <advance width="290"/>
  <unicode hex="00A1"/>
  <outline>
    <contour>
      <point x="72" y="364" type="line"/>
      <point x="72" y="511" type="line"/>
      <point x="218" y="511" type="line"/>
      <point x="218" y="364" type="line"/>
    </contour>
    <contour>
      <point x="57" y="-175" type="line"/>
      <point x="98" y="309" type="line"/>
      <point x="195" y="309" type="line"/>
      <point x="234" y="-175" type="line"/>
    </contour>
  </outline>
</glyph>
<glyph name="cent" format="1">
  <advance width="571"/>
  <unicode hex="00A2"/>
  <outline>
    <contour>
      <point x="193" y="382" type="curve" smooth="yes"/>
      <point x="193" y="293" type="line" smooth="yes"/>
      <point x="193" y="228"/>
      <point x="228" y="176"/>
      <point x="289" y="176" type="curve" smooth="yes"/>
      <point x="349" y="176"/>
      <point x="388" y="213"/>
      <point x="388" y="289" type="curve"/>
      <point x="526" y="289" type="line"/>
      <point x="526" y="152"/>
      <point x="435" y="86"/>
      <point x="331" y="77" type="curve"/>
      <point x="343" y="-8" type="line"/>
      <point x="242" y="-8" type="line"/>
      <point x="254" y="77" type="line"/>
      <point x="126" y="91"/>
      <point x="45" y="181"/>
      <point x="45" y="327" type="curve" smooth="yes"/>
      <point x="45" y="356" type="line" smooth="yes"/>
      <point x="45" y="501"/>
      <point x="131" y="591"/>
      <point x="254" y="605" type="curve"/>
      <point x="242" y="693" type="line"/>
      <point x="343" y="693" type="line"/>
      <point x="330" y="605" type="line"/>
      <point x="435" y="595"/>
      <point x="526" y="520"/>
      <point x="526" y="393" type="curve"/>
      <point x="381" y="393" type="line"/>
      <point x="381" y="459"/>
      <point x="352" y="507"/>
      <point x="290" y="507" type="curve" smooth="yes"/>
      <point x="228" y="507"/>
      <point x="193" y="451"/>
    </contour>
  </outline>
</glyph>
<glyph name="sterling" format="1">
  <advance width="654"/>
  <unicode hex="00A3"/>
  <outline>
    <contour>
      <point x="116" y="397" type="line"/>
      <point x="116" y="476" type="line" smooth="yes"/>
      <point x="116" y="613"/>
      <point x="209" y="698"/>
      <point x="348" y="698" type="curve" smooth="yes"/>
      <point x="477" y="698"/>
      <point x="578" y="621"/>
      <point x="578" y="496" type="curve" smooth="yes"/>
      <point x="578" y="478" type="line"/>
      <point x="429" y="478" type="line"/>
      <point x="429" y="499" type="line" smooth="yes"/>
      <point x="429" y="541"/>
      <point x="393" y="579"/>
      <point x="348" y="579" type="curve" smooth="yes"/>
      <point x="299" y="579"/>
      <point x="264" y="546"/>
      <point x="264" y="499" type="curve" smooth="yes"/>
      <point x="264" y="397" type="line"/>
      <point x="406" y="397" type="line"/>
      <point x="406" y="279" type="line"/>
      <point x="264" y="279" type="line"/>
      <point x="245" y="118" type="line"/>
      <point x="538" y="118" type="line"/>
      <point x="538" y="0" type="line"/>
      <point x="39" y="0" type="line"/>
      <point x="39" y="118" type="line"/>
      <point x="116" y="118" type="line"/>
      <point x="116" y="279" type="line"/>
      <point x="6" y="279" type="line"/>
      <point x="6" y="397" type="line"/>
    </contour>
  </outline>
</glyph>
<glyph name="currency" format="1">
  <advance width="663"/>
  <unicode hex="00A4"/>
  <outline>
    <contour>
      <point x="82" y="338" type="curve" smooth="yes"/>
      <point x="82" y="393"/>
      <point x="99" y="447"/>
      <point x="130" y="483" type="curve"/>
      <point x="76" y="538" type="line"/>
      <point x="131" y="593" type="line"/>
      <point x="185" y="539" type="line"/>
      <point x="221" y="567"/>
      <point x="276" y="586"/>
      <point x="330" y="586" type="curve" smooth="yes"/>
      <point x="387" y="586"/>
      <point x="440" y="567"/>
      <point x="474" y="539" type="curve"/>
      <point x="530" y="595" type="line"/>
      <point x="549" y="575"/>
      <point x="568" y="556"/>
      <point x="588" y="537" type="curve"/>
      <point x="533" y="482" type="line"/>
      <point x="561" y="447"/>
      <point x="578" y="393"/>
      <point x="578" y="338" type="curve" smooth="yes"/>
      <point x="578" y="283"/>
      <point x="561" y="230"/>
      <point x="531" y="192" type="curve"/>
      <point x="549" y="173"/>
      <point x="568" y="155"/>
      <point x="586" y="137" type="curve"/>
      <point x="532" y="83" type="line"/>
      <point x="514" y="101"/>
      <point x="494" y="120"/>
      <point x="476" y="139" type="curve"/>
      <point x="440" y="108"/>
      <point x="387" y="90"/>
      <point x="330" y="90" type="curve" smooth="yes"/>
      <point x="274" y="90"/>
      <point x="222" y="107"/>
      <point x="185" y="137" type="curve"/>
      <point x="166" y="119"/>
      <point x="148" y="101"/>
      <point x="130" y="82" type="curve"/>
      <point x="75" y="137" type="line"/>
      <point x="131" y="192" type="line"/>
      <point x="100" y="230"/>
      <point x="82" y="281"/>
    </contour>
    <contour>
      <point x="177" y="338" type="curve" smooth="yes"/>
      <point x="177" y="250"/>
      <point x="244" y="179"/>
      <point x="330" y="179" type="curve" smooth="yes"/>
      <point x="418" y="179"/>
      <point x="484" y="251"/>
      <point x="484" y="338" type="curve" smooth="yes"/>
      <point x="484" y="424"/>
      <point x="418" y="496"/>
      <point x="330" y="496" type="curve" smooth="yes"/>
      <point x="244" y="496"/>
      <point x="177" y="425"/>
    </contour>
  </outline>
</glyph>
<glyph name="yen" format="1">
  <advance width="642"/>
  <unicode hex="00A5"/>
  <outline>
    <contour>
      <point x="142" y="448" type="line"/>
      <point x="10" y="686" type="line"/>
      <point x="184" y="686" type="line"/>
      <point x="231" y="595"/>
      <point x="279" y="504"/>
      <point x="327" y="414" type="curve"/>
      <point x="331" y="414" type="line"/>
      <point x="379" y="504"/>
      <point x="427" y="595"/>
      <point x="474" y="686" type="curve"/>
      <point x="632" y="686" type="line"/>
      <point x="500" y="448" type="line"/>
      <point x="598" y="448" type="line"/>
      <point x="598" y="370" type="line"/>
      <point x="457" y="370" type="line"/>
      <point x="424" y="310" type="line"/>
      <point x="598" y="310" type="line"/>
      <point x="598" y="231" type="line"/>
      <point x="398" y="231" type="line"/>
      <point x="398" y="0" type="line"/>
      <point x="245" y="0" type="line"/>
      <point x="245" y="231" type="line"/>
      <point x="49" y="231" type="line"/>
      <point x="49" y="310" type="line"/>
      <point x="219" y="310" type="line"/>
      <point x="208" y="330"/>
      <point x="197" y="350"/>
      <point x="185" y="370" type="curve"/>
      <point x="49" y="370" type="line"/>
      <point x="49" y="448" type="line"/>
    </contour>
  </outline>
</glyph>
<glyph name="brokenbar" format="1">
  <advance width="277"/>
  <unicode hex="00A6"/>
  <outline>
    <contour>
      <point x="198" y="686" type="line"/>
      <point x="198" y="415" type="line"/>
      <point x="78" y="415" type="line"/>
      <point x="78" y="686" type="line"/>
    </contour>
    <contour>
      <point x="198" y="270" type="line"/>
      <point x="198" y="0" type="line"/>
      <point x="78" y="0" type="line"/>
      <point x="78" y="270" type="line"/>
    </contour>
  </outline>
</glyph>
<glyph name="dieresis" format="1">
  <advance width="440"/>
  <unicode hex="00A8"/>
  <outline>
    <contour>
      <point x="180" y="740" type="line"/>
      <point x="180" y="618" type="line"/>
      <point x="59" y="618" type="line"/>
      <point x="59" y="740" type="line"/>
    </contour>
    <contour>
      <point x="384" y="740" type="line"/>
      <point x="384" y="618" type="line"/>
      <point x="263" y="618" type="line"/>
      <point x="263" y="740" type="line"/>
    </contour>
  </outline>
</glyph>
<glyph name="guillemetleft" format="1">
  <advance width="459"/>
  <unicode hex="00AB"/>
  <outline>
    <contour>
      <point x="47" y="337" type="line"/>
      <point x="168" y="511" type="line"/>
      <point x="230" y="511" type="line"/>
      <point x="141" y="337" type="line"/>
      <point x="230" y="163" type="line"/>
      <point x="168" y="163" type="line"/>
    </contour>
    <contour>
      <point x="228" y="337" type="line"/>
      <point x="350" y="511" type="line"/>
      <point x="412" y="511" type="line"/>
      <point x="323" y="337" type="line"/>
      <point x="412" y="163" type="line"/>
      <point x="350" y="163" type="line"/>
    </contour>
  </outline>
</glyph>
<glyph name="logicalnot" format="1">
  <advance width="600"/>
  <unicode hex="00AC"/>
  <outline>
    <contour>
      <point x="447" y="166" type="line"/>
      <point x="447" y="347" type="line"/>
      <point x="35" y="347" type="line"/>
      <point x="35" y="468" type="line"/>
      <point x="564" y="468" type="line"/>
      <point x="564" y="166" type="line"/>
    </contour>
  </outline>
</glyph>
<glyph name="plusminus" format="1">
  <advance width="600"/>
  <unicode hex="00B1"/>
  <outline>
    <contour>
      <point x="556" y="382" type="line"/>
      <point x="556" y="276" type="line"/>
      <point x="352" y="276" type="line"/>
      <point x="352" y="147" type="line"/>
      <point x="247" y="147" type="line"/>
      <point x="247" y="276" type="line"/>
      <point x="44" y="276" type="line"/>
      <point x="44" y="382" type="line"/>
      <point x="247" y="382" type="line"/>
      <point x="247" y="511" type="line"/>
      <point x="352" y="511" type="line"/>
      <point x="352" y="382" type="line"/>
    </contour>
    <contour>
      <point x="46" y="105" type="line"/>
      <point x="553" y="105" type="line"/>
      <point x="553" y="0" type="line"/>
      <point x="46" y="0" type="line"/>
    </contour>
  </outline>
</glyph>
<glyph name="twosuperior" format="1">
  <advance width="505"/>
  <unicode hex="00B2"/>
  <outline>
    <contour>
      <point x="42" y="419" type="line"/>
      <point x="42" y="435" type="line" smooth="yes"/>
      <point x="42" y="483"/>
      <point x="65" y="511"/>
      <point x="89" y="531" type="curve" smooth="yes"/>
      <point x="121" y="563"/>
      <point x="161" y="590"/>
      <point x="197" y="618" type="curve" smooth="yes"/>
      <point x="224" y="639"/>
      <point x="233" y="662"/>
      <point x="233" y="685" type="curve" smooth="yes"/>
      <point x="233" y="715"/>
      <point x="208" y="735"/>
      <point x="175" y="735" type="curve" smooth="yes"/>
      <point x="127" y="735"/>
      <point x="117" y="694"/>
      <point x="117" y="680" type="curve" smooth="yes"/>
      <point x="117" y="666" type="line"/>
      <point x="43" y="666" type="line"/>
      <point x="42" y="670"/>
      <point x="42" y="673"/>
      <point x="42" y="676" type="curve" smooth="yes"/>
      <point x="42" y="719"/>
      <point x="71" y="802"/>
      <point x="178" y="802" type="curve" smooth="yes"/>
      <point x="186" y="802" type="line" smooth="yes"/>
      <point x="272" y="802"/>
      <point x="314" y="745"/>
      <point x="314" y="687" type="curve" smooth="yes"/>
      <point x="314" y="618"/>
      <point x="269" y="586"/>
      <point x="175" y="515" type="curve" smooth="yes"/>
      <point x="169" y="511"/>
      <point x="150" y="497"/>
      <point x="144" y="489" type="curve"/>
      <point x="315" y="489" type="line"/>
      <point x="315" y="419" type="line"/>
    </contour>
  </outline>
</glyph>
<glyph name="threesuperior" format="1">
  <advance width="506"/>
  <unicode hex="00B3"/>
  <outline>
    <contour>
      <point x="36" y="530" type="line"/>
      <point x="111" y="530" type="line"/>
      <point x="111" y="495"/>
      <point x="133" y="477"/>
      <point x="176" y="477" type="curve" smooth="yes"/>
      <point x="219" y="477"/>
      <point x="243" y="495"/>
      <point x="243" y="530" type="curve" smooth="yes"/>
      <point x="243" y="575"/>
      <point x="207" y="580"/>
      <point x="172" y="580" type="curve" smooth="yes"/>
      <point x="133" y="580" type="line"/>
      <point x="133" y="639" type="line"/>
      <point x="178" y="639" type="line" smooth="yes"/>
      <point x="209" y="639"/>
      <point x="234" y="655"/>
      <point x="234" y="688" type="curve" smooth="yes"/>
      <point x="234" y="720"/>
      <point x="207" y="735"/>
      <point x="176" y="735" type="curve" smooth="yes"/>
      <point x="146" y="735"/>
      <point x="120" y="718"/>
      <point x="120" y="686" type="curve"/>
      <point x="46" y="686" type="line"/>
      <point x="46" y="697" type="line" smooth="yes"/>
      <point x="46" y="757"/>
      <point x="100" y="800"/>
      <point x="177" y="800" type="curve" smooth="yes"/>
      <point x="188" y="800" type="line" smooth="yes"/>
      <point x="262" y="800"/>
      <point x="315" y="757"/>
      <point x="315" y="698" type="curve" smooth="yes"/>
      <point x="315" y="657"/>
      <point x="292" y="631"/>
      <point x="259" y="616" type="curve"/>
      <point x="259" y="611" type="line"/>
      <point x="299" y="598"/>
      <point x="325" y="568"/>
      <point x="325" y="520" type="curve" smooth="yes"/>
      <point x="325" y="458"/>
      <point x="272" y="412"/>
      <point x="188" y="412" type="curve" smooth="yes"/>
      <point x="173" y="412" type="line" smooth="yes"/>
      <point x="85" y="412"/>
      <point x="36" y="459"/>
      <point x="36" y="523" type="curve" smooth="yes"/>
    </contour>
  </outline>
</glyph>
<glyph name="acute" format="1">
  <advance width="333"/>
  <unicode hex="00B4"/>
  <outline>
    <contour>
      <point x="143" y="720" type="line"/>
      <point x="272" y="720" type="line"/>
      <point x="273" y="717" type="line"/>
      <point x="152" y="575" type="line"/>
      <point x="51" y="575" type="line"/>
    </contour>
  </outline>
</glyph>
<glyph name="paragraph" format="1">
  <advance width="526"/>
  <unicode hex="00B6"/>
  <outline>
    <contour>
      <point x="225" y="-165" type="line"/>
      <point x="225" y="251" type="line"/>
      <point x="113" y="260"/>
      <point x="26" y="353"/>
      <point x="26" y="468" type="curve" smooth="yes"/>
      <point x="26" y="588"/>
      <point x="122" y="686"/>
      <point x="243" y="686" type="curve" smooth="yes"/>
      <point x="516" y="686" type="line"/>
      <point x="516" y="616" type="line"/>
      <point x="450" y="616" type="line"/>
      <point x="450" y="-165" type="line"/>
      <point x="375" y="-165" type="line"/>
      <point x="375" y="616" type="line"/>
      <point x="301" y="616" type="line"/>
      <point x="301" y="-165" type="line"/>
    </contour>
  </outline>
</glyph>
<glyph name="ordmasculine" format="1">
  <advance width="367"/>
  <unicode hex="00BA"/>
  <outline>
    <contour>
      <point x="342" y="544" type="curve" smooth="yes"/>
      <point x="342" y="526" type="line" smooth="yes"/>
      <point x="342" y="429"/>
      <point x="276" y="374"/>
      <point x="191" y="374" type="curve" smooth="yes"/>
      <point x="180" y="374" type="line" smooth="yes"/>
      <point x="95" y="374"/>
      <point x="29" y="429"/>
      <point x="29" y="526" type="curve" smooth="yes"/>
      <point x="29" y="544" type="line" smooth="yes"/>
      <point x="29" y="640"/>
      <point x="95" y="696"/>
      <point x="180" y="696" type="curve" smooth="yes"/>
      <point x="191" y="696" type="line" smooth="yes"/>
      <point x="276" y="696"/>
      <point x="342" y="640"/>
    </contour>
    <contour>
      <point x="252" y="510" type="curve" smooth="yes"/>
      <point x="252" y="560" type="line" smooth="yes"/>
      <point x="252" y="610"/>
      <point x="223" y="635"/>
      <point x="185" y="635" type="curve" smooth="yes"/>
      <point x="148" y="635"/>
      <point x="119" y="610"/>
      <point x="119" y="560" type="curve" smooth="yes"/>
      <point x="119" y="510" type="line" smooth="yes"/>
      <point x="119" y="460"/>
      <point x="148" y="434"/>
      <point x="185" y="434" type="curve" smooth="yes"/>
      <point x="223" y="434"/>
      <point x="252" y="460"/>
    </contour>
  </outline>
</glyph>
<glyph name="guillemetright" format="1">
  <advance width="459"/>
  <unicode hex="00BB"/>
  <outline>
    <contour>
      <point x="136" y="337" type="line"/>
      <point x="47" y="511" type="line"/>
      <point x="109" y="511" type="line"/>
      <point x="231" y="337" type="line"/>
      <point x="109" y="163" type="line"/>
      <point x="47" y="163" type="line"/>
    </contour>
    <contour>
      <point x="318" y="337" type="line"/>
      <point x="229" y="511" type="line"/>
      <point x="291" y="511" type="line"/>
      <point x="412" y="337" type="line"/>
      <point x="291" y="163" type="line"/>
      <point x="229" y="163" type="line"/>
    </contour>
  </outline>
</glyph>
<glyph name="onequarter" format="1">
  <advance width="745"/>
  <unicode hex="00BC"/>
  <outline>
    <contour>
      <point x="147" y="0" type="line"/>
      <point x="567" y="686" type="line"/>
      <point x="636" y="686" type="line"/>
      <point x="219" y="0" type="line"/>
    </contour>
    <contour>
      <point x="28" y="372" type="line"/>
      <point x="119" y="372" type="line"/>
      <point x="119" y="588" type="line"/>
      <point x="27" y="588" type="line"/>
      <point x="27" y="637" type="line"/>
      <point x="70" y="640"/>
      <point x="126" y="661"/>
      <point x="171" y="685" type="curve"/>
      <point x="200" y="685" type="line"/>
      <point x="200" y="372" type="line"/>
      <point x="290" y="372" type="line"/>
      <point x="290" y="306" type="line"/>
      <point x="28" y="306" type="line"/>
    </contour>
    <contour>
      <point x="586" y="153" type="line"/>
      <point x="586" y="235" type="line"/>
      <point x="605" y="264"/>
      <point x="622" y="307"/>
      <point x="629" y="336" type="curve"/>
      <point x="664" y="336" type="line"/>
      <point x="664" y="153" type="line"/>
      <point x="715" y="153" type="line"/>
      <point x="715" y="88" type="line"/>
      <point x="664" y="88" type="line"/>
      <point x="664" y="0" type="line"/>
      <point x="586" y="0" type="line"/>
      <point x="586" y="88" type="line"/>
      <point x="420" y="88" type="line"/>
      <point x="420" y="153" type="line"/>
      <point x="458" y="213"/>
      <point x="502" y="313"/>
      <point x="522" y="382" type="curve"/>
      <point x="599" y="382" type="line"/>
      <point x="581" y="303"/>
      <point x="514" y="190"/>
      <point x="482" y="153" type="curve"/>
    </contour>
  </outline>
</glyph>
<glyph name="onehalf" format="1">
  <advance width="765"/>
  <unicode hex="00BD"/>
  <outline>
    <contour>
      <point x="139" y="0" type="line"/>
      <point x="559" y="686" type="line"/>
      <point x="628" y="686" type="line"/>
      <point x="211" y="0" type="line"/>
    </contour>
    <contour>
      <point x="28" y="372" type="line"/>
      <point x="119" y="372" type="line"/>
      <point x="119" y="588" type="line"/>
      <point x="27" y="588" type="line"/>
      <point x="27" y="637" type="line"/>
      <point x="70" y="640"/>
      <point x="126" y="661"/>
      <point x="171" y="685" type="curve"/>
      <point x="200" y="685" type="line"/>
      <point x="200" y="372" type="line"/>
      <point x="290" y="372" type="line"/>
      <point x="290" y="306" type="line"/>
      <point x="28" y="306" type="line"/>
    </contour>
    <contour>
      <point x="449" y="0" type="line"/>
      <point x="449" y="16" type="line" smooth="yes"/>
      <point x="449" y="64"/>
      <point x="472" y="92"/>
      <point x="496" y="112" type="curve" smooth="yes"/>
      <point x="528" y="144"/>
      <point x="568" y="171"/>
      <point x="604" y="199" type="curve" smooth="yes"/>
      <point x="631" y="220"/>
      <point x="640" y="243"/>
      <point x="640" y="266" type="curve" smooth="yes"/>
      <point x="640" y="296"/>
      <point x="615" y="316"/>
      <point x="582" y="316" type="curve" smooth="yes"/>
      <point x="534" y="316"/>
      <point x="524" y="275"/>
      <point x="524" y="261" type="curve" smooth="yes"/>
      <point x="524" y="247" type="line"/>
      <point x="450" y="247" type="line"/>
      <point x="449" y="251"/>
      <point x="449" y="254"/>
      <point x="449" y="257" type="curve" smooth="yes"/>
      <point x="449" y="300"/>
      <point x="478" y="383"/>
      <point x="585" y="383" type="curve" smooth="yes"/>
      <point x="593" y="383" type="line" smooth="yes"/>
      <point x="679" y="383"/>
      <point x="721" y="326"/>
      <point x="721" y="268" type="curve" smooth="yes"/>
      <point x="721" y="199"/>
      <point x="676" y="167"/>
      <point x="582" y="96" type="curve" smooth="yes"/>
      <point x="576" y="92"/>
      <point x="557" y="78"/>
      <point x="551" y="70" type="curve"/>
      <point x="722" y="70" type="line"/>
      <point x="722" y="0" type="line"/>
    </contour>
  </outline>
</glyph>
<glyph name="threequarters" format="1">
  <advance width="755"/>
  <unicode hex="00BE"/>
  <outline>
    <contour>
      <point x="37" y="419" type="line"/>
      <point x="112" y="419" type="line"/>
      <point x="112" y="384"/>
      <point x="134" y="366"/>
      <point x="177" y="366" type="curve" smooth="yes"/>
      <point x="220" y="366"/>
      <point x="244" y="384"/>
      <point x="244" y="419" type="curve" smooth="yes"/>
      <point x="244" y="464"/>
      <point x="208" y="469"/>
      <point x="173" y="469" type="curve" smooth="yes"/>
      <point x="134" y="469" type="line"/>
      <point x="134" y="528" type="line"/>
      <point x="179" y="528" type="line" smooth="yes"/>
      <point x="210" y="528"/>
      <point x="235" y="544"/>
      <point x="235" y="577" type="curve" smooth="yes"/>
      <point x="235" y="609"/>
      <point x="208" y="624"/>
      <point x="177" y="624" type="curve" smooth="yes"/>
      <point x="147" y="624"/>
      <point x="121" y="607"/>
      <point x="121" y="575" type="curve"/>
      <point x="47" y="575" type="line"/>
      <point x="47" y="586" type="line" smooth="yes"/>
      <point x="47" y="646"/>
      <point x="101" y="689"/>
      <point x="178" y="689" type="curve" smooth="yes"/>
      <point x="189" y="689" type="line" smooth="yes"/>
      <point x="263" y="689"/>
      <point x="316" y="646"/>
      <point x="316" y="587" type="curve" smooth="yes"/>
      <point x="316" y="546"/>
      <point x="293" y="520"/>
      <point x="260" y="505" type="curve"/>
      <point x="260" y="500" type="line"/>
      <point x="300" y="487"/>
      <point x="326" y="457"/>
      <point x="326" y="409" type="curve" smooth="yes"/>
      <point x="326" y="347"/>
      <point x="273" y="301"/>
      <point x="189" y="301" type="curve" smooth="yes"/>
      <point x="174" y="301" type="line" smooth="yes"/>
      <point x="86" y="301"/>
      <point x="37" y="348"/>
      <point x="37" y="412" type="curve" smooth="yes"/>
    </contour>
    <contour>
      <point x="150" y="0" type="line"/>
      <point x="570" y="686" type="line"/>
      <point x="639" y="686" type="line"/>
      <point x="222" y="0" type="line"/>
    </contour>
    <contour>
      <point x="586" y="153" type="line"/>
      <point x="586" y="235" type="line"/>
      <point x="605" y="264"/>
      <point x="622" y="307"/>
      <point x="629" y="336" type="curve"/>
      <point x="664" y="336" type="line"/>
      <point x="664" y="153" type="line"/>
      <point x="715" y="153" type="line"/>
      <point x="715" y="88" type="line"/>
      <point x="664" y="88" type="line"/>
      <point x="664" y="0" type="line"/>
      <point x="586" y="0" type="line"/>
      <point x="586" y="88" type="line"/>
      <point x="420" y="88" type="line"/>
      <point x="420" y="153" type="line"/>
      <point x="458" y="213"/>
      <point x="502" y="313"/>
      <point x="522" y="382" type="curve"/>
      <point x="599" y="382" type="line"/>
      <point x="581" y="303"/>
      <point x="514" y="190"/>
      <point x="482" y="153" type="curve"/>
    </contour>
  </outline>
</glyph>
<glyph name="questiondown" format="1">
  <advance width="572"/>
  <unicode hex="00BF"/>
  <outline>
    <contour>
      <point x="208" y="364" type="line"/>
      <point x="208" y="511" type="line"/>
      <point x="355" y="511" type="line"/>
      <point x="355" y="364" type="line"/>
    </contour>
    <contour>
      <point x="349" y="310" type="line"/>
      <point x="349" y="252" type="line" smooth="yes"/>
      <point x="349" y="153"/>
      <point x="206" y="124"/>
      <point x="206" y="18" type="curve" smooth="yes"/>
      <point x="206" y="-32"/>
      <point x="233" y="-71"/>
      <point x="296" y="-71" type="curve" smooth="yes"/>
      <point x="375" y="-71"/>
      <point x="390" y="-10"/>
      <point x="390" y="27" type="curve" smooth="yes"/>
      <point x="390" y="38"/>
      <point x="389" y="59"/>
      <point x="389" y="59" type="curve"/>
      <point x="530" y="59" type="line"/>
      <point x="531" y="50"/>
      <point x="533" y="39"/>
      <point x="533" y="22" type="curve" smooth="yes"/>
      <point x="533" y="-81"/>
      <point x="441" y="-185"/>
      <point x="297" y="-185" type="curve" smooth="yes"/>
      <point x="275" y="-185" type="line" smooth="yes"/>
      <point x="129" y="-185"/>
      <point x="50" y="-88"/>
      <point x="50" y="20" type="curve" smooth="yes"/>
      <point x="50" y="186"/>
      <point x="213" y="204"/>
      <point x="213" y="278" type="curve" smooth="yes"/>
      <point x="213" y="310" type="line"/>
    </contour>
  </outline>
</glyph>
<glyph name="Atilde" format="1">
  <advance width="686"/>
  <unicode hex="00C3"/>
  <outline>
    <contour>
      <point x="481" y="873" type="curve"/>
      <point x="546" y="873" type="line"/>
      <point x="546" y="813"/>
      <point x="498" y="749"/>
      <point x="420" y="749" type="curve" smooth="yes"/>
      <point x="356" y="749"/>
      <point x="303" y="786"/>
      <point x="249" y="786" type="curve" smooth="yes"/>
      <point x="221" y="786"/>
      <point x="204" y="772"/>
      <point x="197" y="749" type="curve"/>
      <point x="131" y="749" type="line"/>
      <point x="131" y="808"/>
      <point x="180" y="873"/>
      <point x="258" y="873" type="curve" smooth="yes"/>
      <point x="322" y="873"/>
      <point x="374" y="835"/>
      <point x="428" y="835" type="curve" smooth="yes"/>
      <point x="456" y="835"/>
      <point x="474" y="850"/>
    </contour>
    <contour>
      <point x="199" y="135" type="line"/>
      <point x="151" y="0" type="line"/>
      <point x="2" y="0" type="line"/>
      <point x="251" y="686" type="line"/>
      <point x="435" y="686" type="line"/>
      <point x="684" y="0" type="line"/>
      <point x="522" y="0" type="line"/>
      <point x="472" y="135" type="line"/>
    </contour>
    <contour>
      <point x="334" y="521" type="line"/>
      <point x="241" y="252" type="line"/>
      <point x="431" y="252" type="line"/>
      <point x="401" y="342"/>
      <point x="370" y="432"/>
      <point x="339" y="521" type="curve"/>
    </contour>
  </outline>
</glyph>
<glyph name="Adieresis" format="1">
  <advance width="686"/>
  <unicode hex="00C4"/>
  <outline>
    <contour>
      <point x="297" y="871" type="line"/>
      <point x="297" y="749" type="line"/>
      <point x="176" y="749" type="line"/>
      <point x="176" y="871" type="line"/>
    </contour>
    <contour>
      <point x="501" y="871" type="line"/>
      <point x="501" y="749" type="line"/>
      <point x="380" y="749" type="line"/>
      <point x="380" y="871" type="line"/>
    </contour>
    <contour>
      <point x="199" y="135" type="line"/>
      <point x="151" y="0" type="line"/>
      <point x="2" y="0" type="line"/>
      <point x="251" y="686" type="line"/>
      <point x="435" y="686" type="line"/>
      <point x="684" y="0" type="line"/>
      <point x="522" y="0" type="line"/>
      <point x="472" y="135" type="line"/>
    </contour>
    <contour>
      <point x="334" y="521" type="line"/>
      <point x="241" y="252" type="line"/>
      <point x="431" y="252" type="line"/>
      <point x="401" y="342"/>
      <point x="370" y="432"/>
      <point x="339" y="521" type="curve"/>
    </contour>
  </outline>
</glyph>
<glyph name="Aring" format="1">
  <advance width="686"/>
  <unicode hex="00C5"/>
  <outline>
    <contour>
      <point x="246" y="830" type="curve" smooth="yes"/>
      <point x="246" y="886"/>
      <point x="291" y="931"/>
      <point x="347" y="931" type="curve" smooth="yes"/>
      <point x="403" y="931"/>
      <point x="448" y="886"/>
      <point x="448" y="830" type="curve" smooth="yes"/>
      <point x="448" y="774"/>
      <point x="403" y="729"/>
      <point x="347" y="729" type="curve" smooth="yes"/>
      <point x="291" y="729"/>
      <point x="246" y="774"/>
    </contour>
    <contour>
      <point x="303" y="830" type="curve" smooth="yes"/>
      <point x="303" y="806"/>
      <point x="323" y="786"/>
      <point x="347" y="786" type="curve" smooth="yes"/>
      <point x="371" y="786"/>
      <point x="391" y="806"/>
      <point x="391" y="830" type="curve" smooth="yes"/>
      <point x="391" y="854"/>
      <point x="371" y="874"/>
      <point x="347" y="874" type="curve" smooth="yes"/>
      <point x="323" y="874"/>
      <point x="303" y="854"/>
    </contour>
    <contour>
      <point x="199" y="135" type="line"/>
      <point x="151" y="0" type="line"/>
      <point x="2" y="0" type="line"/>
      <point x="251" y="686" type="line"/>
      <point x="435" y="686" type="line"/>
      <point x="684" y="0" type="line"/>
      <point x="522" y="0" type="line"/>
      <point x="472" y="135" type="line"/>
    </contour>
    <contour>
      <point x="334" y="521" type="line"/>
      <point x="241" y="252" type="line"/>
      <point x="431" y="252" type="line"/>
      <point x="401" y="342"/>
      <point x="370" y="432"/>
      <point x="339" y="521" type="curve"/>
    </contour>
  </outline>
</glyph>
<glyph name="AE" format="1">
  <advance width="1004"/>
  <unicode hex="00C6"/>
  <outline>
    <contour>
      <point x="488" y="135" type="line"/>
      <point x="215" y="135" type="line"/>
      <point x="192" y="90"/>
      <point x="169" y="45"/>
      <point x="147" y="0" type="curve"/>
      <point x="0" y="0" type="line"/>
      <point x="344" y="686" type="line"/>
      <point x="960" y="686" type="line"/>
      <point x="944" y="562" type="line"/>
      <point x="555" y="562" type="line"/>
      <point x="589" y="411" type="line"/>
      <point x="922" y="411" type="line"/>
      <point x="922" y="290" type="line"/>
      <point x="615" y="290" type="line"/>
      <point x="628" y="236"/>
      <point x="641" y="181"/>
      <point x="653" y="126" type="curve"/>
      <point x="947" y="126" type="line"/>
      <point x="964" y="0" type="line"/>
      <point x="518" y="0" type="line"/>
    </contour>
    <contour>
      <point x="409" y="521" type="curve"/>
      <point x="404" y="521" type="line"/>
      <point x="360" y="432"/>
      <point x="317" y="342"/>
      <point x="273" y="252" type="curve"/>
      <point x="464" y="252" type="line"/>
      <point x="445" y="342"/>
      <point x="428" y="432"/>
    </contour>
  </outline>
</glyph>
<glyph name="Ccedilla" format="1">
  <advance width="683"/>
  <unicode hex="00C7"/>
  <outline>
    <contour>
      <point x="210" y="414" type="curve" smooth="yes"/>
      <point x="210" y="272" type="line" smooth="yes"/>
      <point x="210" y="167"/>
      <point x="275" y="113"/>
      <point x="355" y="113" type="curve" smooth="yes"/>
      <point x="450" y="113"/>
      <point x="494" y="163"/>
      <point x="494" y="270" type="curve"/>
      <point x="635" y="270" type="line"/>
      <point x="635" y="88"/>
      <point x="515" y="-10"/>
      <point x="362" y="-10" type="curve" smooth="yes"/>
      <point x="348" y="-10" type="line" smooth="yes"/>
      <point x="178" y="-10"/>
      <point x="48" y="95"/>
      <point x="48" y="294" type="curve" smooth="yes"/>
      <point x="48" y="392" type="line" smooth="yes"/>
      <point x="48" y="586"/>
      <point x="180" y="696"/>
      <point x="344" y="696" type="curve" smooth="yes"/>
      <point x="358" y="696" type="line" smooth="yes"/>
      <point x="514" y="696"/>
      <point x="635" y="603"/>
      <point x="635" y="414" type="curve"/>
      <point x="488" y="414" type="line"/>
      <point x="488" y="519"/>
      <point x="440" y="573"/>
      <point x="354" y="573" type="curve" smooth="yes"/>
      <point x="274" y="573"/>
      <point x="210" y="519"/>
    </contour>
    <contour>
      <point x="234" y="-168" type="curve"/>
      <point x="255" y="-116" type="line"/>
      <point x="261" y="-119"/>
      <point x="291" y="-142"/>
      <point x="338" y="-142" type="curve" smooth="yes"/>
      <point x="365" y="-142"/>
      <point x="387" y="-131"/>
      <point x="387" y="-104" type="curve" smooth="yes"/>
      <point x="387" y="-81"/>
      <point x="370" y="-68"/>
      <point x="342" y="-68" type="curve" smooth="yes"/>
      <point x="322" y="-68" type="line"/>
      <point x="322" y="-17" type="line"/>
      <point x="345" y="-17" type="line" smooth="yes"/>
      <point x="402" y="-17"/>
      <point x="461" y="-34"/>
      <point x="461" y="-107" type="curve" smooth="yes"/>
      <point x="461" y="-182"/>
      <point x="386" y="-197"/>
      <point x="342" y="-197" type="curve" smooth="yes"/>
      <point x="305" y="-197"/>
      <point x="261" y="-187"/>
    </contour>
  </outline>
</glyph>
<glyph name="Egrave" format="1">
  <advance width="598"/>
  <unicode hex="00C8"/>
  <outline>
    <contour>
      <point x="157" y="892" type="line"/>
      <point x="158" y="895" type="line"/>
      <point x="286" y="895" type="line"/>
      <point x="379" y="750" type="line"/>
      <point x="277" y="750" type="line"/>
    </contour>
    <contour>
      <point x="72" y="686" type="line"/>
      <point x="555" y="686" type="line"/>
      <point x="538" y="563" type="line"/>
      <point x="224" y="563" type="line"/>
      <point x="224" y="413" type="line"/>
      <point x="517" y="413" type="line"/>
      <point x="517" y="290" type="line"/>
      <point x="224" y="290" type="line"/>
      <point x="224" y="123" type="line"/>
      <point x="541" y="123" type="line"/>
      <point x="558" y="0" type="line"/>
      <point x="72" y="0" type="line"/>
    </contour>
  </outline>
</glyph>
<glyph name="Ecircumflex" format="1">
  <advance width="598"/>
  <unicode hex="00CA"/>
  <outline>
    <contour>
      <point x="261" y="895" type="line"/>
      <point x="364" y="895" type="line"/>
      <point x="409" y="847"/>
      <point x="455" y="798"/>
      <point x="501" y="750" type="curve"/>
      <point x="396" y="750" type="line"/>
      <point x="312" y="833" type="line"/>
      <point x="227" y="750" type="line"/>
      <point x="123" y="750" type="line"/>
    </contour>
    <contour>
      <point x="72" y="686" type="line"/>
      <point x="555" y="686" type="line"/>
      <point x="538" y="563" type="line"/>
      <point x="224" y="563" type="line"/>
      <point x="224" y="413" type="line"/>
      <point x="517" y="413" type="line"/>
      <point x="517" y="290" type="line"/>
      <point x="224" y="290" type="line"/>
      <point x="224" y="123" type="line"/>
      <point x="541" y="123" type="line"/>
      <point x="558" y="0" type="line"/>
      <point x="72" y="0" type="line"/>
    </contour>
  </outline>
</glyph>
<glyph name="Edieresis" format="1">
  <advance width="598"/>
  <unicode hex="00CB"/>
  <outline>
    <contour>
      <point x="273" y="872" type="line"/>
      <point x="273" y="750" type="line"/>
      <point x="152" y="750" type="line"/>
      <point x="152" y="872" type="line"/>
    </contour>
    <contour>
      <point x="477" y="872" type="line"/>
      <point x="477" y="750" type="line"/>
      <point x="356" y="750" type="line"/>
      <point x="356" y="872" type="line"/>
    </contour>
    <contour>
      <point x="72" y="686" type="line"/>
      <point x="555" y="686" type="line"/>
      <point x="538" y="563" type="line"/>
      <point x="224" y="563" type="line"/>
      <point x="224" y="413" type="line"/>
      <point x="517" y="413" type="line"/>
      <point x="517" y="290" type="line"/>
      <point x="224" y="290" type="line"/>
      <point x="224" y="123" type="line"/>
      <point x="541" y="123" type="line"/>
      <point x="558" y="0" type="line"/>
      <point x="72" y="0" type="line"/>
    </contour>
  </outline>
</glyph>
<glyph name="Iacute" format="1">
  <advance width="461"/>
  <unicode hex="00CD"/>
  <outline>
    <contour>
      <point x="261" y="895" type="line"/>
      <point x="390" y="895" type="line"/>
      <point x="391" y="892" type="line"/>
      <point x="270" y="750" type="line"/>
      <point x="169" y="750" type="line"/>
    </contour>
    <contour>
      <point x="388" y="686" type="line"/>
      <point x="388" y="563" type="line"/>
      <point x="308" y="563" type="line"/>
      <point x="308" y="123" type="line"/>
      <point x="388" y="123" type="line"/>
      <point x="388" y="0" type="line"/>
      <point x="72" y="0" type="line"/>
      <point x="72" y="123" type="line"/>
      <point x="153" y="123" type="line"/>
      <point x="153" y="563" type="line"/>
      <point x="72" y="563" type="line"/>
      <point x="72" y="686" type="line"/>
    </contour>
  </outline>
</glyph>
<glyph name="Icircumflex" format="1">
  <advance width="461"/>
  <unicode hex="00CE"/>
  <outline>
    <contour>
      <point x="180" y="895" type="line"/>
      <point x="283" y="895" type="line"/>
      <point x="328" y="847"/>
      <point x="374" y="798"/>
      <point x="420" y="750" type="curve"/>
      <point x="315" y="750" type="line"/>
      <point x="231" y="833" type="line"/>
      <point x="146" y="750" type="line"/>
      <point x="42" y="750" type="line"/>
    </contour>
    <contour>
      <point x="388" y="686" type="line"/>
      <point x="388" y="563" type="line"/>
      <point x="308" y="563" type="line"/>
      <point x="308" y="123" type="line"/>
      <point x="388" y="123" type="line"/>
      <point x="388" y="0" type="line"/>
      <point x="72" y="0" type="line"/>
      <point x="72" y="123" type="line"/>
      <point x="153" y="123" type="line"/>
      <point x="153" y="563" type="line"/>
      <point x="72" y="563" type="line"/>
      <point x="72" y="686" type="line"/>
    </contour>
  </outline>
</glyph>
<glyph name="Idieresis" format="1">
  <advance width="461"/>
  <unicode hex="00CF"/>
  <outline>
    <contour>
      <point x="191" y="872" type="line"/>
      <point x="191" y="750" type="line"/>
      <point x="70" y="750" type="line"/>
      <point x="70" y="872" type="line"/>
    </contour>
    <contour>
      <point x="395" y="872" type="line"/>
      <point x="395" y="750" type="line"/>
      <point x="274" y="750" type="line"/>
      <point x="274" y="872" type="line"/>
    </contour>
    <contour>
      <point x="388" y="686" type="line"/>
      <point x="388" y="563" type="line"/>
      <point x="308" y="563" type="line"/>
      <point x="308" y="123" type="line"/>
      <point x="388" y="123" type="line"/>
      <point x="388" y="0" type="line"/>
      <point x="72" y="0" type="line"/>
      <point x="72" y="123" type="line"/>
      <point x="153" y="123" type="line"/>
      <point x="153" y="563" type="line"/>
      <point x="72" y="563" type="line"/>
      <point x="72" y="686" type="line"/>
    </contour>
  </outline>
</glyph>
<glyph name="Eth" format="1">
  <advance width="686"/>
  <unicode hex="00D0"/>
  <outline>
    <contour>
      <point x="73" y="383" type="line"/>
      <point x="73" y="686" type="line"/>
      <point x="347" y="686" type="line" smooth="yes"/>
      <point x="508" y="686"/>
      <point x="638" y="569"/>
      <point x="638" y="382" type="curve" smooth="yes"/>
      <point x="638" y="304" type="line" smooth="yes"/>
      <point x="638" y="117"/>
      <point x="508" y="0"/>
      <point x="347" y="0" type="curve" smooth="yes"/>
      <point x="73" y="0" type="line"/>
      <point x="73" y="303" type="line"/>
      <point x="-11" y="303" type="line"/>
      <point x="-11" y="383" type="line"/>
    </contour>
    <contour>
      <point x="227" y="124" type="line"/>
      <point x="337" y="124" type="line" smooth="yes"/>
      <point x="437" y="124"/>
      <point x="480" y="193"/>
      <point x="480" y="317" type="curve" smooth="yes"/>
      <point x="480" y="387" type="line" smooth="yes"/>
      <point x="480" y="500"/>
      <point x="429" y="563"/>
      <point x="337" y="563" type="curve" smooth="yes"/>
      <point x="227" y="563" type="line"/>
      <point x="227" y="383" type="line"/>
      <point x="339" y="383" type="line"/>
      <point x="339" y="303" type="line"/>
      <point x="227" y="303" type="line"/>
    </contour>
  </outline>
</glyph>
<glyph name="Ntilde" format="1">
  <advance width="691"/>
  <unicode hex="00D1"/>
  <outline>
    <contour>
      <point x="490" y="873" type="curve"/>
      <point x="555" y="873" type="line"/>
      <point x="555" y="813"/>
      <point x="507" y="749"/>
      <point x="429" y="749" type="curve" smooth="yes"/>
      <point x="365" y="749"/>
      <point x="312" y="786"/>
      <point x="258" y="786" type="curve" smooth="yes"/>
      <point x="230" y="786"/>
      <point x="213" y="772"/>
      <point x="206" y="749" type="curve"/>
      <point x="140" y="749" type="line"/>
      <point x="140" y="808"/>
      <point x="189" y="873"/>
      <point x="267" y="873" type="curve" smooth="yes"/>
      <point x="331" y="873"/>
      <point x="383" y="835"/>
      <point x="437" y="835" type="curve" smooth="yes"/>
      <point x="465" y="835"/>
      <point x="483" y="850"/>
    </contour>
    <contour>
      <point x="487" y="0" type="line"/>
      <point x="272" y="316" type="line" smooth="yes"/>
      <point x="254" y="342"/>
      <point x="217" y="405"/>
      <point x="217" y="405" type="curve"/>
      <point x="213" y="402" type="line"/>
      <point x="213" y="0" type="line"/>
      <point x="72" y="0" type="line"/>
      <point x="72" y="686" type="line"/>
      <point x="203" y="686" type="line"/>
      <point x="419" y="368" type="line" smooth="yes"/>
      <point x="438" y="340"/>
      <point x="455" y="309"/>
      <point x="474" y="280" type="curve"/>
      <point x="477" y="283" type="line"/>
      <point x="477" y="686" type="line"/>
      <point x="618" y="686" type="line"/>
      <point x="618" y="0" type="line"/>
    </contour>
  </outline>
</glyph>
<glyph name="Ocircumflex" format="1">
  <advance width="708"/>
  <unicode hex="00D4"/>
  <outline>
    <contour>
      <point x="300" y="895" type="line"/>
      <point x="403" y="895" type="line"/>
      <point x="448" y="847"/>
      <point x="494" y="798"/>
      <point x="540" y="750" type="curve"/>
      <point x="435" y="750" type="line"/>
      <point x="351" y="833" type="line"/>
      <point x="266" y="750" type="line"/>
      <point x="162" y="750" type="line"/>
    </contour>
    <contour>
      <point x="660" y="392" type="curve" smooth="yes"/>
      <point x="660" y="294" type="line" smooth="yes"/>
      <point x="660" y="99"/>
      <point x="521" y="-10"/>
      <point x="354" y="-10" type="curve" smooth="yes"/>
      <point x="187" y="-10"/>
      <point x="48" y="99"/>
      <point x="48" y="294" type="curve" smooth="yes"/>
      <point x="48" y="392" type="line" smooth="yes"/>
      <point x="48" y="587"/>
      <point x="187" y="696"/>
      <point x="354" y="696" type="curve" smooth="yes"/>
      <point x="521" y="696"/>
      <point x="660" y="587"/>
    </contour>
    <contour>
      <point x="498" y="272" type="curve" smooth="yes"/>
      <point x="498" y="414" type="line" smooth="yes"/>
      <point x="498" y="519"/>
      <point x="436" y="573"/>
      <point x="354" y="573" type="curve" smooth="yes"/>
      <point x="272" y="573"/>
      <point x="210" y="519"/>
      <point x="210" y="414" type="curve" smooth="yes"/>
      <point x="210" y="272" type="line" smooth="yes"/>
      <point x="210" y="167"/>
      <point x="272" y="113"/>
      <point x="354" y="113" type="curve" smooth="yes"/>
      <point x="436" y="113"/>
      <point x="498" y="167"/>
    </contour>
  </outline>
</glyph>
<glyph name="Otilde" format="1">
  <advance width="708"/>
  <unicode hex="00D5"/>
  <outline>
    <contour>
      <point x="495" y="873" type="curve"/>
      <point x="560" y="873" type="line"/>
      <point x="560" y="813"/>
      <point x="512" y="749"/>
      <point x="434" y="749" type="curve" smooth="yes"/>
      <point x="370" y="749"/>
      <point x="317" y="786"/>
      <point x="263" y="786" type="curve" smooth="yes"/>
      <point x="235" y="786"/>
      <point x="218" y="772"/>
      <point x="211" y="749" type="curve"/>
      <point x="145" y="749" type="line"/>
      <point x="145" y="808"/>
      <point x="194" y="873"/>
      <point x="272" y="873" type="curve" smooth="yes"/>
      <point x="336" y="873"/>
      <point x="388" y="835"/>
      <point x="442" y="835" type="curve" smooth="yes"/>
      <point x="470" y="835"/>
      <point x="488" y="850"/>
    </contour>
    <contour>
      <point x="660" y="392" type="curve" smooth="yes"/>
      <point x="660" y="294" type="line" smooth="yes"/>
      <point x="660" y="99"/>
      <point x="521" y="-10"/>
      <point x="354" y="-10" type="curve" smooth="yes"/>
      <point x="187" y="-10"/>
      <point x="48" y="99"/>
      <point x="48" y="294" type="curve" smooth="yes"/>
      <point x="48" y="392" type="line" smooth="yes"/>
      <point x="48" y="587"/>
      <point x="187" y="696"/>
      <point x="354" y="696" type="curve" smooth="yes"/>
      <point x="521" y="696"/>
      <point x="660" y="587"/>
    </contour>
    <contour>
      <point x="498" y="272" type="curve" smooth="yes"/>
      <point x="498" y="414" type="line" smooth="yes"/>
      <point x="498" y="519"/>
      <point x="436" y="573"/>
      <point x="354" y="573" type="curve" smooth="yes"/>
      <point x="272" y="573"/>
      <point x="210" y="519"/>
      <point x="210" y="414" type="curve" smooth="yes"/>
      <point x="210" y="272" type="line" smooth="yes"/>
      <point x="210" y="167"/>
      <point x="272" y="113"/>
      <point x="354" y="113" type="curve" smooth="yes"/>
      <point x="436" y="113"/>
      <point x="498" y="167"/>
    </contour>
  </outline>
</glyph>
<glyph name="multiply" format="1">
  <advance width="600"/>
  <unicode hex="00D7"/>
  <outline>
    <contour>
      <point x="300" y="330" type="line"/>
      <point x="444" y="474" type="line"/>
      <point x="469" y="449"/>
      <point x="493" y="424"/>
      <point x="517" y="399" type="curve"/>
      <point x="373" y="255" type="line"/>
      <point x="517" y="112" type="line"/>
      <point x="492" y="87"/>
      <point x="468" y="62"/>
      <point x="444" y="37" type="curve"/>
      <point x="396" y="85"/>
      <point x="347" y="132"/>
      <point x="300" y="180" type="curve"/>
      <point x="155" y="37" type="line"/>
      <point x="131" y="62"/>
      <point x="107" y="87"/>
      <point x="82" y="112" type="curve"/>
      <point x="226" y="255" type="line"/>
      <point x="82" y="399" type="line"/>
      <point x="107" y="424"/>
      <point x="131" y="449"/>
      <point x="155" y="474" type="curve"/>
    </contour>
  </outline>
</glyph>
<glyph name="Oslash" format="1">
  <advance width="708"/>
  <unicode hex="00D8"/>
  <outline>
    <contour>
      <point x="660" y="392" type="curve" smooth="yes"/>
      <point x="660" y="294" type="line" smooth="yes"/>
      <point x="660" y="99"/>
      <point x="521" y="-10"/>
      <point x="354" y="-10" type="curve" smooth="yes"/>
      <point x="299" y="-10"/>
      <point x="248" y="1"/>
      <point x="203" y="24" type="curve"/>
      <point x="149" y="-65" type="line"/>
      <point x="63" y="-65" type="line"/>
      <point x="142" y="66" type="line"/>
      <point x="84" y="117"/>
      <point x="48" y="194"/>
      <point x="48" y="294" type="curve" smooth="yes"/>
      <point x="48" y="392" type="line" smooth="yes"/>
      <point x="48" y="587"/>
      <point x="187" y="696"/>
      <point x="354" y="696" type="curve" smooth="yes"/>
      <point x="408" y="696"/>
      <point x="458" y="685"/>
      <point x="503" y="663" type="curve"/>
      <point x="558" y="754" type="line"/>
      <point x="644" y="754" type="line"/>
      <point x="564" y="622" type="line"/>
      <point x="623" y="570"/>
      <point x="660" y="492"/>
    </contour>
    <contour>
      <point x="210" y="414" type="curve" smooth="yes"/>
      <point x="210" y="272" type="line" smooth="yes"/>
      <point x="210" y="244"/>
      <point x="214" y="219"/>
      <point x="222" y="199" type="curve"/>
      <point x="435" y="550" type="line"/>
      <point x="412" y="565"/>
      <point x="384" y="573"/>
      <point x="354" y="573" type="curve" smooth="yes"/>
      <point x="272" y="573"/>
      <point x="210" y="519"/>
    </contour>
    <contour>
      <point x="498" y="272" type="curve" smooth="yes"/>
      <point x="498" y="414" type="line" smooth="yes"/>
      <point x="498" y="443"/>
      <point x="493" y="468"/>
      <point x="484" y="490" type="curve"/>
      <point x="271" y="136" type="line"/>
      <point x="294" y="121"/>
      <point x="322" y="113"/>
      <point x="354" y="113" type="curve" smooth="yes"/>
      <point x="436" y="113"/>
      <point x="498" y="167"/>
    </contour>
  </outline>
</glyph>
<glyph name="Yacute" format="1">
  <advance width="637"/>
  <unicode hex="00DD"/>
  <outline>
    <contour>
      <point x="367" y="895" type="line"/>
      <point x="496" y="895" type="line"/>
      <point x="497" y="892" type="line"/>
      <point x="376" y="750" type="line"/>
      <point x="275" y="750" type="line"/>
    </contour>
    <contour>
      <point x="396" y="0" type="line"/>
      <point x="242" y="0" type="line"/>
      <point x="242" y="263" type="line"/>
      <point x="7" y="686" type="line"/>
      <point x="181" y="686" type="line"/>
      <point x="324" y="414" type="line"/>
      <point x="329" y="414" type="line"/>
      <point x="472" y="686" type="line"/>
      <point x="630" y="686" type="line"/>
      <point x="396" y="263" type="line"/>
    </contour>
  </outline>
</glyph>
<glyph name="Thorn" format="1">
  <advance width="634"/>
  <unicode hex="00DE"/>
  <outline>
    <contour>
      <point x="226" y="0" type="line"/>
      <point x="72" y="0" type="line"/>
      <point x="72" y="686" type="line"/>
      <point x="226" y="686" type="line"/>
      <point x="226" y="572" type="line"/>
      <point x="403" y="572" type="line" smooth="yes"/>
      <point x="517" y="572"/>
      <point x="610" y="486"/>
      <point x="610" y="367" type="curve" smooth="yes"/>
      <point x="610" y="359" type="line" smooth="yes"/>
      <point x="610" y="240"/>
      <point x="517" y="154"/>
      <point x="403" y="154" type="curve" smooth="yes"/>
      <point x="226" y="154" type="line"/>
    </contour>
    <contour>
      <point x="226" y="272" type="line"/>
      <point x="372" y="272" type="line" smooth="yes"/>
      <point x="426" y="272"/>
      <point x="455" y="318"/>
      <point x="455" y="369" type="curve" smooth="yes"/>
      <point x="455" y="414"/>
      <point x="418" y="450"/>
      <point x="372" y="450" type="curve" smooth="yes"/>
      <point x="226" y="450" type="line"/>
    </contour>
  </outline>
</glyph>
<glyph name="ae" format="1">
  <advance width="918"/>
  <unicode hex="00E6"/>
  <outline>
    <contour>
      <point x="873" y="231" type="line"/>
      <point x="528" y="231" type="line"/>
      <point x="528" y="146"/>
      <point x="555" y="88"/>
      <point x="637" y="88" type="curve" smooth="yes"/>
      <point x="717" y="88"/>
      <point x="736" y="150"/>
      <point x="736" y="191" type="curve"/>
      <point x="872" y="191" type="line"/>
      <point x="872" y="73"/>
      <point x="782" y="-10"/>
      <point x="641" y="-10" type="curve" smooth="yes"/>
      <point x="631" y="-10" type="line" smooth="yes"/>
      <point x="546" y="-10"/>
      <point x="475" y="21"/>
      <point x="430" y="79" type="curve"/>
      <point x="385" y="23"/>
      <point x="304" y="-10"/>
      <point x="221" y="-10" type="curve" smooth="yes"/>
      <point x="139" y="-10"/>
      <point x="40" y="11"/>
      <point x="40" y="139" type="curve" smooth="yes"/>
      <point x="40" y="286"/>
      <point x="174" y="311"/>
      <point x="379" y="311" type="curve"/>
      <point x="379" y="349" type="line" smooth="yes"/>
      <point x="379" y="387"/>
      <point x="360" y="425"/>
      <point x="288" y="425" type="curve" smooth="yes"/>
      <point x="219" y="425"/>
      <point x="199" y="383"/>
      <point x="199" y="362" type="curve" smooth="yes"/>
      <point x="199" y="354" type="line"/>
      <point x="58" y="354" type="line"/>
      <point x="57" y="360"/>
      <point x="56" y="365"/>
      <point x="56" y="372" type="curve" smooth="yes"/>
      <point x="56" y="458"/>
      <point x="147" y="521"/>
      <point x="281" y="521" type="curve" smooth="yes"/>
      <point x="302" y="521" type="line" smooth="yes"/>
      <point x="379" y="521"/>
      <point x="434" y="503"/>
      <point x="469" y="472" type="curve"/>
      <point x="510" y="504"/>
      <point x="565" y="521"/>
      <point x="626" y="521" type="curve" smooth="yes"/>
      <point x="642" y="521" type="line" smooth="yes"/>
      <point x="784" y="521"/>
      <point x="873" y="431"/>
      <point x="873" y="298" type="curve" smooth="yes"/>
    </contour>
    <contour>
      <point x="632" y="423" type="curve" smooth="yes"/>
      <point x="569" y="423"/>
      <point x="534" y="378"/>
      <point x="529" y="311" type="curve"/>
      <point x="729" y="311" type="line"/>
      <point x="729" y="324" type="line" smooth="yes"/>
      <point x="729" y="385"/>
      <point x="685" y="423"/>
    </contour>
    <contour>
      <point x="379" y="197" type="curve" smooth="yes"/>
      <point x="379" y="229" type="line"/>
      <point x="256" y="229"/>
      <point x="191" y="208"/>
      <point x="191" y="150" type="curve" smooth="yes"/>
      <point x="191" y="102"/>
      <point x="224" y="88"/>
      <point x="273" y="88" type="curve" smooth="yes"/>
      <point x="327" y="88"/>
      <point x="379" y="129"/>
    </contour>
  </outline>
</glyph>
<glyph name="ccedilla" format="1">
  <advance width="571"/>
  <unicode hex="00E7"/>
  <outline>
    <contour>
      <point x="193" y="296" type="curve" smooth="yes"/>
      <point x="193" y="207" type="line" smooth="yes"/>
      <point x="193" y="142"/>
      <point x="228" y="90"/>
      <point x="289" y="90" type="curve" smooth="yes"/>
      <point x="349" y="90"/>
      <point x="388" y="127"/>
      <point x="388" y="203" type="curve"/>
      <point x="526" y="203" type="line"/>
      <point x="526" y="55"/>
      <point x="420" y="-10"/>
      <point x="305" y="-10" type="curve" smooth="yes"/>
      <point x="289" y="-10" type="line" smooth="yes"/>
      <point x="141" y="-10"/>
      <point x="45" y="82"/>
      <point x="45" y="241" type="curve" smooth="yes"/>
      <point x="45" y="270" type="line" smooth="yes"/>
      <point x="45" y="429"/>
      <point x="148" y="521"/>
      <point x="289" y="521" type="curve" smooth="yes"/>
      <point x="305" y="521" type="line" smooth="yes"/>
      <point x="421" y="521"/>
      <point x="526" y="444"/>
      <point x="526" y="307" type="curve"/>
      <point x="381" y="307" type="line"/>
      <point x="381" y="373"/>
      <point x="352" y="421"/>
      <point x="290" y="421" type="curve" smooth="yes"/>
      <point x="228" y="421"/>
      <point x="193" y="365"/>
    </contour>
    <contour>
      <point x="175" y="-168" type="curve"/>
      <point x="196" y="-116" type="line"/>
      <point x="202" y="-119"/>
      <point x="232" y="-142"/>
      <point x="279" y="-142" type="curve" smooth="yes"/>
      <point x="306" y="-142"/>
      <point x="328" y="-131"/>
      <point x="328" y="-104" type="curve" smooth="yes"/>
      <point x="328" y="-81"/>
      <point x="311" y="-68"/>
      <point x="283" y="-68" type="curve" smooth="yes"/>
      <point x="263" y="-68" type="line"/>
      <point x="263" y="-17" type="line"/>
      <point x="286" y="-17" type="line" smooth="yes"/>
      <point x="343" y="-17"/>
      <point x="402" y="-34"/>
      <point x="402" y="-107" type="curve" smooth="yes"/>
      <point x="402" y="-182"/>
      <point x="327" y="-197"/>
      <point x="283" y="-197" type="curve" smooth="yes"/>
      <point x="246" y="-197"/>
      <point x="202" y="-187"/>
    </contour>
  </outline>
</glyph>
<glyph name="edieresis" format="1">
  <advance width="588"/>
  <unicode hex="00EB"/>
  <outline>
    <contour>
      <point x="259" y="720" type="line"/>
      <point x="259" y="598" type="line"/>
      <point x="138" y="598" type="line"/>
      <point x="138" y="720" type="line"/>
    </contour>
    <contour>
      <point x="463" y="720" type="line"/>
      <point x="463" y="598" type="line"/>
      <point x="342" y="598" type="line"/>
      <point x="342" y="720" type="line"/>
    </contour>
    <contour>
      <point x="402" y="191" type="curve"/>
      <point x="542" y="191" type="line"/>
      <point x="542" y="50"/>
      <point x="429" y="-10"/>
      <point x="311" y="-10" type="curve" smooth="yes"/>
      <point x="295" y="-10" type="line" smooth="yes"/>
      <point x="153" y="-10"/>
      <point x="45" y="82"/>
      <point x="45" y="241" type="curve" smooth="yes"/>
      <point x="45" y="270" type="line" smooth="yes"/>
      <point x="45" y="429"/>
      <point x="155" y="521"/>
      <point x="295" y="521" type="curve" smooth="yes"/>
      <point x="311" y="521" type="line" smooth="yes"/>
      <point x="433" y="521"/>
      <point x="543" y="444"/>
      <point x="543" y="307" type="curve" smooth="yes"/>
      <point x="543" y="231" type="line"/>
      <point x="193" y="231" type="line"/>
      <point x="193" y="207" type="line" smooth="yes"/>
      <point x="193" y="142"/>
      <point x="233" y="90"/>
      <point x="303" y="90" type="curve" smooth="yes"/>
      <point x="363" y="90"/>
      <point x="402" y="123"/>
    </contour>
    <contour>
      <point x="296" y="421" type="curve" smooth="yes"/>
      <point x="236" y="421"/>
      <point x="198" y="373"/>
      <point x="193" y="311" type="curve"/>
      <point x="395" y="311" type="line"/>
      <point x="395" y="374"/>
      <point x="369" y="421"/>
    </contour>
  </outline>
</glyph>
<glyph name="igrave" format="1">
  <advance width="278"/>
  <unicode hex="00EC"/>
  <outline>
    <contour>
      <point x="-16" y="717" type="line"/>
      <point x="-15" y="720" type="line"/>
      <point x="113" y="720" type="line"/>
      <point x="206" y="575" type="line"/>
      <point x="104" y="575" type="line"/>
    </contour>
    <contour>
      <point x="66" y="511" type="line"/>
      <point x="212" y="511" type="line"/>
      <point x="212" y="0" type="line"/>
      <point x="66" y="0" type="line"/>
    </contour>
  </outline>
</glyph>
<glyph name="iacute" format="1">
  <advance width="278"/>
  <unicode hex="00ED"/>
  <outline>
    <contour>
      <point x="162" y="720" type="line"/>
      <point x="291" y="720" type="line"/>
      <point x="292" y="717" type="line"/>
      <point x="171" y="575" type="line"/>
      <point x="70" y="575" type="line"/>
    </contour>
    <contour>
      <point x="66" y="511" type="line"/>
      <point x="212" y="511" type="line"/>
      <point x="212" y="0" type="line"/>
      <point x="66" y="0" type="line"/>
    </contour>
  </outline>
</glyph>
<glyph name="icircumflex" format="1">
  <advance width="278"/>
  <unicode hex="00EE"/>
  <outline>
    <contour>
      <point x="89" y="720" type="line"/>
      <point x="192" y="720" type="line"/>
      <point x="237" y="672"/>
      <point x="283" y="623"/>
      <point x="329" y="575" type="curve"/>
      <point x="224" y="575" type="line"/>
      <point x="140" y="658" type="line"/>
      <point x="55" y="575" type="line"/>
      <point x="-49" y="575" type="line"/>
    </contour>
    <contour>
      <point x="66" y="511" type="line"/>
      <point x="212" y="511" type="line"/>
      <point x="212" y="0" type="line"/>
      <point x="66" y="0" type="line"/>
    </contour>
  </outline>
</glyph>
<glyph name="idieresis" format="1">
  <advance width="278"/>
  <unicode hex="00EF"/>
  <outline>
    <contour>
      <point x="98" y="720" type="line"/>
      <point x="98" y="598" type="line"/>
      <point x="-23" y="598" type="line"/>
      <point x="-23" y="720" type="line"/>
    </contour>
    <contour>
      <point x="302" y="720" type="line"/>
      <point x="302" y="598" type="line"/>
      <point x="181" y="598" type="line"/>
      <point x="181" y="720" type="line"/>
    </contour>
    <contour>
      <point x="66" y="511" type="line"/>
      <point x="212" y="511" type="line"/>
      <point x="212" y="0" type="line"/>
      <point x="66" y="0" type="line"/>
    </contour>
  </outline>
</glyph>
<glyph name="eth" format="1">
  <advance width="614"/>
  <unicode hex="00F0"/>
  <outline>
    <contour>
      <point x="561" y="270" type="curve" smooth="yes"/>
      <point x="561" y="241" type="line" smooth="yes"/>
      <point x="561" y="81"/>
      <point x="452" y="-10"/>
      <point x="311" y="-10" type="curve" smooth="yes"/>
      <point x="295" y="-10" type="line" smooth="yes"/>
      <point x="154" y="-10"/>
      <point x="45" y="82"/>
      <point x="45" y="241" type="curve" smooth="yes"/>
      <point x="45" y="270" type="line" smooth="yes"/>
      <point x="45" y="429"/>
      <point x="158" y="514"/>
      <point x="297" y="514" type="curve"/>
      <point x="283" y="536"/>
      <point x="262" y="564"/>
      <point x="237" y="592" type="curve"/>
      <point x="158" y="555" type="line"/>
      <point x="111" y="597" type="line"/>
      <point x="195" y="637" type="line"/>
      <point x="168" y="660"/>
      <point x="136" y="680"/>
      <point x="110" y="692" type="curve"/>
      <point x="110" y="698"/>
      <point x="183" y="727"/>
      <point x="197" y="734" type="curve"/>
      <point x="228" y="720"/>
      <point x="260" y="703"/>
      <point x="291" y="684" type="curve"/>
      <point x="374" y="722" type="line"/>
      <point x="417" y="680" type="line"/>
      <point x="393" y="669"/>
      <point x="369" y="657"/>
      <point x="344" y="646" type="curve"/>
      <point x="462" y="552"/>
      <point x="561" y="416"/>
    </contour>
    <contour>
      <point x="413" y="215" type="curve" smooth="yes"/>
      <point x="413" y="296" type="line" smooth="yes"/>
      <point x="413" y="380"/>
      <point x="365" y="421"/>
      <point x="303" y="421" type="curve" smooth="yes"/>
      <point x="241" y="421"/>
      <point x="193" y="380"/>
      <point x="193" y="296" type="curve" smooth="yes"/>
      <point x="193" y="215" type="line" smooth="yes"/>
      <point x="193" y="131"/>
      <point x="241" y="90"/>
      <point x="303" y="90" type="curve" smooth="yes"/>
      <point x="365" y="90"/>
      <point x="413" y="131"/>
    </contour>
  </outline>
</glyph>
<glyph name="ntilde" format="1">
  <advance width="598"/>
  <unicode hex="00F1"/>
  <outline>
    <contour>
      <point x="450" y="720" type="curve"/>
      <point x="515" y="720" type="line"/>
      <point x="515" y="660"/>
      <point x="467" y="596"/>
      <point x="389" y="596" type="curve" smooth="yes"/>
      <point x="325" y="596"/>
      <point x="272" y="633"/>
      <point x="218" y="633" type="curve" smooth="yes"/>
      <point x="190" y="633"/>
      <point x="173" y="619"/>
      <point x="166" y="596" type="curve"/>
      <point x="100" y="596" type="line"/>
      <point x="100" y="655"/>
      <point x="149" y="720"/>
      <point x="227" y="720" type="curve" smooth="yes"/>
      <point x="291" y="720"/>
      <point x="343" y="682"/>
      <point x="397" y="682" type="curve" smooth="yes"/>
      <point x="425" y="682"/>
      <point x="443" y="697"/>
    </contour>
    <contour>
      <point x="175" y="511" type="line"/>
      <point x="191" y="436" type="line"/>
      <point x="223" y="479"/>
      <point x="275" y="521"/>
      <point x="354" y="521" type="curve" smooth="yes"/>
      <point x="452" y="521"/>
      <point x="533" y="468"/>
      <point x="533" y="357" type="curve" smooth="yes"/>
      <point x="533" y="0" type="line"/>
      <point x="387" y="0" type="line"/>
      <point x="387" y="325" type="line" smooth="yes"/>
      <point x="387" y="377"/>
      <point x="354" y="415"/>
      <point x="307" y="415" type="curve" smooth="yes"/>
      <point x="256" y="415"/>
      <point x="212" y="371"/>
      <point x="212" y="314" type="curve" smooth="yes"/>
      <point x="212" y="0" type="line"/>
      <point x="66" y="0" type="line"/>
      <point x="66" y="511" type="line"/>
    </contour>
  </outline>
</glyph>
<glyph name="ograve" format="1">
  <advance width="606"/>
  <unicode hex="00F2"/>
  <outline>
    <contour>
      <point x="131" y="717" type="line"/>
      <point x="132" y="720" type="line"/>
      <point x="260" y="720" type="line"/>
      <point x="353" y="575" type="line"/>
      <point x="251" y="575" type="line"/>
    </contour>
    <contour>
      <point x="561" y="270" type="curve" smooth="yes"/>
      <point x="561" y="241" type="line" smooth="yes"/>
      <point x="561" y="82"/>
      <point x="452" y="-10"/>
      <point x="311" y="-10" type="curve" smooth="yes"/>
      <point x="295" y="-10" type="line" smooth="yes"/>
      <point x="154" y="-10"/>
      <point x="45" y="82"/>
      <point x="45" y="241" type="curve" smooth="yes"/>
      <point x="45" y="270" type="line" smooth="yes"/>
      <point x="45" y="429"/>
      <point x="154" y="521"/>
      <point x="295" y="521" type="curve" smooth="yes"/>
      <point x="311" y="521" type="line" smooth="yes"/>
      <point x="452" y="521"/>
      <point x="561" y="429"/>
    </contour>
    <contour>
      <point x="413" y="215" type="curve" smooth="yes"/>
      <point x="413" y="296" type="line" smooth="yes"/>
      <point x="413" y="380"/>
      <point x="365" y="421"/>
      <point x="303" y="421" type="curve" smooth="yes"/>
      <point x="241" y="421"/>
      <point x="193" y="380"/>
      <point x="193" y="296" type="curve" smooth="yes"/>
      <point x="193" y="215" type="line" smooth="yes"/>
      <point x="193" y="131"/>
      <point x="241" y="90"/>
      <point x="303" y="90" type="curve" smooth="yes"/>
      <point x="365" y="90"/>
      <point x="413" y="131"/>
    </contour>
  </outline>
</glyph>
<glyph name="otilde" format="1">
  <advance width="606"/>
  <unicode hex="00F5"/>
  <outline>
    <contour>
      <point x="445" y="720" type="curve"/>
      <point x="510" y="720" type="line"/>
      <point x="510" y="660"/>
      <point x="462" y="596"/>
      <point x="384" y="596" type="curve" smooth="yes"/>
      <point x="320" y="596"/>
      <point x="267" y="633"/>
      <point x="213" y="633" type="curve" smooth="yes"/>
      <point x="185" y="633"/>
      <point x="168" y="619"/>
      <point x="161" y="596" type="curve"/>
      <point x="95" y="596" type="line"/>
      <point x="95" y="655"/>
      <point x="144" y="720"/>
      <point x="222" y="720" type="curve" smooth="yes"/>
      <point x="286" y="720"/>
      <point x="338" y="682"/>
      <point x="392" y="682" type="curve" smooth="yes"/>
      <point x="420" y="682"/>
      <point x="438" y="697"/>
    </contour>
    <contour>
      <point x="561" y="270" type="curve" smooth="yes"/>
      <point x="561" y="241" type="line" smooth="yes"/>
      <point x="561" y="82"/>
      <point x="452" y="-10"/>
      <point x="311" y="-10" type="curve" smooth="yes"/>
      <point x="295" y="-10" type="line" smooth="yes"/>
      <point x="154" y="-10"/>
      <point x="45" y="82"/>
      <point x="45" y="241" type="curve" smooth="yes"/>
      <point x="45" y="270" type="line" smooth="yes"/>
      <point x="45" y="429"/>
      <point x="154" y="521"/>
      <point x="295" y="521" type="curve" smooth="yes"/>
      <point x="311" y="521" type="line" smooth="yes"/>
      <point x="452" y="521"/>
      <point x="561" y="429"/>
    </contour>
    <contour>
      <point x="413" y="215" type="curve" smooth="yes"/>
      <point x="413" y="296" type="line" smooth="yes"/>
      <point x="413" y="380"/>
      <point x="365" y="421"/>
      <point x="303" y="421" type="curve" smooth="yes"/>
      <point x="241" y="421"/>
      <point x="193" y="380"/>
      <point x="193" y="296" type="curve" smooth="yes"/>
      <point x="193" y="215" type="line" smooth="yes"/>
      <point x="193" y="131"/>
      <point x="241" y="90"/>
      <point x="303" y="90" type="curve" smooth="yes"/>
      <point x="365" y="90"/>
      <point x="413" y="131"/>
    </contour>
  </outline>
</glyph>
<glyph name="odieresis" format="1">
  <advance width="606"/>
  <unicode hex="00F6"/>
  <outline>
    <contour>
      <point x="260" y="720" type="line"/>
      <point x="260" y="598" type="line"/>
      <point x="139" y="598" type="line"/>
      <point x="139" y="720" type="line"/>
    </contour>
    <contour>
      <point x="464" y="720" type="line"/>
      <point x="464" y="598" type="line"/>
      <point x="343" y="598" type="line"/>
      <point x="343" y="720" type="line"/>
    </contour>
    <contour>
      <point x="561" y="270" type="curve" smooth="yes"/>
      <point x="561" y="241" type="line" smooth="yes"/>
      <point x="561" y="82"/>
      <point x="452" y="-10"/>
      <point x="311" y="-10" type="curve" smooth="yes"/>
      <point x="295" y="-10" type="line" smooth="yes"/>
      <point x="154" y="-10"/>
      <point x="45" y="82"/>
      <point x="45" y="241" type="curve" smooth="yes"/>
      <point x="45" y="270" type="line" smooth="yes"/>
      <point x="45" y="429"/>
      <point x="154" y="521"/>
      <point x="295" y="521" type="curve" smooth="yes"/>
      <point x="311" y="521" type="line" smooth="yes"/>
      <point x="452" y="521"/>
      <point x="561" y="429"/>
    </contour>
    <contour>
      <point x="413" y="215" type="curve" smooth="yes"/>
      <point x="413" y="296" type="line" smooth="yes"/>
      <point x="413" y="380"/>
      <point x="365" y="421"/>
      <point x="303" y="421" type="curve" smooth="yes"/>
      <point x="241" y="421"/>
      <point x="193" y="380"/>
      <point x="193" y="296" type="curve" smooth="yes"/>
      <point x="193" y="215" type="line" smooth="yes"/>
      <point x="193" y="131"/>
      <point x="241" y="90"/>
      <point x="303" y="90" type="curve" smooth="yes"/>
      <point x="365" y="90"/>
      <point x="413" y="131"/>
    </contour>
  </outline>
</glyph>
<glyph name="divide" format="1">
  <advance width="600"/>
  <unicode hex="00F7"/>
  <outline>
    <contour>
      <point x="353" y="478" type="line"/>
      <point x="353" y="369" type="line"/>
      <point x="248" y="369" type="line"/>
      <point x="248" y="478" type="line"/>
    </contour>
    <contour>
      <point x="44" y="309" type="line"/>
      <point x="556" y="309" type="line"/>
      <point x="556" y="203" type="line"/>
      <point x="44" y="203" type="line"/>
    </contour>
    <contour>
      <point x="353" y="142" type="line"/>
      <point x="353" y="34" type="line"/>
      <point x="248" y="34" type="line"/>
      <point x="248" y="142" type="line"/>
    </contour>
  </outline>
</glyph>
<glyph name="oslash" format="1">
  <advance width="606"/>
  <unicode hex="00F8"/>
  <outline>
    <contour>
      <point x="561" y="270" type="curve" smooth="yes"/>
      <point x="561" y="241" type="line" smooth="yes"/>
      <point x="561" y="82"/>
      <point x="452" y="-10"/>
      <point x="311" y="-10" type="curve" smooth="yes"/>
      <point x="295" y="-10" type="line" smooth="yes"/>
      <point x="255" y="-10"/>
      <point x="218" y="-3"/>
      <point x="186" y="11" type="curve"/>
      <point x="144" y="-55" type="line"/>
      <point x="69" y="-55" type="line"/>
      <point x="79" y="-39"/>
      <point x="101" y="-3"/>
      <point x="131" y="43" type="curve"/>
      <point x="78" y="86"/>
      <point x="45" y="153"/>
      <point x="45" y="241" type="curve" smooth="yes"/>
      <point x="45" y="270" type="line" smooth="yes"/>
      <point x="45" y="429"/>
      <point x="154" y="521"/>
      <point x="295" y="521" type="curve" smooth="yes"/>
      <point x="311" y="521" type="line" smooth="yes"/>
      <point x="350" y="521"/>
      <point x="387" y="513"/>
      <point x="419" y="500" type="curve"/>
      <point x="437" y="528"/>
      <point x="453" y="553"/>
      <point x="462" y="568" type="curve"/>
      <point x="537" y="568" type="line"/>
      <point x="474" y="468" type="line"/>
      <point x="527" y="425"/>
      <point x="561" y="358"/>
    </contour>
    <contour>
      <point x="203" y="156" type="curve"/>
      <point x="254" y="237"/>
      <point x="311" y="329"/>
      <point x="360" y="406" type="curve"/>
      <point x="344" y="416"/>
      <point x="324" y="421"/>
      <point x="303" y="421" type="curve" smooth="yes"/>
      <point x="241" y="421"/>
      <point x="193" y="380"/>
      <point x="193" y="296" type="curve" smooth="yes"/>
      <point x="193" y="215" type="line" smooth="yes"/>
      <point x="193" y="192"/>
      <point x="196" y="172"/>
    </contour>
    <contour>
      <point x="413" y="215" type="curve" smooth="yes"/>
      <point x="413" y="296" type="line" smooth="yes"/>
      <point x="413" y="319"/>
      <point x="409" y="339"/>
      <point x="403" y="355" type="curve"/>
      <point x="245" y="104" type="line"/>
      <point x="261" y="94"/>
      <point x="281" y="90"/>
      <point x="303" y="90" type="curve" smooth="yes"/>
      <point x="365" y="90"/>
      <point x="413" y="131"/>
    </contour>
  </outline>
</glyph>
<glyph name="udieresis" format="1">
  <advance width="611"/>
  <unicode hex="00FC"/>
  <outline>
    <contour>
      <point x="256" y="720" type="line"/>
      <point x="256" y="598" type="line"/>
      <point x="135" y="598" type="line"/>
      <point x="135" y="720" type="line"/>
    </contour>
    <contour>
      <point x="460" y="720" type="line"/>
      <point x="460" y="598" type="line"/>
      <point x="339" y="598" type="line"/>
      <point x="339" y="720" type="line"/>
    </contour>
    <contour>
      <point x="531" y="511" type="line"/>
      <point x="531" y="120" type="line" smooth="yes"/>
      <point x="531" y="98"/>
      <point x="547" y="90"/>
      <point x="560" y="90" type="curve" smooth="yes"/>
      <point x="575" y="90"/>
      <point x="595" y="98"/>
      <point x="601" y="101" type="curve"/>
      <point x="601" y="11" type="line"/>
      <point x="594" y="7"/>
      <point x="563" y="-10"/>
      <point x="513" y="-10" type="curve" smooth="yes"/>
      <point x="443" y="-10"/>
      <point x="407" y="18"/>
      <point x="397" y="63" type="curve"/>
      <point x="364" y="25"/>
      <point x="315" y="-10"/>
      <point x="243" y="-10" type="curve" smooth="yes"/>
      <point x="145" y="-10"/>
      <point x="64" y="43"/>
      <point x="64" y="154" type="curve" smooth="yes"/>
      <point x="64" y="511" type="line"/>
      <point x="210" y="511" type="line"/>
      <point x="210" y="186" type="line" smooth="yes"/>
      <point x="210" y="134"/>
      <point x="243" y="96"/>
      <point x="290" y="96" type="curve" smooth="yes"/>
      <point x="341" y="96"/>
      <point x="385" y="140"/>
      <point x="385" y="197" type="curve" smooth="yes"/>
      <point x="385" y="511" type="line"/>
    </contour>
  </outline>
</glyph>
<glyph name="yacute" format="1">
  <advance width="545"/>
  <unicode hex="00FD"/>
  <outline>
    <contour>
      <point x="316" y="720" type="line"/>
      <point x="445" y="720" type="line"/>
      <point x="446" y="717" type="line"/>
      <point x="325" y="575" type="line"/>
      <point x="224" y="575" type="line"/>
    </contour>
    <contour>
      <point x="534" y="511" type="line"/>
      <point x="352" y="28" type="line" smooth="yes"/>
      <point x="307" y="-92"/>
      <point x="240" y="-187"/>
      <point x="131" y="-187" type="curve" smooth="yes"/>
      <point x="96" y="-187"/>
      <point x="67" y="-182"/>
      <point x="45" y="-172" type="curve"/>
      <point x="45" y="-69" type="line"/>
      <point x="59" y="-75"/>
      <point x="88" y="-83"/>
      <point x="112" y="-83" type="curve" smooth="yes"/>
      <point x="155" y="-83"/>
      <point x="185" y="-53"/>
      <point x="203" y="10" type="curve"/>
      <point x="10" y="511" type="line"/>
      <point x="165" y="511" type="line"/>
      <point x="278" y="190" type="line"/>
      <point x="284" y="190" type="line"/>
      <point x="390" y="511" type="line"/>
    </contour>
  </outline>
</glyph>
<glyph name="Abreve" format="1">
  <advance width="686"/>
  <unicode hex="0102"/>
  <outline>
    <contour>
      <point x="342" y="788" type="curve" smooth="yes"/>
      <point x="236" y="788"/>
      <point x="150" y="855"/>
      <point x="150" y="912" type="curve"/>
      <point x="231" y="912" type="line"/>
      <point x="237" y="888"/>
      <point x="284" y="862"/>
      <point x="342" y="862" type="curve" smooth="yes"/>
      <point x="398" y="862"/>
      <point x="448" y="890"/>
      <point x="453" y="912" type="curve"/>
      <point x="535" y="912" type="line"/>
      <point x="535" y="855"/>
      <point x="449" y="788"/>
    </contour>
    <contour>
      <point x="199" y="135" type="line"/>
      <point x="151" y="0" type="line"/>
      <point x="2" y="0" type="line"/>
      <point x="251" y="686" type="line"/>
      <point x="435" y="686" type="line"/>
      <point x="684" y="0" type="line"/>
      <point x="522" y="0" type="line"/>
      <point x="472" y="135" type="line"/>
    </contour>
    <contour>
      <point x="334" y="521" type="line"/>
      <point x="241" y="252" type="line"/>
      <point x="431" y="252" type="line"/>
      <point x="401" y="342"/>
      <point x="370" y="432"/>
      <point x="339" y="521" type="curve"/>
    </contour>
  </outline>
</glyph>
<glyph name="Aogonek" format="1">
  <advance width="686"/>
  <unicode hex="0104"/>
  <outline>
    <contour>
      <point x="681" y="-79" type="curve"/>
      <point x="694" y="-119" type="line"/>
      <point x="665" y="-135"/>
      <point x="631" y="-143"/>
      <point x="598" y="-143" type="curve" smooth="yes"/>
      <point x="552" y="-143"/>
      <point x="501" y="-126"/>
      <point x="501" y="-71" type="curve" smooth="yes"/>
      <point x="501" y="-39"/>
      <point x="531" y="-16"/>
      <point x="555" y="0" type="curve"/>
      <point x="522" y="0" type="line"/>
      <point x="472" y="135" type="line"/>
      <point x="199" y="135" type="line"/>
      <point x="151" y="0" type="line"/>
      <point x="2" y="0" type="line"/>
      <point x="251" y="686" type="line"/>
      <point x="435" y="686" type="line"/>
      <point x="684" y="0" type="line"/>
      <point x="617" y="0" type="line"/>
      <point x="597" y="-11"/>
      <point x="570" y="-32"/>
      <point x="570" y="-57" type="curve" smooth="yes"/>
      <point x="570" y="-85"/>
      <point x="593" y="-93"/>
      <point x="614" y="-93" type="curve" smooth="yes"/>
      <point x="638" y="-93"/>
      <point x="660" y="-87"/>
    </contour>
    <contour>
      <point x="241" y="252" type="line"/>
      <point x="431" y="252" type="line"/>
      <point x="401" y="342"/>
      <point x="370" y="432"/>
      <point x="339" y="521" type="curve"/>
      <point x="334" y="521" type="line"/>
    </contour>
  </outline>
</glyph>
<glyph name="Ccaron" format="1">
  <advance width="683"/>
  <unicode hex="010C"/>
  <outline>
    <contour>
      <point x="258" y="895" type="line"/>
      <point x="343" y="812" type="line"/>
      <point x="427" y="895" type="line"/>
      <point x="531" y="895" type="line"/>
      <point x="485" y="847"/>
      <point x="439" y="798"/>
      <point x="394" y="750" type="curve"/>
      <point x="291" y="750" type="line"/>
      <point x="153" y="895" type="line"/>
    </contour>
    <contour>
      <point x="210" y="414" type="curve" smooth="yes"/>
      <point x="210" y="272" type="line" smooth="yes"/>
      <point x="210" y="167"/>
      <point x="275" y="113"/>
      <point x="355" y="113" type="curve" smooth="yes"/>
      <point x="450" y="113"/>
      <point x="494" y="163"/>
      <point x="494" y="270" type="curve"/>
      <point x="635" y="270" type="line"/>
      <point x="635" y="88"/>
      <point x="515" y="-10"/>
      <point x="362" y="-10" type="curve" smooth="yes"/>
      <point x="348" y="-10" type="line" smooth="yes"/>
      <point x="178" y="-10"/>
      <point x="48" y="95"/>
      <point x="48" y="294" type="curve" smooth="yes"/>
      <point x="48" y="392" type="line" smooth="yes"/>
      <point x="48" y="586"/>
      <point x="180" y="696"/>
      <point x="344" y="696" type="curve" smooth="yes"/>
      <point x="358" y="696" type="line" smooth="yes"/>
      <point x="514" y="696"/>
      <point x="635" y="603"/>
      <point x="635" y="414" type="curve"/>
      <point x="488" y="414" type="line"/>
      <point x="488" y="519"/>
      <point x="440" y="573"/>
      <point x="354" y="573" type="curve" smooth="yes"/>
      <point x="274" y="573"/>
      <point x="210" y="519"/>
    </contour>
    <contour>
      <point x="342" y="0" type="move" name="Bottom"/>
    </contour>
  </outline>
</glyph>
<glyph name="Dcaron" format="1">
  <advance width="686"/>
  <unicode hex="010E"/>
  <outline>
    <contour>
      <point x="259" y="895" type="line"/>
      <point x="344" y="812" type="line"/>
      <point x="428" y="895" type="line"/>
      <point x="532" y="895" type="line"/>
      <point x="486" y="847"/>
      <point x="440" y="798"/>
      <point x="395" y="750" type="curve"/>
      <point x="292" y="750" type="line"/>
      <point x="154" y="895" type="line"/>
    </contour>
    <contour>
      <point x="72" y="686" type="line"/>
      <point x="332" y="686" type="line" smooth="yes"/>
      <point x="499" y="686"/>
      <point x="638" y="577"/>
      <point x="638" y="382" type="curve" smooth="yes"/>
      <point x="638" y="304" type="line" smooth="yes"/>
      <point x="638" y="109"/>
      <point x="499" y="0"/>
      <point x="332" y="0" type="curve" smooth="yes"/>
      <point x="72" y="0" type="line"/>
    </contour>
    <contour>
      <point x="227" y="123" type="line"/>
      <point x="332" y="123" type="line" smooth="yes"/>
      <point x="414" y="123"/>
      <point x="476" y="177"/>
      <point x="476" y="282" type="curve" smooth="yes"/>
      <point x="476" y="404" type="line" smooth="yes"/>
      <point x="476" y="509"/>
      <point x="414" y="563"/>
      <point x="332" y="563" type="curve" smooth="yes"/>
      <point x="227" y="563" type="line"/>
    </contour>
  </outline>
</glyph>
<glyph name="dcaron" format="1">
  <advance width="595"/>
  <unicode hex="010F"/>
  <outline>
    <contour>
      <point x="414" y="0" type="line"/>
      <point x="399" y="64" type="line"/>
      <point x="367" y="22"/>
      <point x="322" y="-10"/>
      <point x="255" y="-10" type="curve" smooth="yes"/>
      <point x="138" y="-10"/>
      <point x="43" y="73"/>
      <point x="43" y="253" type="curve" smooth="yes"/>
      <point x="43" y="264" type="line" smooth="yes"/>
      <point x="43" y="435"/>
      <point x="131" y="521"/>
      <point x="240" y="521" type="curve" smooth="yes"/>
      <point x="310" y="521"/>
      <point x="358" y="485"/>
      <point x="383" y="452" type="curve"/>
      <point x="383" y="720" type="line"/>
      <point x="529" y="720" type="line"/>
      <point x="529" y="0" type="line"/>
    </contour>
    <contour>
      <point x="688" y="395" type="line"/>
      <point x="615" y="395" type="line"/>
      <point x="625" y="443"/>
      <point x="636" y="491"/>
      <point x="647" y="539" type="curve"/>
      <point x="584" y="539" type="line"/>
      <point x="584" y="686" type="line"/>
      <point x="730" y="686" type="line"/>
      <point x="730" y="563" type="line"/>
    </contour>
    <contour>
      <point x="191" y="294" type="curve" smooth="yes"/>
      <point x="191" y="211" type="line" smooth="yes"/>
      <point x="191" y="130"/>
      <point x="233" y="90"/>
      <point x="287" y="90" type="curve" smooth="yes"/>
      <point x="341" y="90"/>
      <point x="383" y="130"/>
      <point x="383" y="211" type="curve" smooth="yes"/>
      <point x="383" y="294" type="line" smooth="yes"/>
      <point x="383" y="375"/>
      <point x="341" y="415"/>
      <point x="287" y="415" type="curve" smooth="yes"/>
      <point x="233" y="415"/>
      <point x="191" y="375"/>
    </contour>
  </outline>
</glyph>
<glyph name="Edotaccent" format="1">
  <advance width="598"/>
  <unicode hex="0116"/>
  <outline>
    <contour>
      <point x="365" y="845" type="curve" smooth="yes"/>
      <point x="365" y="807"/>
      <point x="335" y="779"/>
      <point x="298" y="779" type="curve" smooth="yes"/>
      <point x="263" y="779"/>
      <point x="233" y="809"/>
      <point x="233" y="845" type="curve" smooth="yes"/>
      <point x="233" y="882"/>
      <point x="262" y="911"/>
      <point x="299" y="911" type="curve" smooth="yes"/>
      <point x="336" y="911"/>
      <point x="365" y="881"/>
    </contour>
    <contour>
      <point x="72" y="686" type="line"/>
      <point x="555" y="686" type="line"/>
      <point x="538" y="563" type="line"/>
      <point x="224" y="563" type="line"/>
      <point x="224" y="413" type="line"/>
      <point x="517" y="413" type="line"/>
      <point x="517" y="290" type="line"/>
      <point x="224" y="290" type="line"/>
      <point x="224" y="123" type="line"/>
      <point x="541" y="123" type="line"/>
      <point x="558" y="0" type="line"/>
      <point x="72" y="0" type="line"/>
    </contour>
    <contour>
      <point x="299" y="0" type="move" name="Bottom"/>
    </contour>
  </outline>
</glyph>
<glyph name="Eogonek" format="1">
  <advance width="598"/>
  <unicode hex="0118"/>
  <outline>
    <contour>
      <point x="592" y="-79" type="curve"/>
      <point x="605" y="-119" type="line"/>
      <point x="576" y="-135"/>
      <point x="542" y="-143"/>
      <point x="509" y="-143" type="curve" smooth="yes"/>
      <point x="463" y="-143"/>
      <point x="412" y="-126"/>
      <point x="412" y="-71" type="curve" smooth="yes"/>
      <point x="412" y="-39"/>
      <point x="442" y="-16"/>
      <point x="466" y="0" type="curve"/>
      <point x="72" y="0" type="line"/>
      <point x="72" y="686" type="line"/>
      <point x="555" y="686" type="line"/>
      <point x="538" y="563" type="line"/>
      <point x="224" y="563" type="line"/>
      <point x="224" y="413" type="line"/>
      <point x="517" y="413" type="line"/>
      <point x="517" y="290" type="line"/>
      <point x="224" y="290" type="line"/>
      <point x="224" y="123" type="line"/>
      <point x="541" y="123" type="line"/>
      <point x="558" y="0" type="line"/>
      <point x="528" y="0" type="line"/>
      <point x="508" y="-11"/>
      <point x="481" y="-32"/>
      <point x="481" y="-57" type="curve" smooth="yes"/>
      <point x="481" y="-85"/>
      <point x="504" y="-93"/>
      <point x="525" y="-93" type="curve" smooth="yes"/>
      <point x="549" y="-93"/>
      <point x="571" y="-87"/>
    </contour>
    <contour>
      <point x="299" y="0" type="move" name="Bottom"/>
    </contour>
  </outline>
</glyph>
<glyph name="eogonek" format="1">
  <advance width="584"/>
  <unicode hex="0119"/>
  <outline>
    <contour>
      <point x="191" y="231" type="line"/>
      <point x="191" y="207" type="line" smooth="yes"/>
      <point x="191" y="142"/>
      <point x="231" y="90"/>
      <point x="301" y="90" type="curve" smooth="yes"/>
      <point x="361" y="90"/>
      <point x="400" y="123"/>
      <point x="400" y="191" type="curve"/>
      <point x="540" y="191" type="line"/>
      <point x="540" y="83"/>
      <point x="473" y="22"/>
      <point x="389" y="0" type="curve"/>
      <point x="396" y="0" type="line"/>
      <point x="376" y="-11"/>
      <point x="349" y="-32"/>
      <point x="349" y="-57" type="curve" smooth="yes"/>
      <point x="349" y="-85"/>
      <point x="372" y="-93"/>
      <point x="393" y="-93" type="curve" smooth="yes"/>
      <point x="417" y="-93"/>
      <point x="439" y="-87"/>
      <point x="460" y="-79" type="curve"/>
      <point x="473" y="-119" type="line"/>
      <point x="444" y="-135"/>
      <point x="410" y="-143"/>
      <point x="377" y="-143" type="curve" smooth="yes"/>
      <point x="331" y="-143"/>
      <point x="280" y="-126"/>
      <point x="280" y="-71" type="curve" smooth="yes"/>
      <point x="280" y="-45"/>
      <point x="300" y="-25"/>
      <point x="320" y="-10" type="curve"/>
      <point x="309" y="-10" type="line"/>
      <point x="293" y="-10" type="line" smooth="yes"/>
      <point x="151" y="-10"/>
      <point x="43" y="82"/>
      <point x="43" y="241" type="curve" smooth="yes"/>
      <point x="43" y="270" type="line" smooth="yes"/>
      <point x="43" y="429"/>
      <point x="153" y="521"/>
      <point x="293" y="521" type="curve" smooth="yes"/>
      <point x="309" y="521" type="line" smooth="yes"/>
      <point x="431" y="521"/>
      <point x="541" y="444"/>
      <point x="541" y="307" type="curve" smooth="yes"/>
      <point x="541" y="231" type="line"/>
    </contour>
    <contour>
      <point x="294" y="421" type="curve" smooth="yes"/>
      <point x="234" y="421"/>
      <point x="196" y="373"/>
      <point x="191" y="311" type="curve"/>
      <point x="393" y="311" type="line"/>
      <point x="393" y="374"/>
      <point x="367" y="421"/>
    </contour>
    <contour>
      <point x="292" y="0" type="move" name="Bottom"/>
    </contour>
  </outline>
</glyph>
<glyph name="Ecaron" format="1">
  <advance width="598"/>
  <unicode hex="011A"/>
  <outline>
    <contour>
      <point x="215" y="895" type="line"/>
      <point x="300" y="812" type="line"/>
      <point x="384" y="895" type="line"/>
      <point x="488" y="895" type="line"/>
      <point x="442" y="847"/>
      <point x="396" y="798"/>
      <point x="351" y="750" type="curve"/>
      <point x="248" y="750" type="line"/>
      <point x="110" y="895" type="line"/>
    </contour>
    <contour>
      <point x="72" y="686" type="line"/>
      <point x="555" y="686" type="line"/>
      <point x="538" y="563" type="line"/>
      <point x="224" y="563" type="line"/>
      <point x="224" y="413" type="line"/>
      <point x="517" y="413" type="line"/>
      <point x="517" y="290" type="line"/>
      <point x="224" y="290" type="line"/>
      <point x="224" y="123" type="line"/>
      <point x="541" y="123" type="line"/>
      <point x="558" y="0" type="line"/>
      <point x="72" y="0" type="line"/>
    </contour>
    <contour>
      <point x="299" y="0" type="move" name="Bottom"/>
    </contour>
  </outline>
</glyph>
<glyph name="ecaron" format="1">
  <advance width="584"/>
  <unicode hex="011B"/>
  <outline>
    <contour>
      <point x="208" y="720" type="line"/>
      <point x="293" y="637" type="line"/>
      <point x="377" y="720" type="line"/>
      <point x="481" y="720" type="line"/>
      <point x="435" y="672"/>
      <point x="389" y="623"/>
      <point x="344" y="575" type="curve"/>
      <point x="241" y="575" type="line"/>
      <point x="103" y="720" type="line"/>
    </contour>
    <contour>
      <point x="400" y="191" type="curve"/>
      <point x="540" y="191" type="line"/>
      <point x="540" y="50"/>
      <point x="427" y="-10"/>
      <point x="309" y="-10" type="curve" smooth="yes"/>
      <point x="293" y="-10" type="line" smooth="yes"/>
      <point x="151" y="-10"/>
      <point x="43" y="82"/>
      <point x="43" y="241" type="curve" smooth="yes"/>
      <point x="43" y="270" type="line" smooth="yes"/>
      <point x="43" y="429"/>
      <point x="153" y="521"/>
      <point x="293" y="521" type="curve" smooth="yes"/>
      <point x="309" y="521" type="line" smooth="yes"/>
      <point x="431" y="521"/>
      <point x="541" y="444"/>
      <point x="541" y="307" type="curve" smooth="yes"/>
      <point x="541" y="231" type="line"/>
      <point x="191" y="231" type="line"/>
      <point x="191" y="207" type="line" smooth="yes"/>
      <point x="191" y="142"/>
      <point x="231" y="90"/>
      <point x="301" y="90" type="curve" smooth="yes"/>
      <point x="361" y="90"/>
      <point x="400" y="123"/>
    </contour>
    <contour>
      <point x="294" y="421" type="curve" smooth="yes"/>
      <point x="234" y="421"/>
      <point x="196" y="373"/>
      <point x="191" y="311" type="curve"/>
      <point x="393" y="311" type="line"/>
      <point x="393" y="374"/>
      <point x="367" y="421"/>
    </contour>
    <contour>
      <point x="292" y="0" type="move" name="Bottom"/>
    </contour>
  </outline>
</glyph>
<glyph name="Gcommaaccent" format="1">
  <advance width="699"/>
  <unicode hex="0122"/>
  <outline>
    <contour>
      <point x="210" y="414" type="curve" smooth="yes"/>
      <point x="210" y="272" type="line" smooth="yes"/>
      <point x="210" y="167"/>
      <point x="276" y="113"/>
      <point x="356" y="113" type="curve" smooth="yes"/>
      <point x="436" y="113"/>
      <point x="488" y="159"/>
      <point x="488" y="261" type="curve"/>
      <point x="333" y="261" type="line"/>
      <point x="333" y="373" type="line"/>
      <point x="633" y="373" type="line"/>
      <point x="633" y="136" type="line" smooth="yes"/>
      <point x="633" y="56"/>
      <point x="639" y="0"/>
      <point x="639" y="0" type="curve"/>
      <point x="554" y="0" type="line"/>
      <point x="548" y="16"/>
      <point x="539" y="42"/>
      <point x="530" y="77" type="curve"/>
      <point x="487" y="23"/>
      <point x="415" y="-10"/>
      <point x="337" y="-10" type="curve" smooth="yes"/>
      <point x="332" y="-10" type="line" smooth="yes"/>
      <point x="167" y="-10"/>
      <point x="48" y="107"/>
      <point x="48" y="294" type="curve" smooth="yes"/>
      <point x="48" y="392" type="line" smooth="yes"/>
      <point x="48" y="579"/>
      <point x="173" y="696"/>
      <point x="348" y="696" type="curve" smooth="yes"/>
      <point x="362" y="696" type="line" smooth="yes"/>
      <point x="512" y="696"/>
      <point x="633" y="597"/>
      <point x="633" y="442" type="curve"/>
      <point x="487" y="442" type="line"/>
      <point x="487" y="534"/>
      <point x="425" y="573"/>
      <point x="353" y="573" type="curve" smooth="yes"/>
      <point x="272" y="573"/>
      <point x="210" y="519"/>
    </contour>
    <contour>
      <point x="346" y="-167" type="line"/>
      <point x="283" y="-167" type="line"/>
      <point x="283" y="-30" type="line"/>
      <point x="429" y="-30" type="line"/>
      <point x="429" y="-143" type="line"/>
      <point x="404" y="-250" type="line"/>
      <point x="330" y="-250" type="line"/>
    </contour>
    <contour>
      <point x="350" y="0" type="move" name="Bottom"/>
    </contour>
  </outline>
</glyph>
<glyph name="Imacron" format="1">
  <advance width="461"/>
  <unicode hex="012A"/>
  <outline>
    <contour>
      <point x="72" y="911" type="line"/>
      <point x="390" y="911" type="line"/>
      <point x="390" y="837" type="line"/>
      <point x="72" y="837" type="line"/>
    </contour>
    <contour>
      <point x="388" y="686" type="line"/>
      <point x="388" y="563" type="line"/>
      <point x="308" y="563" type="line"/>
      <point x="308" y="123" type="line"/>
      <point x="388" y="123" type="line"/>
      <point x="388" y="0" type="line"/>
      <point x="72" y="0" type="line"/>
      <point x="72" y="123" type="line"/>
      <point x="153" y="123" type="line"/>
      <point x="153" y="563" type="line"/>
      <point x="72" y="563" type="line"/>
      <point x="72" y="686" type="line"/>
    </contour>
  </outline>
</glyph>
<glyph name="imacron" format="1">
  <advance width="278"/>
  <unicode hex="012B"/>
  <outline>
    <contour>
      <point x="-20" y="736" type="line"/>
      <point x="298" y="736" type="line"/>
      <point x="298" y="662" type="line"/>
      <point x="-20" y="662" type="line"/>
    </contour>
    <contour>
      <point x="66" y="511" type="line"/>
      <point x="212" y="511" type="line"/>
      <point x="212" y="0" type="line"/>
      <point x="66" y="0" type="line"/>
    </contour>
  </outline>
</glyph>
<glyph name="Iogonek" format="1">
  <advance width="461"/>
  <unicode hex="012E"/>
  <outline>
    <contour>
      <point x="429" y="-79" type="curve"/>
      <point x="442" y="-119" type="line"/>
      <point x="413" y="-135"/>
      <point x="379" y="-143"/>
      <point x="346" y="-143" type="curve" smooth="yes"/>
      <point x="300" y="-143"/>
      <point x="249" y="-126"/>
      <point x="249" y="-71" type="curve" smooth="yes"/>
      <point x="249" y="-39"/>
      <point x="279" y="-16"/>
      <point x="303" y="0" type="curve"/>
      <point x="72" y="0" type="line"/>
      <point x="72" y="123" type="line"/>
      <point x="153" y="123" type="line"/>
      <point x="153" y="563" type="line"/>
      <point x="72" y="563" type="line"/>
      <point x="72" y="686" type="line"/>
      <point x="388" y="686" type="line"/>
      <point x="388" y="563" type="line"/>
      <point x="308" y="563" type="line"/>
      <point x="308" y="123" type="line"/>
      <point x="388" y="123" type="line"/>
      <point x="388" y="0" type="line"/>
      <point x="365" y="0" type="line"/>
      <point x="345" y="-11"/>
      <point x="318" y="-32"/>
      <point x="318" y="-57" type="curve" smooth="yes"/>
      <point x="318" y="-85"/>
      <point x="341" y="-93"/>
      <point x="362" y="-93" type="curve" smooth="yes"/>
      <point x="386" y="-93"/>
      <point x="408" y="-87"/>
    </contour>
  </outline>
</glyph>
<glyph name="iogonek" format="1">
  <advance width="278"/>
  <unicode hex="012F"/>
  <outline>
    <contour>
      <point x="213" y="605" type="line"/>
      <point x="65" y="605" type="line"/>
      <point x="65" y="720" type="line"/>
      <point x="213" y="720" type="line"/>
    </contour>
    <contour>
      <point x="264" y="-79" type="curve"/>
      <point x="277" y="-119" type="line"/>
      <point x="248" y="-135"/>
      <point x="214" y="-143"/>
      <point x="181" y="-143" type="curve" smooth="yes"/>
      <point x="135" y="-143"/>
      <point x="84" y="-126"/>
      <point x="84" y="-71" type="curve" smooth="yes"/>
      <point x="84" y="-39"/>
      <point x="114" y="-16"/>
      <point x="138" y="0" type="curve"/>
      <point x="66" y="0" type="line"/>
      <point x="66" y="511" type="line"/>
      <point x="212" y="511" type="line"/>
      <point x="212" y="0" type="line"/>
      <point x="200" y="0" type="line"/>
      <point x="180" y="-11"/>
      <point x="153" y="-32"/>
      <point x="153" y="-57" type="curve" smooth="yes"/>
      <point x="153" y="-85"/>
      <point x="176" y="-93"/>
      <point x="197" y="-93" type="curve" smooth="yes"/>
      <point x="221" y="-93"/>
      <point x="243" y="-87"/>
    </contour>
  </outline>
</glyph>
<glyph name="Idotaccent" format="1">
  <advance width="461"/>
  <unicode hex="0130"/>
  <outline>
    <contour>
      <point x="297" y="845" type="curve" smooth="yes"/>
      <point x="297" y="807"/>
      <point x="267" y="779"/>
      <point x="230" y="779" type="curve" smooth="yes"/>
      <point x="195" y="779"/>
      <point x="165" y="809"/>
      <point x="165" y="845" type="curve" smooth="yes"/>
      <point x="165" y="882"/>
      <point x="194" y="911"/>
      <point x="231" y="911" type="curve" smooth="yes"/>
      <point x="268" y="911"/>
      <point x="297" y="881"/>
    </contour>
    <contour>
      <point x="388" y="686" type="line"/>
      <point x="388" y="563" type="line"/>
      <point x="308" y="563" type="line"/>
      <point x="308" y="123" type="line"/>
      <point x="388" y="123" type="line"/>
      <point x="388" y="0" type="line"/>
      <point x="72" y="0" type="line"/>
      <point x="72" y="123" type="line"/>
      <point x="153" y="123" type="line"/>
      <point x="153" y="563" type="line"/>
      <point x="72" y="563" type="line"/>
      <point x="72" y="686" type="line"/>
    </contour>
  </outline>
</glyph>
<glyph name="Kcommaaccent" format="1">
  <advance width="660"/>
  <unicode hex="0136"/>
  <outline>
    <contour>
      <point x="223" y="686" type="line"/>
      <point x="223" y="372" type="line"/>
      <point x="305" y="476"/>
      <point x="388" y="581"/>
      <point x="470" y="686" type="curve"/>
      <point x="643" y="686" type="line"/>
      <point x="566" y="589"/>
      <point x="489" y="493"/>
      <point x="412" y="397" type="curve"/>
      <point x="492" y="264"/>
      <point x="570" y="132"/>
      <point x="650" y="0" type="curve"/>
      <point x="475" y="0" type="line"/>
      <point x="312" y="278" type="line"/>
      <point x="223" y="179" type="line"/>
      <point x="223" y="0" type="line"/>
      <point x="72" y="0" type="line"/>
      <point x="72" y="686" type="line"/>
    </contour>
    <contour>
      <point x="326" y="-167" type="line"/>
      <point x="263" y="-167" type="line"/>
      <point x="263" y="-30" type="line"/>
      <point x="409" y="-30" type="line"/>
      <point x="409" y="-143" type="line"/>
      <point x="384" y="-250" type="line"/>
      <point x="310" y="-250" type="line"/>
    </contour>
    <contour>
      <point x="330" y="0" type="move" name="Bottom"/>
    </contour>
  </outline>
</glyph>
<glyph name="kcommaaccent" format="1">
  <advance width="562"/>
  <unicode hex="0137"/>
  <outline>
    <contour>
      <point x="269" y="167" type="line"/>
      <point x="212" y="112" type="line"/>
      <point x="212" y="0" type="line"/>
      <point x="66" y="0" type="line"/>
      <point x="66" y="720" type="line"/>
      <point x="212" y="720" type="line"/>
      <point x="212" y="273" type="line"/>
      <point x="391" y="511" type="line"/>
      <point x="556" y="511" type="line"/>
      <point x="368" y="271" type="line"/>
      <point x="564" y="0" type="line"/>
      <point x="390" y="0" type="line"/>
    </contour>
    <contour>
      <point x="277" y="-167" type="line"/>
      <point x="214" y="-167" type="line"/>
      <point x="214" y="-30" type="line"/>
      <point x="360" y="-30" type="line"/>
      <point x="360" y="-143" type="line"/>
      <point x="335" y="-250" type="line"/>
      <point x="261" y="-250" type="line"/>
    </contour>
    <contour>
      <point x="281" y="0" type="move" name="Bottom"/>
    </contour>
  </outline>
</glyph>
<glyph name="Lacute" format="1">
  <advance width="533"/>
  <unicode hex="0139"/>
  <outline>
    <contour>
      <point x="188" y="895" type="line"/>
      <point x="317" y="895" type="line"/>
      <point x="318" y="892" type="line"/>
      <point x="197" y="750" type="line"/>
      <point x="96" y="750" type="line"/>
    </contour>
    <contour>
      <point x="72" y="686" type="line"/>
      <point x="227" y="686" type="line"/>
      <point x="227" y="128" type="line"/>
      <point x="509" y="128" type="line"/>
      <point x="526" y="0" type="line"/>
      <point x="72" y="0" type="line"/>
    </contour>
    <contour>
      <point x="267" y="0" type="move" name="Bottom"/>
    </contour>
  </outline>
</glyph>
<glyph name="lacute" format="1">
  <advance width="279"/>
  <unicode hex="013A"/>
  <outline>
    <contour>
      <point x="151" y="895" type="line"/>
      <point x="280" y="895" type="line"/>
      <point x="281" y="892" type="line"/>
      <point x="160" y="750" type="line"/>
      <point x="59" y="750" type="line"/>
    </contour>
    <contour>
      <point x="66" y="720" type="line"/>
      <point x="212" y="720" type="line"/>
      <point x="212" y="0" type="line"/>
      <point x="66" y="0" type="line"/>
    </contour>
    <contour>
      <point x="140" y="0" type="move" name="Bottom"/>
    </contour>
  </outline>
</glyph>
<glyph name="Lcommaaccent" format="1">
  <advance width="533"/>
  <unicode hex="013B"/>
  <outline>
    <contour>
      <point x="72" y="686" type="line"/>
      <point x="227" y="686" type="line"/>
      <point x="227" y="128" type="line"/>
      <point x="509" y="128" type="line"/>
      <point x="526" y="0" type="line"/>
      <point x="72" y="0" type="line"/>
    </contour>
    <contour>
      <point x="263" y="-167" type="line"/>
      <point x="200" y="-167" type="line"/>
      <point x="200" y="-30" type="line"/>
      <point x="346" y="-30" type="line"/>
      <point x="346" y="-143" type="line"/>
      <point x="321" y="-250" type="line"/>
      <point x="247" y="-250" type="line"/>
    </contour>
    <contour>
      <point x="267" y="0" type="move" name="Bottom"/>
    </contour>
  </outline>
</glyph>
<glyph name="lcommaaccent" format="1">
  <advance width="279"/>
  <unicode hex="013C"/>
  <outline>
    <contour>
      <point x="66" y="720" type="line"/>
      <point x="212" y="720" type="line"/>
      <point x="212" y="0" type="line"/>
      <point x="66" y="0" type="line"/>
    </contour>
    <contour>
      <point x="136" y="-167" type="line"/>
      <point x="73" y="-167" type="line"/>
      <point x="73" y="-30" type="line"/>
      <point x="219" y="-30" type="line"/>
      <point x="219" y="-143" type="line"/>
      <point x="194" y="-250" type="line"/>
      <point x="120" y="-250" type="line"/>
    </contour>
    <contour>
      <point x="140" y="0" type="move" name="Bottom"/>
    </contour>
  </outline>
</glyph>
<glyph name="Lcaron" format="1">
  <advance width="533"/>
  <unicode hex="013D"/>
  <outline>
    <contour>
      <point x="72" y="686" type="line"/>
      <point x="227" y="686" type="line"/>
      <point x="227" y="128" type="line"/>
      <point x="509" y="128" type="line"/>
      <point x="526" y="0" type="line"/>
      <point x="72" y="0" type="line"/>
    </contour>
    <contour>
      <point x="456" y="395" type="line"/>
      <point x="383" y="395" type="line"/>
      <point x="393" y="443"/>
      <point x="404" y="491"/>
      <point x="415" y="539" type="curve"/>
      <point x="352" y="539" type="line"/>
      <point x="352" y="686" type="line"/>
      <point x="498" y="686" type="line"/>
      <point x="498" y="563" type="line"/>
    </contour>
    <contour>
      <point x="267" y="0" type="move" name="Bottom"/>
    </contour>
  </outline>
</glyph>
<glyph name="lcaron" format="1">
  <advance width="279"/>
  <unicode hex="013E"/>
  <outline>
    <contour>
      <point x="66" y="720" type="line"/>
      <point x="212" y="720" type="line"/>
      <point x="212" y="0" type="line"/>
      <point x="66" y="0" type="line"/>
    </contour>
    <contour>
      <point x="362" y="395" type="line"/>
      <point x="289" y="395" type="line"/>
      <point x="299" y="443"/>
      <point x="310" y="491"/>
      <point x="321" y="539" type="curve"/>
      <point x="258" y="539" type="line"/>
      <point x="258" y="686" type="line"/>
      <point x="404" y="686" type="line"/>
      <point x="404" y="563" type="line"/>
    </contour>
    <contour>
      <point x="140" y="0" type="move" name="Bottom"/>
    </contour>
  </outline>
</glyph>
<glyph name="Lslash" format="1">
  <advance width="546"/>
  <unicode hex="0141"/>
  <outline>
    <contour>
      <point x="8" y="274" type="curve"/>
      <point x="8" y="362" type="line"/>
      <point x="30" y="372"/>
      <point x="51" y="383"/>
      <point x="72" y="394" type="curve"/>
      <point x="72" y="686" type="line"/>
      <point x="227" y="686" type="line"/>
      <point x="227" y="472" type="line"/>
      <point x="342" y="530" type="line"/>
      <point x="342" y="442" type="line"/>
      <point x="227" y="384" type="line"/>
      <point x="227" y="128" type="line"/>
      <point x="504" y="128" type="line"/>
      <point x="512" y="85"/>
      <point x="519" y="43"/>
      <point x="526" y="0" type="curve"/>
      <point x="72" y="0" type="line"/>
      <point x="72" y="306" type="line"/>
      <point x="51" y="295"/>
      <point x="30" y="284"/>
    </contour>
  </outline>
</glyph>
<glyph name="lslash" format="1">
  <advance width="279"/>
  <unicode hex="0142"/>
  <outline>
    <contour>
      <point x="-4" y="268" type="curve"/>
      <point x="-4" y="355" type="line"/>
      <point x="19" y="367"/>
      <point x="42" y="378"/>
      <point x="66" y="390" type="curve"/>
      <point x="66" y="720" type="line"/>
      <point x="212" y="720" type="line"/>
      <point x="212" y="464" type="line"/>
      <point x="283" y="500" type="line"/>
      <point x="283" y="412" type="line"/>
      <point x="212" y="377" type="line"/>
      <point x="212" y="0" type="line"/>
      <point x="66" y="0" type="line"/>
      <point x="66" y="303" type="line"/>
      <point x="42" y="291"/>
      <point x="19" y="280"/>
    </contour>
  </outline>
</glyph>
<glyph name="nacute" format="1">
  <advance width="597"/>
  <unicode hex="0144"/>
  <outline>
    <contour>
      <point x="310" y="720" type="line"/>
      <point x="439" y="720" type="line"/>
      <point x="440" y="717" type="line"/>
      <point x="319" y="575" type="line"/>
      <point x="218" y="575" type="line"/>
    </contour>
    <contour>
      <point x="175" y="511" type="line"/>
      <point x="191" y="436" type="line"/>
      <point x="223" y="479"/>
      <point x="275" y="521"/>
      <point x="354" y="521" type="curve" smooth="yes"/>
      <point x="452" y="521"/>
      <point x="533" y="468"/>
      <point x="533" y="357" type="curve" smooth="yes"/>
      <point x="533" y="0" type="line"/>
      <point x="387" y="0" type="line"/>
      <point x="387" y="325" type="line" smooth="yes"/>
      <point x="387" y="377"/>
      <point x="354" y="415"/>
      <point x="307" y="415" type="curve" smooth="yes"/>
      <point x="256" y="415"/>
      <point x="212" y="371"/>
      <point x="212" y="314" type="curve" smooth="yes"/>
      <point x="212" y="0" type="line"/>
      <point x="66" y="0" type="line"/>
      <point x="66" y="511" type="line"/>
    </contour>
    <contour>
      <point x="299" y="0" type="move" name="Bottom"/>
    </contour>
  </outline>
</glyph>
<glyph name="Ncommaaccent" format="1">
  <advance width="691"/>
  <unicode hex="0145"/>
  <outline>
    <contour>
      <point x="487" y="0" type="line"/>
      <point x="272" y="316" type="line" smooth="yes"/>
      <point x="254" y="342"/>
      <point x="217" y="405"/>
      <point x="217" y="405" type="curve"/>
      <point x="213" y="402" type="line"/>
      <point x="213" y="0" type="line"/>
      <point x="72" y="0" type="line"/>
      <point x="72" y="686" type="line"/>
      <point x="203" y="686" type="line"/>
      <point x="419" y="368" type="line" smooth="yes"/>
      <point x="438" y="340"/>
      <point x="455" y="309"/>
      <point x="474" y="280" type="curve"/>
      <point x="477" y="283" type="line"/>
      <point x="477" y="686" type="line"/>
      <point x="618" y="686" type="line"/>
      <point x="618" y="0" type="line"/>
    </contour>
    <contour>
      <point x="342" y="-167" type="line"/>
      <point x="279" y="-167" type="line"/>
      <point x="279" y="-30" type="line"/>
      <point x="425" y="-30" type="line"/>
      <point x="425" y="-143" type="line"/>
      <point x="400" y="-250" type="line"/>
      <point x="326" y="-250" type="line"/>
    </contour>
    <contour>
      <point x="346" y="0" type="move" name="Bottom"/>
    </contour>
  </outline>
</glyph>
<glyph name="Ncaron" format="1">
  <advance width="691"/>
  <unicode hex="0147"/>
  <outline>
    <contour>
      <point x="262" y="895" type="line"/>
      <point x="347" y="812" type="line"/>
      <point x="431" y="895" type="line"/>
      <point x="535" y="895" type="line"/>
      <point x="489" y="847"/>
      <point x="443" y="798"/>
      <point x="398" y="750" type="curve"/>
      <point x="295" y="750" type="line"/>
      <point x="157" y="895" type="line"/>
    </contour>
    <contour>
      <point x="487" y="0" type="line"/>
      <point x="272" y="316" type="line" smooth="yes"/>
      <point x="254" y="342"/>
      <point x="217" y="405"/>
      <point x="217" y="405" type="curve"/>
      <point x="213" y="402" type="line"/>
      <point x="213" y="0" type="line"/>
      <point x="72" y="0" type="line"/>
      <point x="72" y="686" type="line"/>
      <point x="203" y="686" type="line"/>
      <point x="419" y="368" type="line" smooth="yes"/>
      <point x="438" y="340"/>
      <point x="455" y="309"/>
      <point x="474" y="280" type="curve"/>
      <point x="477" y="283" type="line"/>
      <point x="477" y="686" type="line"/>
      <point x="618" y="686" type="line"/>
      <point x="618" y="0" type="line"/>
    </contour>
    <contour>
      <point x="346" y="0" type="move" name="Bottom"/>
    </contour>
  </outline>
</glyph>
<glyph name="Omacron" format="1">
  <advance width="708"/>
  <unicode hex="014C"/>
  <outline>
    <contour>
      <point x="195" y="911" type="line"/>
      <point x="513" y="911" type="line"/>
      <point x="513" y="837" type="line"/>
      <point x="195" y="837" type="line"/>
    </contour>
    <contour>
      <point x="660" y="392" type="curve" smooth="yes"/>
      <point x="660" y="294" type="line" smooth="yes"/>
      <point x="660" y="99"/>
      <point x="521" y="-10"/>
      <point x="354" y="-10" type="curve" smooth="yes"/>
      <point x="187" y="-10"/>
      <point x="48" y="99"/>
      <point x="48" y="294" type="curve" smooth="yes"/>
      <point x="48" y="392" type="line" smooth="yes"/>
      <point x="48" y="587"/>
      <point x="187" y="696"/>
      <point x="354" y="696" type="curve" smooth="yes"/>
      <point x="521" y="696"/>
      <point x="660" y="587"/>
    </contour>
    <contour>
      <point x="498" y="272" type="curve" smooth="yes"/>
      <point x="498" y="414" type="line" smooth="yes"/>
      <point x="498" y="519"/>
      <point x="436" y="573"/>
      <point x="354" y="573" type="curve" smooth="yes"/>
      <point x="272" y="573"/>
      <point x="210" y="519"/>
      <point x="210" y="414" type="curve" smooth="yes"/>
      <point x="210" y="272" type="line" smooth="yes"/>
      <point x="210" y="167"/>
      <point x="272" y="113"/>
      <point x="354" y="113" type="curve" smooth="yes"/>
      <point x="436" y="113"/>
      <point x="498" y="167"/>
    </contour>
  </outline>
</glyph>
<glyph name="OE" format="1">
  <advance width="1024"/>
  <unicode hex="0152"/>
  <outline>
    <contour>
      <point x="498" y="0" type="line"/>
      <point x="498" y="29" type="line"/>
      <point x="453" y="-1"/>
      <point x="399" y="-10"/>
      <point x="340" y="-10" type="curve" smooth="yes"/>
      <point x="178" y="-10"/>
      <point x="48" y="107"/>
      <point x="48" y="294" type="curve" smooth="yes"/>
      <point x="48" y="391" type="line" smooth="yes"/>
      <point x="48" y="578"/>
      <point x="178" y="695"/>
      <point x="340" y="695" type="curve" smooth="yes"/>
      <point x="400" y="695"/>
      <point x="453" y="684"/>
      <point x="499" y="657" type="curve"/>
      <point x="499" y="686" type="line"/>
      <point x="976" y="686" type="line"/>
      <point x="949" y="562" type="line"/>
      <point x="652" y="562" type="line"/>
      <point x="652" y="407" type="line"/>
      <point x="928" y="407" type="line"/>
      <point x="928" y="286" type="line"/>
      <point x="652" y="286" type="line"/>
      <point x="652" y="123" type="line"/>
      <point x="962" y="123" type="line"/>
      <point x="970" y="82"/>
      <point x="977" y="41"/>
      <point x="984" y="0" type="curve"/>
    </contour>
    <contour>
      <point x="498" y="272" type="curve" smooth="yes"/>
      <point x="498" y="414" type="line" smooth="yes"/>
      <point x="498" y="519"/>
      <point x="436" y="573"/>
      <point x="354" y="573" type="curve" smooth="yes"/>
      <point x="272" y="573"/>
      <point x="210" y="519"/>
      <point x="210" y="414" type="curve" smooth="yes"/>
      <point x="210" y="272" type="line" smooth="yes"/>
      <point x="210" y="167"/>
      <point x="272" y="113"/>
      <point x="354" y="113" type="curve" smooth="yes"/>
      <point x="436" y="113"/>
      <point x="498" y="167"/>
    </contour>
  </outline>
</glyph>
<glyph name="oe" format="1">
  <advance width="946"/>
  <unicode hex="0153"/>
  <outline>
    <contour>
      <point x="293" y="521" type="curve" smooth="yes"/>
      <point x="309" y="521" type="line" smooth="yes"/>
      <point x="377" y="521"/>
      <point x="437" y="499"/>
      <point x="482" y="459" type="curve"/>
      <point x="526" y="499"/>
      <point x="587" y="521"/>
      <point x="655" y="521" type="curve" smooth="yes"/>
      <point x="671" y="521" type="line" smooth="yes"/>
      <point x="793" y="521"/>
      <point x="903" y="444"/>
      <point x="903" y="307" type="curve" smooth="yes"/>
      <point x="903" y="231" type="line"/>
      <point x="553" y="231" type="line"/>
      <point x="553" y="207" type="line" smooth="yes"/>
      <point x="553" y="142"/>
      <point x="593" y="90"/>
      <point x="663" y="90" type="curve" smooth="yes"/>
      <point x="723" y="90"/>
      <point x="762" y="123"/>
      <point x="762" y="191" type="curve"/>
      <point x="902" y="191" type="line"/>
      <point x="902" y="50"/>
      <point x="789" y="-10"/>
      <point x="671" y="-10" type="curve" smooth="yes"/>
      <point x="655" y="-10" type="line" smooth="yes"/>
      <point x="586" y="-10"/>
      <point x="526" y="11"/>
      <point x="482" y="51" type="curve"/>
      <point x="437" y="11"/>
      <point x="377" y="-10"/>
      <point x="309" y="-10" type="curve" smooth="yes"/>
      <point x="293" y="-10" type="line" smooth="yes"/>
      <point x="152" y="-10"/>
      <point x="43" y="82"/>
      <point x="43" y="241" type="curve" smooth="yes"/>
      <point x="43" y="270" type="line" smooth="yes"/>
      <point x="43" y="429"/>
      <point x="152" y="521"/>
    </contour>
    <contour>
      <point x="411" y="215" type="curve" smooth="yes"/>
      <point x="411" y="296" type="line" smooth="yes"/>
      <point x="411" y="380"/>
      <point x="363" y="421"/>
      <point x="301" y="421" type="curve" smooth="yes"/>
      <point x="239" y="421"/>
      <point x="191" y="380"/>
      <point x="191" y="296" type="curve" smooth="yes"/>
      <point x="191" y="215" type="line" smooth="yes"/>
      <point x="191" y="131"/>
      <point x="239" y="90"/>
      <point x="301" y="90" type="curve" smooth="yes"/>
      <point x="363" y="90"/>
      <point x="411" y="131"/>
    </contour>
    <contour>
      <point x="656" y="421" type="curve" smooth="yes"/>
      <point x="596" y="421"/>
      <point x="558" y="373"/>
      <point x="553" y="311" type="curve"/>
      <point x="755" y="311" type="line"/>
      <point x="755" y="374"/>
      <point x="729" y="421"/>
    </contour>
  </outline>
</glyph>
<glyph name="Rcaron" format="1">
  <advance width="665"/>
  <unicode hex="0158"/>
  <outline>
    <contour>
      <point x="249" y="895" type="line"/>
      <point x="334" y="812" type="line"/>
      <point x="418" y="895" type="line"/>
      <point x="522" y="895" type="line"/>
      <point x="476" y="847"/>
      <point x="430" y="798"/>
      <point x="385" y="750" type="curve"/>
      <point x="282" y="750" type="line"/>
      <point x="144" y="895" type="line"/>
    </contour>
    <contour>
      <point x="648" y="40" type="curve"/>
      <point x="648" y="6" type="line"/>
      <point x="625" y="-3"/>
      <point x="591" y="-7"/>
      <point x="562" y="-7" type="curve" smooth="yes"/>
      <point x="503" y="-7"/>
      <point x="447" y="17"/>
      <point x="447" y="102" type="curve" smooth="yes"/>
      <point x="447" y="202"/>
      <point x="429" y="284"/>
      <point x="340" y="284" type="curve" smooth="yes"/>
      <point x="224" y="284" type="line"/>
      <point x="224" y="0" type="line"/>
      <point x="72" y="0" type="line"/>
      <point x="72" y="686" type="line"/>
      <point x="379" y="686" type="line" smooth="yes"/>
      <point x="492" y="686"/>
      <point x="610" y="646"/>
      <point x="610" y="516" type="curve" smooth="yes"/>
      <point x="610" y="443"/>
      <point x="557" y="367"/>
      <point x="487" y="354" type="curve"/>
      <point x="487" y="349" type="line"/>
      <point x="536" y="333"/>
      <point x="597" y="279"/>
      <point x="597" y="166" type="curve" smooth="yes"/>
      <point x="597" y="122"/>
      <point x="603" y="54"/>
    </contour>
    <contour>
      <point x="224" y="405" type="line"/>
      <point x="374" y="405" type="line" smooth="yes"/>
      <point x="418" y="405"/>
      <point x="454" y="438"/>
      <point x="454" y="480" type="curve" smooth="yes"/>
      <point x="454" y="487" type="line" smooth="yes"/>
      <point x="454" y="530"/>
      <point x="421" y="563"/>
      <point x="374" y="563" type="curve" smooth="yes"/>
      <point x="224" y="563" type="line"/>
    </contour>
    <contour>
      <point x="333" y="0" type="move" name="Bottom"/>
    </contour>
  </outline>
</glyph>
<glyph name="rcaron" format="1">
  <advance width="489"/>
  <unicode hex="0159"/>
  <outline>
    <contour>
      <point x="81" y="720" type="line"/>
      <point x="166" y="637" type="line"/>
      <point x="250" y="720" type="line"/>
      <point x="354" y="720" type="line"/>
      <point x="308" y="672"/>
      <point x="262" y="623"/>
      <point x="217" y="575" type="curve"/>
      <point x="114" y="575" type="line"/>
      <point x="-24" y="720" type="line"/>
    </contour>
    <contour>
      <point x="353" y="313" type="line"/>
      <point x="353" y="336" type="line" smooth="yes"/>
      <point x="353" y="371"/>
      <point x="336" y="412"/>
      <point x="282" y="412" type="curve" smooth="yes"/>
      <point x="232" y="412"/>
      <point x="210" y="367"/>
      <point x="210" y="316" type="curve" smooth="yes"/>
      <point x="210" y="0" type="line"/>
      <point x="66" y="0" type="line"/>
      <point x="66" y="511" type="line"/>
      <point x="174" y="511" type="line"/>
      <point x="192" y="436" type="line"/>
      <point x="196" y="447"/>
      <point x="239" y="521"/>
      <point x="335" y="521" type="curve" smooth="yes"/>
      <point x="430" y="521"/>
      <point x="479" y="455"/>
      <point x="479" y="364" type="curve" smooth="yes"/>
      <point x="479" y="348"/>
      <point x="475" y="313"/>
      <point x="475" y="313" type="curve"/>
    </contour>
    <contour>
      <point x="138" y="0" type="move" name="Bottom"/>
    </contour>
  </outline>
</glyph>
<glyph name="Scaron" format="1">
  <advance width="635"/>
  <unicode hex="0160"/>
  <outline>
    <contour>
      <point x="234" y="895" type="line"/>
      <point x="319" y="812" type="line"/>
      <point x="403" y="895" type="line"/>
      <point x="507" y="895" type="line"/>
      <point x="461" y="847"/>
      <point x="415" y="798"/>
      <point x="370" y="750" type="curve"/>
      <point x="267" y="750" type="line"/>
      <point x="129" y="895" type="line"/>
    </contour>
    <contour>
      <point x="435" y="483" type="line"/>
      <point x="435" y="492" type="line" smooth="yes"/>
      <point x="435" y="542"/>
      <point x="393" y="573"/>
      <point x="322" y="573" type="curve" smooth="yes"/>
      <point x="248" y="573"/>
      <point x="206" y="547"/>
      <point x="206" y="509" type="curve" smooth="yes"/>
      <point x="206" y="379"/>
      <point x="595" y="466"/>
      <point x="595" y="216" type="curve" smooth="yes"/>
      <point x="595" y="53"/>
      <point x="478" y="-10"/>
      <point x="312" y="-10" type="curve" smooth="yes"/>
      <point x="165" y="-10"/>
      <point x="35" y="51"/>
      <point x="35" y="202" type="curve" smooth="yes"/>
      <point x="35" y="210"/>
      <point x="36" y="219"/>
      <point x="36" y="224" type="curve"/>
      <point x="182" y="224" type="line" smooth="yes"/>
      <point x="182" y="222"/>
      <point x="181" y="213"/>
      <point x="181" y="208" type="curve" smooth="yes"/>
      <point x="181" y="151"/>
      <point x="225" y="113"/>
      <point x="307" y="113" type="curve" smooth="yes"/>
      <point x="408" y="113"/>
      <point x="438" y="152"/>
      <point x="438" y="191" type="curve" smooth="yes"/>
      <point x="438" y="323"/>
      <point x="51" y="231"/>
      <point x="51" y="493" type="curve" smooth="yes"/>
      <point x="51" y="630"/>
      <point x="174" y="696"/>
      <point x="319" y="696" type="curve" smooth="yes"/>
      <point x="462" y="696"/>
      <point x="580" y="635"/>
      <point x="580" y="495" type="curve" smooth="yes"/>
      <point x="580" y="483" type="line"/>
    </contour>
  </outline>
</glyph>
<glyph name="Tcedilla" format="1">
  <advance width="557"/>
  <unicode hex="0162"/>
  <outline>
    <contour>
      <point x="355" y="0" type="line"/>
      <point x="202" y="0" type="line"/>
      <point x="202" y="562" type="line"/>
      <point x="7" y="562" type="line"/>
      <point x="7" y="686" type="line"/>
      <point x="549" y="686" type="line"/>
      <point x="549" y="562" type="line"/>
      <point x="355" y="562" type="line"/>
    </contour>
    <contour>
      <point x="165" y="-168" type="curve"/>
      <point x="186" y="-116" type="line"/>
      <point x="192" y="-119"/>
      <point x="222" y="-142"/>
      <point x="269" y="-142" type="curve" smooth="yes"/>
      <point x="296" y="-142"/>
      <point x="318" y="-131"/>
      <point x="318" y="-104" type="curve" smooth="yes"/>
      <point x="318" y="-81"/>
      <point x="301" y="-68"/>
      <point x="273" y="-68" type="curve" smooth="yes"/>
      <point x="253" y="-68" type="line"/>
      <point x="253" y="-17" type="line"/>
      <point x="276" y="-17" type="line" smooth="yes"/>
      <point x="333" y="-17"/>
      <point x="392" y="-34"/>
      <point x="392" y="-107" type="curve" smooth="yes"/>
      <point x="392" y="-182"/>
      <point x="317" y="-197"/>
      <point x="273" y="-197" type="curve" smooth="yes"/>
      <point x="236" y="-197"/>
      <point x="192" y="-187"/>
    </contour>
    <contour>
      <point x="279" y="0" type="move" name="Bottom"/>
    </contour>
  </outline>
</glyph>
<glyph name="tcedilla" format="1">
  <advance width="371"/>
  <unicode hex="0163"/>
  <outline>
    <contour>
      <point x="343" y="103" type="curve"/>
      <point x="343" y="9" type="line"/>
      <point x="316" y="-2"/>
      <point x="265" y="-10"/>
      <point x="233" y="-10" type="curve" smooth="yes"/>
      <point x="135" y="-10"/>
      <point x="78" y="27"/>
      <point x="78" y="133" type="curve" smooth="yes"/>
      <point x="78" y="411" type="line"/>
      <point x="22" y="411" type="line"/>
      <point x="22" y="511" type="line"/>
      <point x="83" y="511" type="line"/>
      <point x="134" y="674" type="line"/>
      <point x="224" y="674" type="line"/>
      <point x="224" y="511" type="line"/>
      <point x="343" y="511" type="line"/>
      <point x="343" y="411" type="line"/>
      <point x="224" y="411" type="line"/>
      <point x="224" y="158" type="line" smooth="yes"/>
      <point x="224" y="99"/>
      <point x="253" y="90"/>
      <point x="281" y="90" type="curve" smooth="yes"/>
      <point x="296" y="90"/>
      <point x="327" y="96"/>
    </contour>
    <contour>
      <point x="72" y="-168" type="curve"/>
      <point x="93" y="-116" type="line"/>
      <point x="99" y="-119"/>
      <point x="129" y="-142"/>
      <point x="176" y="-142" type="curve" smooth="yes"/>
      <point x="203" y="-142"/>
      <point x="225" y="-131"/>
      <point x="225" y="-104" type="curve" smooth="yes"/>
      <point x="225" y="-81"/>
      <point x="208" y="-68"/>
      <point x="180" y="-68" type="curve" smooth="yes"/>
      <point x="160" y="-68" type="line"/>
      <point x="160" y="-17" type="line"/>
      <point x="183" y="-17" type="line" smooth="yes"/>
      <point x="240" y="-17"/>
      <point x="299" y="-34"/>
      <point x="299" y="-107" type="curve" smooth="yes"/>
      <point x="299" y="-182"/>
      <point x="224" y="-197"/>
      <point x="180" y="-197" type="curve" smooth="yes"/>
      <point x="143" y="-197"/>
      <point x="99" y="-187"/>
    </contour>
    <contour>
      <point x="186" y="0" type="move" name="Bottom"/>
    </contour>
  </outline>
</glyph>
<glyph name="Tcaron" format="1">
  <advance width="557"/>
  <unicode hex="0164"/>
  <outline>
    <contour>
      <point x="195" y="895" type="line"/>
      <point x="280" y="812" type="line"/>
      <point x="364" y="895" type="line"/>
      <point x="468" y="895" type="line"/>
      <point x="422" y="847"/>
      <point x="376" y="798"/>
      <point x="331" y="750" type="curve"/>
      <point x="228" y="750" type="line"/>
      <point x="90" y="895" type="line"/>
    </contour>
    <contour>
      <point x="355" y="0" type="line"/>
      <point x="202" y="0" type="line"/>
      <point x="202" y="562" type="line"/>
      <point x="7" y="562" type="line"/>
      <point x="7" y="686" type="line"/>
      <point x="549" y="686" type="line"/>
      <point x="549" y="562" type="line"/>
      <point x="355" y="562" type="line"/>
    </contour>
    <contour>
      <point x="279" y="0" type="move" name="Bottom"/>
    </contour>
  </outline>
</glyph>
<glyph name="tcaron" format="1">
  <advance width="371"/>
  <unicode hex="0165"/>
  <outline>
    <contour>
      <point x="454" y="395" type="line"/>
      <point x="381" y="395" type="line"/>
      <point x="391" y="443"/>
      <point x="402" y="491"/>
      <point x="413" y="539" type="curve"/>
      <point x="350" y="539" type="line"/>
      <point x="350" y="686" type="line"/>
      <point x="496" y="686" type="line"/>
      <point x="496" y="563" type="line"/>
    </contour>
    <contour>
      <point x="343" y="103" type="curve"/>
      <point x="343" y="9" type="line"/>
      <point x="316" y="-2"/>
      <point x="265" y="-10"/>
      <point x="233" y="-10" type="curve" smooth="yes"/>
      <point x="135" y="-10"/>
      <point x="78" y="27"/>
      <point x="78" y="133" type="curve" smooth="yes"/>
      <point x="78" y="411" type="line"/>
      <point x="22" y="411" type="line"/>
      <point x="22" y="511" type="line"/>
      <point x="83" y="511" type="line"/>
      <point x="134" y="674" type="line"/>
      <point x="224" y="674" type="line"/>
      <point x="224" y="511" type="line"/>
      <point x="343" y="511" type="line"/>
      <point x="343" y="411" type="line"/>
      <point x="224" y="411" type="line"/>
      <point x="224" y="158" type="line" smooth="yes"/>
      <point x="224" y="99"/>
      <point x="253" y="90"/>
      <point x="281" y="90" type="curve" smooth="yes"/>
      <point x="296" y="90"/>
      <point x="327" y="96"/>
    </contour>
    <contour>
      <point x="186" y="0" type="move" name="Bottom"/>
    </contour>
  </outline>
</glyph>
<glyph name="Umacron" format="1">
  <advance width="673"/>
  <unicode hex="016A"/>
  <outline>
    <contour>
      <point x="178" y="911" type="line"/>
      <point x="496" y="911" type="line"/>
      <point x="496" y="837" type="line"/>
      <point x="178" y="837" type="line"/>
    </contour>
    <contour>
      <point x="609" y="686" type="line"/>
      <point x="609" y="218" type="line" smooth="yes"/>
      <point x="609" y="80"/>
      <point x="506" y="-10"/>
      <point x="350" y="-10" type="curve" smooth="yes"/>
      <point x="322" y="-10" type="line" smooth="yes"/>
      <point x="166" y="-10"/>
      <point x="64" y="80"/>
      <point x="64" y="218" type="curve" smooth="yes"/>
      <point x="64" y="686" type="line"/>
      <point x="218" y="686" type="line"/>
      <point x="218" y="221" type="line" smooth="yes"/>
      <point x="218" y="158"/>
      <point x="267" y="112"/>
      <point x="337" y="112" type="curve" smooth="yes"/>
      <point x="408" y="112"/>
      <point x="455" y="157"/>
      <point x="455" y="221" type="curve" smooth="yes"/>
      <point x="455" y="686" type="line"/>
    </contour>
  </outline>
</glyph>
